<svg width="76" height="75" viewBox="0 0 76 75" fill="none" xmlns="http://www.w3.org/2000/svg">
<path d="M12.7878 32.278C12.6602 32.278 12.5347 32.2464 12.4223 32.1861C12.3099 32.1257 12.2143 32.0384 12.1439 31.9321C12.0735 31.8257 12.0305 31.7035 12.0189 31.5765C12.0072 31.4495 12.0272 31.3216 12.077 31.2042C13.0385 29.0312 14.1483 26.9268 15.3987 24.9062C15.4507 24.8175 15.5199 24.7401 15.6023 24.6786C15.6846 24.617 15.7784 24.5725 15.8782 24.5477C15.9779 24.5229 16.0816 24.5183 16.1832 24.5341C16.2848 24.5499 16.3822 24.5858 16.4697 24.6398C16.5572 24.6937 16.6331 24.7646 16.6928 24.8483C16.7525 24.9319 16.795 25.0267 16.8176 25.127C16.8403 25.2273 16.8426 25.331 16.8246 25.4323C16.8066 25.5335 16.7686 25.6301 16.7127 25.7164C15.7355 27.3013 14.9462 28.7898 14.3945 29.8987C15.4024 29.3976 16.7231 28.7005 18.1445 27.8444C18.3201 27.7387 18.5304 27.7071 18.7292 27.7564C18.928 27.8058 19.0991 27.9322 19.2048 28.1077C19.3105 28.2832 19.3421 28.4935 19.2927 28.6923C19.2434 28.8912 19.117 29.0622 18.9415 29.1679C17.0581 30.3083 15.1036 31.3269 13.09 32.2173C12.9944 32.2577 12.8916 32.2784 12.7878 32.278Z" fill="#0077C1"/>
<path d="M28.1381 20.3731C28.0051 20.373 27.8744 20.3385 27.7587 20.2731C27.6429 20.2076 27.546 20.1134 27.4774 19.9995C27.4088 19.8856 27.3707 19.7559 27.3669 19.623C27.3632 19.4901 27.3938 19.3584 27.4558 19.2408C27.8869 18.4477 28.1934 17.593 28.3644 16.7067C28.3826 16.6004 28.3751 16.4913 28.3425 16.3885C28.3098 16.2857 28.2531 16.1922 28.1769 16.1158C28.1008 16.0395 28.0075 15.9825 27.9048 15.9496C27.8021 15.9166 27.693 15.9088 27.5866 15.9267C26.6696 16.1044 25.7864 16.426 24.9698 16.8796C24.7894 16.9766 24.5779 16.998 24.3818 16.939C24.1857 16.88 24.0211 16.7456 23.9241 16.5652C23.8271 16.3848 23.8058 16.1733 23.8647 15.9772C23.9237 15.7811 24.0582 15.6165 24.2385 15.5195C25.199 14.9885 26.2376 14.6129 27.3155 14.4066C27.6668 14.3448 28.0278 14.3686 28.3679 14.4759C28.708 14.5832 29.0173 14.7709 29.2695 15.0231C29.5216 15.2753 29.7093 15.5846 29.8166 15.9248C29.9239 16.2649 29.9476 16.6259 29.8858 16.9771C29.6867 18.0205 29.3279 19.0269 28.8219 19.9608C28.7563 20.0853 28.658 20.1896 28.5374 20.2622C28.4169 20.3349 28.2788 20.3732 28.1381 20.3731Z" fill="#0077C1"/>
<path d="M35.8578 27.8993C35.7051 27.8993 35.5559 27.854 35.429 27.7692C35.302 27.6843 35.2031 27.5637 35.1447 27.4226C35.0863 27.2816 35.071 27.1263 35.1008 26.9766C35.1306 26.8268 35.2041 26.6893 35.3121 26.5813L36.8379 25.0557C37.5582 24.3244 38.4801 23.8243 39.4859 23.6192C40.4917 23.4142 41.5358 23.5135 42.485 23.9045C42.5807 23.9419 42.668 23.9981 42.7417 24.0697C42.8155 24.1413 42.8742 24.2269 42.9144 24.3215C42.9546 24.416 42.9756 24.5177 42.976 24.6205C42.9764 24.7233 42.9563 24.8251 42.9168 24.92C42.8773 25.0149 42.8193 25.101 42.7461 25.1732C42.673 25.2454 42.5861 25.3022 42.4907 25.3404C42.3953 25.3786 42.2932 25.3973 42.1904 25.3955C42.0877 25.3937 41.9863 25.3714 41.8922 25.3299C41.2252 25.0569 40.4918 24.9889 39.7859 25.1346C39.08 25.2802 38.4335 25.6329 37.9289 26.1477L36.4031 27.6732C36.3316 27.7449 36.2466 27.8018 36.153 27.8406C36.0594 27.8794 35.9591 27.8994 35.8578 27.8993Z" fill="#0077C1"/>
<path d="M48.3188 40.4688C48.1661 40.4688 48.0169 40.4235 47.89 40.3387C47.763 40.2538 47.6641 40.1333 47.6057 39.9923C47.5472 39.8512 47.5319 39.696 47.5617 39.5463C47.5914 39.3966 47.6649 39.259 47.7728 39.151L49.3535 37.5703C49.8682 37.0656 50.2208 36.4191 50.3664 35.7131C50.512 35.0072 50.444 34.2739 50.171 33.6067C50.0958 33.4183 50.0977 33.2079 50.1765 33.0209C50.2552 32.8339 50.4043 32.6854 50.5917 32.6075C50.779 32.5296 50.9895 32.5286 51.1775 32.6047C51.3656 32.6807 51.5162 32.8278 51.5967 33.014C51.9876 33.9632 52.0868 35.0073 51.8817 36.0131C51.6766 37.0189 51.1765 37.9408 50.4452 38.6611L48.8645 40.2418C48.793 40.3138 48.708 40.3709 48.6143 40.4099C48.5207 40.4488 48.4202 40.4688 48.3188 40.4688Z" fill="#0077C1"/>
<path d="M11.9488 55.3864C11.8373 55.3865 11.7271 55.3623 11.6259 55.3156L6.61409 53.0075C6.30968 52.8686 5.96676 52.8384 5.64274 52.922C5.31872 53.0057 5.03327 53.1981 4.83417 53.467L4.45277 53.9859C4.3927 54.0675 4.31714 54.1366 4.23038 54.1891C4.14363 54.2416 4.04738 54.2765 3.94715 54.2917C3.84691 54.307 3.74465 54.3024 3.64619 54.2782C3.54773 54.254 3.45501 54.2106 3.37332 54.1505C3.29163 54.0905 3.22257 54.0149 3.17008 53.9281C3.1176 53.8414 3.08271 53.7451 3.06742 53.6449C3.05213 53.5447 3.05673 53.4424 3.08097 53.3439C3.1052 53.2455 3.14859 53.1528 3.20865 53.0711L3.58983 52.5514C4.00026 51.9965 4.58895 51.5996 5.25722 51.4271C5.9255 51.2547 6.63274 51.3172 7.26042 51.6042L11.7737 53.6834C13.3487 52.05 19.6173 45.5777 27.317 38.0029C27.3888 37.93 27.4745 37.8721 27.569 37.8327C27.6634 37.7932 27.7648 37.7729 27.8672 37.7729C27.9696 37.773 28.0709 37.7934 28.1653 37.833C28.2597 37.8726 28.3453 37.9306 28.4171 38.0036C28.4889 38.0766 28.5455 38.1632 28.5835 38.2582C28.6215 38.3533 28.6403 38.4549 28.6387 38.5573C28.637 38.6597 28.615 38.7607 28.574 38.8545C28.533 38.9483 28.4737 39.033 28.3996 39.1036C19.5375 47.8222 12.5759 55.0764 12.5064 55.1488C12.4343 55.224 12.3477 55.2838 12.2519 55.3246C12.1561 55.3654 12.053 55.3864 11.9488 55.3864Z" fill="#0077C1"/>
<path d="M37.8183 29.7114C37.6638 29.7112 37.5129 29.6647 37.385 29.5779C37.2572 29.491 37.1584 29.3678 37.1014 29.2242C37.0443 29.0806 37.0317 28.9231 37.0652 28.7722C37.0986 28.6214 37.1766 28.484 37.2889 28.3779C42.9845 22.9997 47.9683 18.5258 52.1021 15.08C52.2594 14.9488 52.4623 14.8855 52.6663 14.904C52.8702 14.9225 53.0585 15.0213 53.1896 15.1786C53.3207 15.3359 53.384 15.5388 53.3655 15.7427C53.347 15.9467 53.2483 16.1349 53.091 16.2661C48.9814 19.6916 44.0215 24.1444 38.3491 29.5014C38.2056 29.6368 38.0156 29.7119 37.8183 29.7114Z" fill="#0077C1"/>
<path d="M46.6973 38.3108C46.5466 38.3107 46.3992 38.2665 46.2734 38.1836C46.1475 38.1008 46.0486 37.9829 45.9889 37.8446C45.9292 37.7062 45.9113 37.5534 45.9375 37.405C45.9636 37.2566 46.0325 37.119 46.1359 37.0093C51.4333 31.3954 55.8402 26.4838 59.2348 22.4115C59.366 22.2542 59.5542 22.1554 59.7582 22.1369C59.9621 22.1185 60.1651 22.1817 60.3224 22.3129C60.4796 22.444 60.5784 22.6323 60.5969 22.8362C60.6154 23.0401 60.5521 23.2431 60.421 23.4004C57.006 27.4967 52.5779 32.4321 47.2591 38.0695C47.1869 38.1459 47.0998 38.2068 47.0032 38.2483C46.9065 38.2898 46.8024 38.311 46.6973 38.3108Z" fill="#0077C1"/>
<path d="M21.9729 72.4431C21.8101 72.4433 21.6514 72.392 21.5195 72.2966C21.3876 72.2012 21.2893 72.0666 21.2385 71.9119C21.1877 71.7573 21.1871 71.5905 21.2367 71.4355C21.2864 71.2805 21.3838 71.1451 21.515 71.0488L22.0336 70.6676C22.3027 70.4686 22.4953 70.1831 22.5789 69.859C22.6626 69.5349 22.6323 69.1918 22.4931 68.8874L20.1842 63.8759C20.1169 63.73 20.0969 63.5668 20.1268 63.409C20.1567 63.2512 20.235 63.1067 20.3509 62.9955C20.4233 62.926 27.6793 55.9627 36.3994 47.0988C36.5432 46.9541 36.7385 46.8723 36.9425 46.8711C37.1466 46.87 37.3428 46.9496 37.4882 47.0927C37.6337 47.2357 37.7167 47.4306 37.7189 47.6346C37.7212 47.8386 37.6426 48.0352 37.5003 48.1815C29.9242 55.8824 23.45 62.1527 21.8165 63.7283L23.8958 68.2413C24.1828 68.869 24.2453 69.5763 24.0728 70.2446C23.9003 70.9129 23.5033 71.5016 22.9484 71.9119L22.4295 72.2933C22.2973 72.3908 22.1372 72.4433 21.9729 72.4431Z" fill="#0077C1"/>
<path d="M61.8799 18.5598C61.7408 18.5597 61.6044 18.522 61.485 18.4508C61.3656 18.3795 61.2676 18.2774 61.2014 18.1551C61.1353 18.0328 61.1034 17.8949 61.1091 17.7559C61.1148 17.617 61.158 17.4822 61.234 17.3657L61.8713 16.3896C62.1217 16.0061 62.2326 15.548 62.1853 15.0924C62.1379 14.6367 61.9353 14.2113 61.6114 13.8874C61.2874 13.5634 60.8619 13.3608 60.4063 13.3136C59.9506 13.2663 59.4926 13.3772 59.1091 13.6277L58.1239 14.2709C57.9524 14.3828 57.7435 14.4221 57.5431 14.38C57.3427 14.3379 57.1672 14.2179 57.0553 14.0464C56.9433 13.875 56.9041 13.666 56.9462 13.4656C56.9883 13.2652 57.1083 13.0898 57.2797 12.9778L58.2649 12.3346C58.9452 11.8904 59.7576 11.6938 60.5658 11.7777C61.3739 11.8617 62.1286 12.2211 62.7031 12.7956C63.2776 13.3702 63.6369 14.1248 63.7208 14.933C63.8048 15.7411 63.6081 16.5535 63.1639 17.2338L62.5282 18.2097C62.4579 18.3176 62.3618 18.4061 62.2486 18.4672C62.1353 18.5284 62.0086 18.5602 61.8799 18.5598Z" fill="#0077C1"/>
<path d="M22.0785 14.5055C21.9259 14.5055 21.7766 14.4602 21.6497 14.3753C21.5228 14.2905 21.4238 14.17 21.3654 14.0289C21.307 13.8879 21.2917 13.7327 21.3214 13.583C21.3512 13.4332 21.4246 13.2957 21.5326 13.1877L24.3654 10.3549C25.1579 9.56051 25.7491 8.58821 26.0897 7.51902C25.0205 7.85974 24.0483 8.4511 23.254 9.2438L20.429 12.0684C20.3577 12.1422 20.2725 12.201 20.1783 12.2415C20.0842 12.2819 19.9828 12.3032 19.8803 12.3041C19.7778 12.305 19.6762 12.2855 19.5813 12.2466C19.4864 12.2078 19.4002 12.1505 19.3277 12.078C19.2552 12.0055 19.1979 11.9193 19.1591 11.8244C19.1202 11.7295 19.1007 11.6279 19.1016 11.5254C19.1025 11.4229 19.1238 11.3215 19.1642 11.2274C19.2047 11.1332 19.2635 11.048 19.3373 10.9767L22.1632 8.15167C23.1323 7.18421 24.3188 6.46259 25.6236 6.04704L27.044 5.59616C27.1789 5.55307 27.3231 5.54793 27.4607 5.58131C27.5984 5.61469 27.7242 5.68529 27.8244 5.78539C27.9246 5.88549 27.9954 6.01123 28.0289 6.14885C28.0624 6.28647 28.0575 6.43066 28.0145 6.56564L27.5634 7.98623C27.1478 9.29098 26.4262 10.4774 25.4588 11.4466L22.6242 14.2794C22.5527 14.3512 22.4676 14.4081 22.3739 14.4469C22.2803 14.4857 22.1799 14.5056 22.0785 14.5055Z" fill="#0077C1"/>
<path d="M32.8946 25.0603C32.7419 25.0603 32.5926 25.0151 32.4657 24.9302C32.3387 24.8454 32.2397 24.7248 32.1813 24.5837C32.1228 24.4426 32.1076 24.2874 32.1374 24.1376C32.1671 23.9879 32.2407 23.8503 32.3487 23.7423L35.0498 21.0412C35.8424 20.2467 36.4338 19.2745 36.7748 18.2053C35.7054 18.5459 34.7329 19.1372 33.9385 19.9299L31.2303 22.638C31.0847 22.7787 30.8897 22.8565 30.6872 22.8547C30.4848 22.853 30.2912 22.7718 30.148 22.6286C30.0049 22.4855 29.9237 22.2919 29.9219 22.0894C29.9201 21.887 29.998 21.692 30.1386 21.5464L32.8468 18.8384C33.816 17.8711 35.0026 17.1495 36.3074 16.7338L37.7279 16.2827C37.8629 16.2396 38.0071 16.2345 38.1447 16.2678C38.2824 16.3012 38.4082 16.3718 38.5084 16.4719C38.6086 16.572 38.6794 16.6978 38.7129 16.8354C38.7464 16.973 38.7415 17.1172 38.6985 17.2522L38.2474 18.673C37.8316 19.9776 37.1099 21.164 36.1426 22.1331L33.4404 24.834C33.3688 24.9058 33.2838 24.9628 33.1901 25.0017C33.0964 25.0405 32.996 25.0604 32.8946 25.0603Z" fill="#0077C1"/>
<path d="M9.13653 64.7205C9.03054 64.7206 8.92566 64.6989 8.82845 64.6567C8.73125 64.6144 8.64381 64.5526 8.57161 64.475C7.06764 62.8611 4.28734 59.827 2.5683 57.635C2.16627 57.1188 1.94355 56.4856 1.93392 55.8315C1.92429 55.1773 2.12827 54.5378 2.51492 54.01L3.20558 53.0706C3.27149 52.9808 3.35604 52.9063 3.45344 52.8523C3.55084 52.7983 3.65878 52.7659 3.76984 52.7576C3.88091 52.7492 3.99247 52.7649 4.09688 52.8037C4.20128 52.8425 4.29606 52.9034 4.3747 52.9823L6.70543 55.3131C6.77831 55.3845 6.8363 55.4696 6.87607 55.5636C6.91583 55.6576 6.93657 55.7585 6.93709 55.8605C6.93761 55.9626 6.9179 56.0637 6.8791 56.1581C6.8403 56.2524 6.78317 56.3382 6.71103 56.4103C6.63888 56.4825 6.55315 56.5396 6.45879 56.5785C6.36442 56.6173 6.2633 56.637 6.16126 56.6365C6.05923 56.636 5.9583 56.6153 5.86432 56.5756C5.77034 56.5358 5.68517 56.4778 5.61374 56.405L3.91764 54.7086L3.75948 54.9239C3.57181 55.1796 3.47264 55.4895 3.47702 55.8066C3.4814 56.1237 3.58908 56.4308 3.78374 56.6811C5.46749 58.8281 8.21425 61.8255 9.70168 63.421C9.80426 63.531 9.87248 63.6686 9.89794 63.8168C9.92341 63.965 9.90503 64.1175 9.84505 64.2554C9.78507 64.3934 9.6861 64.5108 9.56031 64.5932C9.43452 64.6757 9.28738 64.7196 9.13698 64.7196L9.13653 64.7205Z" fill="#0077C1"/>
<path d="M11.6993 62.1713C11.5979 62.1714 11.4974 62.1515 11.4037 62.1127C11.31 62.0739 11.2249 62.017 11.1533 61.9452L7.5136 58.3055C7.37296 58.1599 7.29515 57.9649 7.2969 57.7624C7.29866 57.56 7.37986 57.3663 7.52301 57.2232C7.66615 57.0801 7.85979 56.9989 8.06223 56.9971C8.26466 56.9953 8.45968 57.0732 8.60529 57.2138L12.245 60.8535C12.3529 60.9615 12.4264 61.099 12.4561 61.2487C12.4859 61.3984 12.4706 61.5536 12.4122 61.6946C12.3538 61.8357 12.2549 61.9562 12.128 62.0411C12.0011 62.1259 11.8519 62.1712 11.6993 62.1713Z" fill="#0077C1"/>
<path d="M59.3885 51.4996C59.2561 51.4995 59.1258 51.4653 59.0104 51.4003C58.8949 51.3353 58.7981 51.2417 58.7293 51.1284C58.6605 51.0152 58.622 50.8862 58.6175 50.7538C58.613 50.6214 58.6427 50.49 58.7036 50.3724C59.1154 49.6004 59.4088 48.7709 59.5743 47.9117C59.5923 47.8054 59.5846 47.6962 59.5518 47.5935C59.5191 47.4907 59.4622 47.3973 59.3859 47.321C59.3096 47.2447 59.2162 47.1878 59.1134 47.155C59.0106 47.1222 58.9015 47.1146 58.7952 47.1326C57.917 47.3022 57.0698 47.6047 56.2829 48.0297C56.1015 48.1248 55.8898 48.1439 55.6944 48.0829C55.4989 48.0219 55.3357 47.8857 55.2406 47.7044C55.1455 47.523 55.1264 47.3113 55.1874 47.1158C55.2484 46.9204 55.3846 46.7571 55.566 46.6621C56.4926 46.1635 57.49 45.8097 58.5236 45.6127C58.8749 45.5509 59.2359 45.5746 59.576 45.6818C59.9161 45.7891 60.2254 45.9768 60.4777 46.2289C60.7299 46.4811 60.9176 46.7903 61.025 47.1304C61.1323 47.4706 61.1561 47.8315 61.0944 48.1828C60.9018 49.1946 60.5584 50.1718 60.0757 51.0816C60.0106 51.2077 59.9121 51.3134 59.7908 51.3871C59.6696 51.4609 59.5304 51.4998 59.3885 51.4996Z" fill="#0077C1"/>
<path d="M43.9949 63.4854C43.8674 63.4854 43.7418 63.4539 43.6295 63.3935C43.5171 63.3332 43.4214 63.246 43.351 63.1396C43.2806 63.0333 43.2376 62.9112 43.2259 62.7842C43.2142 62.6571 43.2342 62.5292 43.284 62.4118C44.1768 60.3924 45.1987 58.4324 46.3431 56.5442C46.395 56.4564 46.4637 56.3798 46.5454 56.3187C46.6271 56.2577 46.72 56.2134 46.8189 56.1885C46.9177 56.1635 47.0205 56.1584 47.1214 56.1735C47.2222 56.1885 47.3191 56.2233 47.4064 56.276C47.4937 56.3286 47.5697 56.3981 47.6301 56.4802C47.6904 56.5624 47.7338 56.6558 47.7579 56.7548C47.782 56.8539 47.7862 56.9568 47.7703 57.0575C47.7544 57.1582 47.7187 57.2547 47.6653 57.3416C46.805 58.7681 46.1049 60.0947 45.6017 61.1059C46.7104 60.5545 48.1985 59.7656 49.7823 58.7897C49.9566 58.6823 50.1665 58.6485 50.3657 58.6957C50.565 58.743 50.7373 58.8675 50.8448 59.0418C50.9522 59.2161 50.9861 59.426 50.9388 59.6252C50.8915 59.8245 50.767 59.9968 50.5927 60.1042C48.5724 61.3539 46.4686 62.4634 44.2963 63.425C44.2009 63.4651 44.0984 63.4857 43.9949 63.4854Z" fill="#0077C1"/>
<path d="M63.9426 56.4247C63.7899 56.4247 63.6407 56.3794 63.5137 56.2945C63.3868 56.2097 63.2879 56.0892 63.2295 55.9481C63.171 55.8071 63.1557 55.6519 63.1855 55.5022C63.2152 55.3524 63.2887 55.2149 63.3966 55.1069L66.2572 52.2474C67.0494 51.453 67.6403 50.4808 67.9806 49.4117C66.9114 49.7525 65.9391 50.344 65.1448 51.1367L62.3201 53.9603C62.1745 54.1009 61.9795 54.1787 61.7771 54.177C61.5746 54.1752 61.381 54.094 61.2378 53.9509C61.0947 53.8077 61.0135 53.6141 61.0117 53.4117C61.01 53.2092 61.0878 53.0142 61.2284 52.8686L64.0531 50.0451C65.0223 49.0777 66.2087 48.3561 67.5134 47.9404L68.934 47.4893C69.0689 47.4465 69.2129 47.4416 69.3504 47.4751C69.4879 47.5086 69.6135 47.5792 69.7136 47.6793C69.8136 47.7793 69.8843 47.9049 69.9178 48.0424C69.9513 48.1799 69.9463 48.3239 69.9035 48.4588L69.4524 49.8796C69.0367 51.1843 68.3151 52.3708 67.3478 53.34L64.4883 56.1992C64.4167 56.2709 64.3316 56.3278 64.2379 56.3665C64.1443 56.4051 64.0439 56.4249 63.9426 56.4247Z" fill="#0077C1"/>
<path d="M53.3749 45.6204C53.2222 45.6204 53.0729 45.5751 52.946 45.4902C52.8191 45.4054 52.7201 45.2848 52.6617 45.1437C52.6033 45.0026 52.588 44.8474 52.6178 44.6976C52.6476 44.5479 52.7212 44.4103 52.8291 44.3024L55.5702 41.5616C56.3628 40.7671 56.954 39.7947 57.2947 38.7255C56.2255 39.0663 55.2533 39.6576 54.4588 40.4502L51.7108 43.1981C51.5652 43.3388 51.3701 43.4166 51.1677 43.4148C50.9653 43.4131 50.7716 43.3319 50.6285 43.1887C50.4853 43.0456 50.4041 42.8519 50.4024 42.6495C50.4006 42.4471 50.4784 42.252 50.6191 42.1064L53.3669 39.3586C54.3363 38.3912 55.5227 37.6695 56.8275 37.2537L58.2481 36.8028C58.3832 36.7596 58.5275 36.7544 58.6653 36.7879C58.8031 36.8213 58.929 36.892 59.0293 36.9922C59.1295 37.0925 59.2003 37.2184 59.2337 37.3562C59.2671 37.494 59.2619 37.6384 59.2187 37.7734L58.7676 39.1938C58.3519 40.4986 57.6303 41.6851 56.663 42.6544L53.9219 45.3954C53.8501 45.4671 53.7648 45.5239 53.6709 45.5625C53.577 45.6011 53.4764 45.6208 53.3749 45.6204Z" fill="#0077C1"/>
<path d="M69.497 70.2527C69.3371 70.2528 69.1811 70.2033 69.0506 70.111C68.9201 70.0186 68.8214 69.8881 68.7683 69.7373C68.7151 69.5865 68.7101 69.4229 68.7539 69.2692C68.7977 69.1154 68.8882 68.979 69.0128 68.8789C70.1582 67.958 71.2426 66.9638 72.2592 65.9025C68.3658 61.4166 57.7445 50.4004 44.1783 36.7848C44.1067 36.713 44.05 36.6278 44.0114 36.534C43.9727 36.4403 43.9529 36.3399 43.9531 36.2385C43.9533 36.1371 43.9735 36.0367 44.0124 35.9431C44.0514 35.8495 44.1084 35.7645 44.1803 35.6929C44.2521 35.6214 44.3373 35.5646 44.4311 35.526C44.5248 35.4874 44.6252 35.4676 44.7266 35.4678C44.828 35.468 44.9284 35.4881 45.022 35.5271C45.1156 35.5661 45.2006 35.6231 45.2722 35.6949C56.3614 46.8242 69.7003 60.4784 73.8825 65.4231C74.0014 65.5638 74.0662 65.7424 74.065 65.9266C74.0638 66.1108 73.9968 66.2886 73.8761 66.4277C72.6796 67.7501 71.3771 68.9727 69.9816 70.0831C69.8442 70.1934 69.6732 70.2533 69.497 70.2527Z" fill="#0077C1"/>
<path d="M39.1493 31.4366C39.0482 31.4368 38.948 31.417 38.8545 31.3783C38.761 31.3397 38.676 31.2831 38.6045 31.2116C25.0398 17.6986 14.0662 7.11941 9.59711 3.24102C8.5356 4.25701 7.54109 5.34075 6.61983 6.48544C6.4915 6.645 6.30504 6.74706 6.10147 6.76915C5.89789 6.79124 5.69388 6.73156 5.53431 6.60323C5.37475 6.4749 5.27269 6.28844 5.2506 6.08487C5.23966 5.98407 5.24868 5.8821 5.27715 5.78479C5.30562 5.68748 5.35298 5.59673 5.41652 5.51772C6.52697 4.12252 7.74949 2.82033 9.07189 1.62411C9.211 1.50334 9.38872 1.43629 9.57294 1.43508C9.75717 1.43386 9.93575 1.49856 10.0764 1.61749C15.0024 5.78352 28.6059 19.0713 39.6942 30.1175C39.8024 30.2254 39.8762 30.3629 39.9062 30.5127C39.9362 30.6625 39.9211 30.8179 39.8627 30.9591C39.8044 31.1003 39.7054 31.2211 39.5785 31.306C39.4515 31.391 39.3021 31.4366 39.1493 31.4366Z" fill="#0077C1"/>
<path d="M59.8281 23.6771C59.6592 23.6772 59.4948 23.6217 59.3605 23.5191C57.3558 21.9902 57.5958 20.1353 58.0045 19.3681C58.2445 18.9322 57.9384 18.3258 57.5554 17.9424C57.1725 17.559 56.569 17.2586 56.1437 17.4913C55.3661 17.9047 53.5112 18.1456 51.9823 16.1411C51.8617 15.9829 51.8068 15.7844 51.8291 15.5867C51.8513 15.3891 51.9489 15.2077 52.1016 15.0803C52.4251 14.8103 52.7459 14.5448 53.0638 14.2837C54.0268 13.472 55.2241 12.9896 56.4808 12.9068C57.7374 12.8241 58.9877 13.1454 60.0487 13.8238C60.6528 14.3019 61.1994 14.8484 61.6776 15.4524C62.3561 16.5135 62.6774 17.7638 62.5947 19.0206C62.5119 20.2773 62.0293 21.4747 61.2174 22.4376C60.957 22.7548 60.6917 23.0754 60.4215 23.3993C60.349 23.4863 60.2583 23.5563 60.1558 23.6043C60.0532 23.6523 59.9414 23.6771 59.8281 23.6771ZM59.3718 20.0861C59.3175 20.2017 59.0254 20.9276 59.7545 21.7846C59.8452 21.6751 59.9351 21.5659 60.0243 21.4571C60.619 20.7432 60.9738 19.8602 61.0383 18.9333C61.1028 18.0064 60.8736 17.0828 60.3834 16.2935C60.0237 15.8691 59.6295 15.4752 59.2048 15.1158C58.4156 14.6259 57.4922 14.397 56.5656 14.4617C55.639 14.5264 54.7564 14.8814 54.043 15.4762L53.7152 15.7462C54.5726 16.4742 55.299 16.1835 55.4137 16.1287C56.4048 15.5945 57.671 15.8753 58.6454 16.8496C59.6197 17.824 59.906 19.0948 59.3718 20.0861Z" fill="#0077C1"/>
<path d="M66.7144 71.6714C65.9816 71.6713 65.2666 71.4455 64.6666 71.0249C61.5967 68.8777 55.0477 64.169 45.6751 56.7596C44.4501 55.7906 43.2823 54.7512 42.1777 53.6469L38.7806 50.3088C38.7077 50.2378 38.6495 50.1532 38.6094 50.0597C38.5693 49.9662 38.5481 49.8657 38.547 49.764C38.5458 49.6623 38.5648 49.5614 38.6028 49.467C38.6408 49.3726 38.6971 49.2867 38.7684 49.2142C38.8397 49.1416 38.9246 49.0839 39.0183 49.0443C39.112 49.0047 39.2126 48.984 39.3143 48.9833C39.4161 48.9827 39.5169 49.0022 39.6111 49.0407C39.7052 49.0792 39.7909 49.1359 39.863 49.2076L43.2649 52.5504C44.3286 53.6141 45.4532 54.615 46.6331 55.5482C55.9746 62.933 62.4958 67.6218 65.5519 69.7596C65.8945 70.0014 66.3043 70.1299 66.7236 70.1269C67.143 70.1239 67.5509 69.9897 67.8901 69.743C68.0117 69.6539 68.1335 69.5631 68.2554 69.4706L48.3583 53.4466C47.5139 52.7664 46.7065 52.0415 45.9396 51.2749L40.7747 46.1099C40.6056 45.9413 40.3766 45.8466 40.1379 45.8466C39.8991 45.8466 39.6701 45.9413 39.501 46.1099L37.506 48.1759C37.4362 48.2512 37.3521 48.3118 37.2585 48.3541C37.165 48.3965 37.0639 48.4198 36.9613 48.4226C36.8586 48.4254 36.7565 48.4077 36.6607 48.3706C36.565 48.3334 36.4777 48.2776 36.4038 48.2063C36.3299 48.1349 36.271 48.0496 36.2305 47.9552C36.19 47.8609 36.1688 47.7594 36.168 47.6567C36.1672 47.554 36.1869 47.4522 36.226 47.3572C36.265 47.2623 36.3226 47.176 36.3954 47.1036L38.3999 45.0274C38.6268 44.7991 38.8965 44.6177 39.1936 44.4936C39.4906 44.3695 39.8093 44.3051 40.1312 44.3042C40.4531 44.3033 40.7721 44.3658 41.0699 44.4882C41.3677 44.6106 41.6384 44.7904 41.8666 45.0175L47.0321 50.1837C47.7599 50.9112 48.526 51.5993 49.3274 52.2449L69.9826 68.8792C70.0725 68.9516 70.145 69.0431 70.1948 69.1472C70.2447 69.2513 70.2705 69.3652 70.2705 69.4806C70.2705 69.596 70.2447 69.71 70.1948 69.814C70.145 69.9181 70.0725 70.0097 69.9826 70.0821C69.5935 70.3951 69.1971 70.6997 68.8044 70.9885C68.1983 71.433 67.466 71.6723 66.7144 71.6714Z" fill="#0077C1"/>
<path d="M19.7122 73.5663C19.0429 73.5674 18.3927 73.3438 17.8656 72.9314C15.6944 71.2287 12.6906 68.4786 11.0936 66.991C10.9437 66.8514 10.8554 66.658 10.8481 66.4534C10.8409 66.2487 10.9152 66.0496 11.0547 65.8997C11.1943 65.7499 11.3877 65.6616 11.5923 65.6543C11.797 65.647 11.9961 65.7213 12.146 65.8609C13.7252 67.332 16.6923 70.0488 18.8188 71.7164C19.0692 71.911 19.3762 72.0186 19.6933 72.023C20.0104 72.0273 20.3203 71.9282 20.576 71.7407L20.7913 71.5823L17.3558 68.1468C17.2821 68.0756 17.2233 67.9904 17.1828 67.8962C17.1424 67.802 17.1211 67.7007 17.1202 67.5982C17.1193 67.4957 17.1388 67.394 17.1776 67.2992C17.2165 67.2043 17.2738 67.1181 17.3463 67.0456C17.4188 66.9731 17.505 66.9158 17.5998 66.8769C17.6947 66.8381 17.7964 66.8186 17.8989 66.8195C18.0014 66.8204 18.1027 66.8417 18.1969 66.8821C18.2911 66.9226 18.3763 66.9814 18.4475 67.0552L22.5176 71.125C22.5965 71.2037 22.6574 71.2984 22.6962 71.4028C22.735 71.5072 22.7508 71.6188 22.7424 71.7299C22.734 71.8409 22.7017 71.9489 22.6476 72.0463C22.5936 72.1437 22.5192 72.2282 22.4294 72.2941L21.4899 72.9848C20.9745 73.3632 20.3516 73.5669 19.7122 73.5663Z" fill="#0077C1"/>
<path d="M16.0353 66.5075C15.9338 66.5076 15.8334 66.4877 15.7397 66.4489C15.646 66.41 15.5609 66.353 15.4893 66.2812L13.6269 64.4188C13.4862 64.2732 13.4084 64.0781 13.4102 63.8757C13.4119 63.6733 13.4931 63.4796 13.6363 63.3365C13.7794 63.1933 13.9731 63.1121 14.1755 63.1104C14.3779 63.1086 14.573 63.1864 14.7186 63.3271L16.5812 65.1895C16.6892 65.2975 16.7627 65.4351 16.7925 65.5848C16.8223 65.7346 16.807 65.8898 16.7486 66.0309C16.6902 66.172 16.5912 66.2926 16.4642 66.3774C16.3373 66.4623 16.188 66.5075 16.0353 66.5075Z" fill="#0077C1"/>
<path d="M8.58572 69.3142C8.11063 69.3142 7.6462 69.1734 7.25117 68.9095C6.85614 68.6455 6.54825 68.2704 6.36644 67.8314C6.18463 67.3925 6.13706 66.9095 6.22976 66.4436C6.32245 65.9776 6.55124 65.5496 6.88719 65.2137L21.7548 50.3461C22.3781 49.7214 23.0607 49.159 23.7931 48.6667C26.934 46.5627 28.1115 46.3602 28.3151 46.3413C28.4282 46.3307 28.5422 46.3451 28.649 46.3836C28.7558 46.4221 28.8529 46.4837 28.9332 46.564C29.0135 46.6442 29.0751 46.7412 29.1136 46.8481C29.1521 46.9549 29.1666 47.0689 29.156 47.1819C29.1368 47.3862 28.9354 48.5637 26.8306 51.704C26.3384 52.4363 25.7759 53.1189 25.1512 53.742L10.2836 68.6108C10.0611 68.8344 9.79648 69.0117 9.50505 69.1324C9.21363 69.2532 8.90117 69.3149 8.58572 69.3142ZM26.9565 48.5416C26.381 48.8505 25.6244 49.2985 24.6536 49.9488C24.0048 50.385 23.4 50.8834 22.8479 51.4369L7.9802 66.3045C7.89769 66.3835 7.83178 66.4782 7.78635 66.5831C7.74092 66.6879 7.71688 66.8007 7.71564 66.915C7.7144 67.0292 7.73599 67.1426 7.77914 67.2484C7.82229 67.3541 7.88613 67.4502 7.96692 67.531C8.04771 67.6118 8.14381 67.6757 8.2496 67.7188C8.35539 67.762 8.46873 67.7835 8.58297 67.7823C8.69722 67.7811 8.81006 67.757 8.91489 67.7116C9.01972 67.6662 9.11442 67.6003 9.19344 67.5177L24.0622 52.6501C24.6157 52.0979 25.114 51.4932 25.5503 50.8444C26.1997 49.8749 26.6479 49.1169 26.9565 48.5416Z" fill="#0077C1"/>
<path d="M27.8562 39.325C27.7023 39.325 27.5519 39.2791 27.4244 39.1931C27.2968 39.1071 27.1978 38.9849 27.1402 38.8422C27.0825 38.6995 27.0688 38.5429 27.1008 38.3924C27.1328 38.2419 27.209 38.1044 27.3197 37.9975L29.3992 35.9901C29.5644 35.8206 29.656 35.5928 29.6543 35.3561C29.6525 35.1194 29.5574 34.893 29.3897 34.7259L24.2246 29.5606C23.4579 28.7939 22.7329 27.9866 22.0527 27.1421L6.02899 7.24506C5.93678 7.36697 5.84605 7.48866 5.75678 7.61013C5.51011 7.9493 5.37587 8.35722 5.3729 8.77659C5.36993 9.19596 5.49839 9.60574 5.74024 9.94836C7.87663 13.0035 12.5637 19.5219 19.9516 28.8678C20.8833 30.0459 21.8825 31.169 22.9444 32.2313L26.5788 35.6787C26.6523 35.7485 26.7114 35.8321 26.7526 35.9247C26.7939 36.0173 26.8165 36.1172 26.8191 36.2185C26.8218 36.3199 26.8044 36.4208 26.7681 36.5155C26.7318 36.6101 26.6771 36.6967 26.6073 36.7702C26.5375 36.8438 26.4539 36.9029 26.3613 36.9441C26.2687 36.9854 26.1688 37.0079 26.0675 37.0106C25.9661 37.0133 25.8652 36.9959 25.7705 36.9596C25.6759 36.9232 25.5893 36.8686 25.5158 36.7988L21.867 33.3371C20.7573 32.2283 19.7133 31.0556 18.7402 29.8251C11.3284 20.4501 6.62083 13.9022 4.47494 10.834C4.04778 10.2271 3.82162 9.50146 3.82827 8.75928C3.83491 8.0171 4.07404 7.29567 4.512 6.69645C4.79877 6.30469 5.10406 5.90851 5.41818 5.51829C5.49054 5.42844 5.58211 5.35594 5.68617 5.30613C5.79023 5.25632 5.90413 5.23047 6.0195 5.23047C6.13487 5.23047 6.24877 5.25632 6.35283 5.30613C6.45689 5.35594 6.54847 5.42844 6.62083 5.51829L23.2552 26.1735C23.9008 26.9745 24.5888 27.7403 25.3163 28.4676L30.4814 33.6331C30.9393 34.0919 31.1965 34.7135 31.1965 35.3617C31.1965 36.0098 30.9393 36.6315 30.4814 37.0902L28.3924 39.1075C28.2489 39.2471 28.0565 39.3251 27.8562 39.325Z" fill="#0077C1"/>
<path d="M29.2637 9.09331C29.1623 9.09343 29.0619 9.07352 28.9682 9.03472C28.8745 8.99591 28.7894 8.93899 28.7178 8.86721L24.7395 4.8889C24.6666 4.81748 24.6086 4.73233 24.5688 4.63836C24.5291 4.54438 24.5083 4.44346 24.5078 4.34143C24.5073 4.23939 24.527 4.13826 24.5658 4.04389C24.6046 3.94952 24.6617 3.86377 24.7339 3.79162C24.806 3.71946 24.8918 3.66231 24.9861 3.62349C25.0805 3.58467 25.1816 3.56494 25.2837 3.56544C25.3857 3.56594 25.4866 3.58666 25.5806 3.6264C25.6746 3.66615 25.7597 3.72413 25.8312 3.79699L29.8095 7.7753C29.9175 7.88326 29.991 8.02081 30.0208 8.17057C30.0506 8.32032 30.0353 8.47554 29.9769 8.61662C29.9185 8.75769 29.8196 8.87827 29.6926 8.96313C29.5657 9.04798 29.4164 9.09328 29.2637 9.09331Z" fill="#0077C1"/>
<path d="M39.9516 19.7794C39.8502 19.7795 39.7497 19.7596 39.656 19.7208C39.5623 19.682 39.4772 19.6251 39.4056 19.5533L35.4271 15.575C35.3534 15.5037 35.2945 15.4185 35.2541 15.3243C35.2136 15.2301 35.1923 15.1288 35.1914 15.0263C35.1905 14.9238 35.2101 14.8221 35.2489 14.7273C35.2877 14.6324 35.345 14.5462 35.4175 14.4737C35.49 14.4012 35.5762 14.3439 35.6711 14.3051C35.766 14.2662 35.8677 14.2467 35.9702 14.2476C36.0727 14.2485 36.174 14.2698 36.2682 14.3102C36.3624 14.3507 36.4476 14.4095 36.5188 14.4833L40.4975 18.4616C40.6055 18.5696 40.6789 18.7071 40.7087 18.8568C40.7384 19.0066 40.7231 19.1618 40.6647 19.3028C40.6063 19.4438 40.5073 19.5644 40.3804 19.6492C40.2535 19.734 40.1043 19.7793 39.9516 19.7794Z" fill="#0077C1"/>
<path d="M11.256 19.1473C11.1034 19.1472 10.9542 19.1019 10.8273 19.017C10.7004 18.9322 10.6015 18.8116 10.5431 18.6706C10.4847 18.5296 10.4694 18.3744 10.4992 18.2247C10.5289 18.075 10.6024 17.9374 10.7103 17.8295L13.1467 15.3926C13.292 15.2502 13.4876 15.1709 13.691 15.1719C13.8944 15.1729 14.0892 15.2541 14.2331 15.398C14.3769 15.5418 14.4582 15.7366 14.4593 15.94C14.4603 16.1434 14.381 16.339 14.2386 16.4843L11.802 18.9207C11.7304 18.9926 11.6453 19.0496 11.5516 19.0885C11.4579 19.1273 11.3575 19.1473 11.256 19.1473Z" fill="#0077C1"/>
<path d="M20.8771 31.6742C20.7245 31.6742 20.5753 31.6288 20.4484 31.544C20.3215 31.4592 20.2226 31.3386 20.1642 31.1976C20.1058 31.0566 20.0905 30.9014 20.1203 30.7517C20.15 30.602 20.2235 30.4644 20.3314 30.3565L23.0018 27.684C23.1471 27.5416 23.3428 27.4624 23.5462 27.4634C23.7496 27.4644 23.9444 27.5457 24.0882 27.6896C24.232 27.8334 24.3133 28.0282 24.3143 28.2317C24.3153 28.4351 24.236 28.6307 24.0935 28.7759L21.4222 31.4473C21.3508 31.5191 21.2658 31.5761 21.1723 31.6151C21.0788 31.654 20.9785 31.6741 20.8771 31.6742Z" fill="#0077C1"/>
<path d="M5.73305 60.6973C5.58035 60.6973 5.43107 60.652 5.30409 60.5672C5.17712 60.4823 5.07815 60.3617 5.01971 60.2207C4.96127 60.0796 4.94598 59.9243 4.97578 59.7746C5.00557 59.6248 5.07911 59.4872 5.1871 59.3792L8.28791 56.2784C8.35934 56.2056 8.44451 56.1476 8.53849 56.1079C8.63247 56.0681 8.73339 56.0474 8.83543 56.0469C8.93747 56.0464 9.03859 56.0661 9.13295 56.1049C9.22732 56.1438 9.31305 56.2009 9.38519 56.2731C9.45734 56.3452 9.51446 56.431 9.55327 56.5253C9.59207 56.6197 9.61178 56.7208 9.61126 56.8229C9.61074 56.9249 9.59 57.0258 9.55023 57.1198C9.51047 57.2138 9.45247 57.2989 9.3796 57.3703L6.27901 60.4709C6.20742 60.5428 6.12232 60.5998 6.02863 60.6386C5.93493 60.6774 5.83448 60.6974 5.73305 60.6973Z" fill="#0077C1"/>
<path d="M71.1556 50.9857C71.0542 50.9858 70.9538 50.9659 70.8601 50.9271C70.7664 50.8883 70.6813 50.8314 70.6097 50.7596L66.6309 46.7813C66.4885 46.636 66.4092 46.4405 66.4102 46.237C66.4112 46.0336 66.4924 45.8388 66.6362 45.6949C66.7801 45.5511 66.9749 45.4698 67.1783 45.4688C67.3817 45.4677 67.5773 45.547 67.7226 45.6894L71.7009 49.6679C71.8088 49.7759 71.8823 49.9134 71.912 50.0631C71.9418 50.2129 71.9265 50.368 71.8681 50.5091C71.8097 50.6501 71.7108 50.7706 71.5839 50.8555C71.457 50.9403 71.3078 50.9856 71.1552 50.9857H71.1556Z" fill="#0077C1"/>
<path d="M60.4712 40.3002C60.3698 40.3003 60.2694 40.2803 60.1758 40.2415C60.0821 40.2027 59.9971 40.1457 59.9255 40.0738L55.9472 36.0955C55.8066 35.9499 55.7287 35.7549 55.7305 35.5525C55.7323 35.35 55.8135 35.1564 55.9566 35.0132C56.0997 34.8701 56.2934 34.7889 56.4958 34.7871C56.6982 34.7854 56.8933 34.8632 57.0389 35.0038L61.0172 38.9821C61.1252 39.0901 61.1987 39.2277 61.2285 39.3775C61.2583 39.5272 61.243 39.6825 61.1846 39.8236C61.1261 39.9646 61.0272 40.0852 60.9002 40.1701C60.7732 40.2549 60.6239 40.3002 60.4712 40.3002Z" fill="#0077C1"/>
<path d="M57.1232 65.0173C56.9706 65.0172 56.8214 64.9719 56.6945 64.8871C56.5676 64.8022 56.4687 64.6817 56.4103 64.5406C56.3519 64.3996 56.3366 64.2444 56.3664 64.0947C56.3961 63.945 56.4696 63.8075 56.5775 63.6995L59.0139 61.2631C59.1595 61.1225 59.3545 61.0447 59.557 61.0464C59.7594 61.0482 59.953 61.1294 60.0962 61.2725C60.2393 61.4157 60.3205 61.6093 60.3223 61.8117C60.324 62.0142 60.2462 62.2092 60.1056 62.3548L57.6692 64.7912C57.5976 64.863 57.5125 64.92 57.4188 64.9588C57.3251 64.9976 57.2247 65.0175 57.1232 65.0173Z" fill="#0077C1"/>
<path d="M44.5959 55.3963C44.4433 55.3963 44.2941 55.3509 44.1672 55.2661C44.0403 55.1813 43.9414 55.0607 43.883 54.9197C43.8246 54.7786 43.8093 54.6235 43.839 54.4738C43.8688 54.324 43.9423 54.1865 44.0502 54.0785L46.7215 51.407C46.7932 51.3352 46.8784 51.2783 46.9722 51.2395C47.0659 51.2007 47.1664 51.1807 47.2679 51.1807C47.3694 51.1807 47.4698 51.2007 47.5636 51.2395C47.6573 51.2783 47.7425 51.3352 47.8143 51.407C47.886 51.4787 47.9429 51.5639 47.9818 51.6577C48.0206 51.7514 48.0406 51.8519 48.0406 51.9534C48.0406 52.0549 48.0206 52.1553 47.9818 52.2491C47.9429 52.3428 47.886 52.428 47.8143 52.4998L45.143 55.1711C45.0711 55.2429 44.9858 55.2997 44.8919 55.3383C44.798 55.377 44.6974 55.3967 44.5959 55.3963Z" fill="#0077C1"/>
<path d="M15.5768 70.5403C15.4241 70.5403 15.2748 70.495 15.1478 70.4102C15.0209 70.3254 14.9219 70.2048 14.8635 70.0637C14.805 69.9226 14.7897 69.7674 14.8195 69.6176C14.8493 69.4678 14.9229 69.3303 15.0308 69.2223L18.1317 66.1217C18.2031 66.0488 18.2883 65.9909 18.3822 65.9511C18.4762 65.9114 18.5771 65.8906 18.6792 65.8901C18.7812 65.8896 18.8823 65.9094 18.9767 65.9482C19.0711 65.987 19.1568 66.0442 19.2289 66.1163C19.3011 66.1885 19.3582 66.2742 19.397 66.3686C19.4358 66.463 19.4555 66.5641 19.455 66.6661C19.4545 66.7682 19.4337 66.8691 19.394 66.9631C19.3542 67.057 19.2962 67.1422 19.2233 67.2136L16.1228 70.314C16.0512 70.3858 15.9661 70.4428 15.8724 70.4817C15.7787 70.5205 15.6782 70.5404 15.5768 70.5403Z" fill="#0077C1"/>
</svg>
