<svg width="76" height="76" viewBox="0 0 76 76" fill="none" xmlns="http://www.w3.org/2000/svg">
<g clip-path="url(#clip0_110_1056)">
<path fill-rule="evenodd" clip-rule="evenodd" d="M36.1244 50.315C36.0497 50.315 35.975 50.3047 35.8988 50.2857C35.5135 50.1831 35.2455 49.8345 35.2455 49.4346V40.8828H30.0936C29.7772 40.8828 29.4857 40.7129 29.329 40.4375C29.1737 40.1636 29.1766 39.8252 29.3392 39.5542L37.3636 26.1143C37.5658 25.7744 37.9701 25.6133 38.3524 25.7173C38.7333 25.8228 38.9969 26.17 38.9969 26.5655V35.1538H43.7445C44.0565 35.1538 44.3465 35.3208 44.5033 35.5918C44.6615 35.8614 44.663 36.1953 44.5077 36.4678L36.889 49.8697C36.7294 50.1494 36.4349 50.315 36.1244 50.315ZM31.642 39.125H36.1244C36.6092 39.125 37.0033 39.5191 37.0033 40.0039V46.1109L42.2328 36.9131H38.118C37.6332 36.9131 37.2391 36.5191 37.2391 36.0342V29.753L31.642 39.125Z" fill="#0077C1"/>
<path fill-rule="evenodd" clip-rule="evenodd" d="M59.8294 67.1182C49.8758 67.1182 35.4266 60.3638 23.0164 49.9077C7.55937 36.8853 -0.588095 21.7212 3.64237 13.8506C3.77567 13.606 4.01591 13.436 4.29276 13.3965C4.56962 13.3584 4.84794 13.4521 5.04423 13.6499C5.72099 14.3369 6.62333 14.7163 7.5872 14.7163C9.55595 14.7163 11.157 13.1138 11.157 11.145C11.157 10.8008 11.1087 10.4609 11.012 10.1328C10.9388 9.88379 10.9783 9.61572 11.1219 9.40039C11.264 9.18359 11.4954 9.0415 11.7517 9.01074C12.4666 8.92725 13.2268 8.88477 14.0091 8.88477C23.9656 8.88477 38.4148 15.6392 50.8235 26.0923C63.2732 36.5806 71.3182 48.8311 71.3182 57.3022C71.3182 60.3989 70.2781 62.8438 68.2288 64.5723C66.2234 66.2612 63.3992 67.1167 59.8323 67.1182C59.8323 67.1182 59.8308 67.1182 59.8294 67.1182ZM4.75858 15.6641C2.1497 22.9985 10.2107 36.8208 24.1487 48.563C36.26 58.7671 50.2654 65.3589 59.8294 65.3604H59.8323C62.9729 65.3604 65.4163 64.6426 67.095 63.2275C68.7312 61.8491 69.5603 59.8569 69.5603 57.3037C69.5589 49.3291 61.76 37.6045 49.6897 27.437C37.5799 17.2344 23.5745 10.6426 14.0091 10.6426C13.6297 10.6426 13.2576 10.6528 12.8943 10.6748C12.909 10.8315 12.9163 10.9883 12.9163 11.145C12.9163 14.0835 10.5257 16.4741 7.5872 16.4741C6.5706 16.4741 5.59794 16.1914 4.75858 15.6641Z" fill="#0077C1"/>
<path fill-rule="evenodd" clip-rule="evenodd" d="M12.0469 67.0186C12.0161 67.0186 11.9854 67.0171 11.9546 67.0142C9.34131 66.7388 7.20557 65.917 5.60889 64.5723C3.55811 62.8438 2.51953 60.3989 2.51953 57.3037C2.51953 48.8325 10.5645 36.5806 23.0142 26.0923C35.4229 15.6377 49.875 8.88184 59.8301 8.88184C63.3955 8.88184 66.2197 9.73877 68.2251 11.4277C71.0537 13.811 71.9648 17.6182 70.8604 22.4404C70.8032 22.688 70.6406 22.8989 70.4165 23.019C70.1924 23.1392 69.9258 23.1553 69.6885 23.0645C69.2812 22.9077 68.8506 22.8286 68.4111 22.8286C66.4424 22.8286 64.8398 24.4312 64.8398 26.3999C64.8398 27.8105 65.6733 29.0923 66.9639 29.665C67.1924 29.7646 67.3652 29.958 67.4429 30.1938C67.5205 30.4297 67.4941 30.6875 67.3711 30.9028C63.7354 37.2778 58.0122 43.8506 50.8213 49.9092C41.1856 58.0259 30.3442 63.96 21.0776 66.1895C20.8154 66.251 20.54 66.1909 20.3276 66.0254C20.1167 65.8584 19.9937 65.6035 19.9937 65.334C19.9937 63.3667 18.3911 61.7642 16.4224 61.7642C14.4536 61.7642 12.8525 63.3667 12.8525 65.3354C12.8525 65.5508 12.873 65.769 12.9111 65.9814C12.9609 66.2539 12.8789 66.5352 12.6914 66.7373C12.5244 66.9175 12.29 67.0186 12.0469 67.0186ZM59.8301 10.6396C50.2647 10.6396 36.2578 17.2329 24.1465 27.437C12.0762 37.6045 4.27734 49.3291 4.27734 57.3037C4.27734 59.8569 5.10645 61.8491 6.74121 63.2275C7.85449 64.165 9.31787 64.7993 11.0991 65.1187C11.2119 62.2812 13.5571 60.0063 16.4224 60.0063C18.9844 60.0063 21.1289 61.8228 21.6372 64.2339C30.4292 61.8945 40.5908 56.2271 49.6875 48.5645C56.335 42.9644 61.8823 36.686 65.3994 30.7959C63.9668 29.813 63.082 28.1753 63.082 26.3999C63.082 23.4614 65.4727 21.0708 68.4097 21.0708C68.7202 21.0708 69.0264 21.0972 69.3281 21.1499C69.813 18.3843 69.6973 14.9668 67.0928 12.7725C65.4141 11.3574 62.9692 10.6396 59.8301 10.6396Z" fill="#0077C1"/>
<path fill-rule="evenodd" clip-rule="evenodd" d="M36.9165 75.5059C32.3008 75.5059 28.0234 71.5083 24.874 64.2485C21.8257 57.2231 20.1484 47.9009 20.1484 38C20.1484 28.0991 21.8257 18.7769 24.874 11.75C28.0234 4.4917 32.3008 0.494141 36.9165 0.494141C41.5337 0.494141 45.8096 4.4917 48.959 11.75C52.0073 18.7769 53.686 28.0991 53.686 38C53.686 47.9009 52.0073 57.2231 48.959 64.2485C45.8096 71.5083 41.5337 75.5059 36.9165 75.5059ZM36.9165 2.25195C35.0093 2.25195 33.1343 3.13672 31.3457 4.87988C29.5352 6.64502 27.9004 9.19238 26.4868 12.4502C23.5322 19.2603 21.9062 28.3335 21.9062 38C21.9062 47.665 23.5322 56.7397 26.4868 63.5498C27.9004 66.8076 29.5352 69.355 31.3457 71.1187C33.1343 72.8633 35.0093 73.748 36.9165 73.748C38.8252 73.748 40.6987 72.8633 42.4888 71.1187C44.2978 69.355 45.9326 66.8076 47.3462 63.5498C50.3008 56.7397 51.9282 47.665 51.9282 38C51.9282 28.3335 50.3008 19.2603 47.3462 12.4502C45.9326 9.19238 44.2978 6.64502 42.4888 4.87988C40.6987 3.13672 38.8252 2.25195 36.9165 2.25195Z" fill="#0077C1"/>
<path fill-rule="evenodd" clip-rule="evenodd" d="M7.58545 16.4741C4.64697 16.4741 2.25781 14.0835 2.25781 11.145C2.25781 8.20801 4.64697 5.81738 7.58545 5.81738C10.5239 5.81738 12.9146 8.20801 12.9146 11.145C12.9146 14.0835 10.5239 16.4741 7.58545 16.4741ZM7.58545 7.5752C5.6167 7.5752 4.01562 9.17627 4.01562 11.145C4.01562 13.1138 5.6167 14.7163 7.58545 14.7163C9.5542 14.7163 11.1553 13.1138 11.1553 11.145C11.1553 9.17627 9.5542 7.5752 7.58545 7.5752Z" fill="#0077C1"/>
<path fill-rule="evenodd" clip-rule="evenodd" d="M68.4111 31.7275C65.4727 31.7275 63.082 29.3369 63.082 26.3999C63.082 23.4614 65.4727 21.0708 68.4111 21.0708C71.3481 21.0708 73.7388 23.4614 73.7388 26.3999C73.7388 29.3369 71.3481 31.7275 68.4111 31.7275ZM68.4111 22.8286C66.4424 22.8286 64.8413 24.4312 64.8413 26.3999C64.8413 28.3687 66.4424 29.9697 68.4111 29.9697C70.3799 29.9697 71.981 28.3687 71.981 26.3999C71.981 24.4312 70.3799 22.8286 68.4111 22.8286Z" fill="#0077C1"/>
<path fill-rule="evenodd" clip-rule="evenodd" d="M16.4229 70.6631C13.4844 70.6631 11.0938 68.2739 11.0938 65.3354C11.0938 62.397 13.4844 60.0063 16.4229 60.0063C19.3599 60.0063 21.7505 62.397 21.7505 65.3354C21.7505 68.2725 19.3599 70.6631 16.4229 70.6631ZM16.4229 61.7642C14.4541 61.7642 12.8516 63.3667 12.8516 65.3354C12.8516 67.3042 14.4541 68.9053 16.4229 68.9053C18.3901 68.9053 19.9927 67.3042 19.9927 65.3354C19.9927 63.3667 18.3901 61.7642 16.4229 61.7642Z" fill="#0077C1"/>
</g>
<defs>
<clipPath id="clip0_110_1056">
<rect width="75" height="75" fill="white" transform="translate(0.5 0.5)"/>
</clipPath>
</defs>
</svg>
