<svg width="76" height="75" viewBox="0 0 76 75" fill="none" xmlns="http://www.w3.org/2000/svg">
<path d="M70.171 9.29507L70.17 8.21313L63.5172 3.42676L63.5221 8.15044H30.4928L30.4646 36.3912H24.0122H5.76562V69.1169H7.70625L8.40176 71.5729H11.2099L11.9054 69.1169H24.0122V69.1505H37.2363L37.9223 71.5729H40.731L41.417 69.1505H43.3666V69.1169H64.2174L64.9129 71.5729H67.7216L68.4171 69.1169H70.2306L70.171 9.29507ZM10.3724 70.4649H9.23906L8.86685 69.1503H10.7446L10.3724 70.4649ZM66.884 70.4649H65.7502L65.378 69.1503H67.2562L66.884 70.4649ZM53.6956 14.9637V14.3768H55.1962V14.9637H53.6956ZM53.8915 16.0716V17.6009C53.8915 18.4713 54.6001 19.1794 55.47 19.1794C56.3398 19.1794 57.0485 18.4713 57.0485 17.6009V16.8474H55.9406V17.6009C55.9406 17.8606 55.7297 18.0715 55.47 18.0715C55.2103 18.0715 54.9993 17.8606 54.9993 17.6009V16.0716H56.3041V14.3768H57.7387V16.0716H59.0435V17.6009C59.0435 18.4713 59.7522 19.1794 60.622 19.1794C61.4918 19.1794 62.2005 18.4713 62.2005 17.6009V16.8474H61.0926V17.6009C61.0926 17.8606 60.8817 18.0715 60.622 18.0715C60.3623 18.0715 60.1513 17.8606 60.1513 17.6009V16.0716H61.4561V14.3768H63.5282L63.5622 47.8345H50.612V14.3768H52.5876V16.0716H53.8915ZM58.8466 14.9637V14.3768H60.3483V14.9637H58.8466ZM63.5733 58.6038H50.6121V48.9422H63.5634L63.5733 58.6038ZM64.6468 24.6084L66.2502 25.2603V41.6091L64.6648 42.2543L64.6468 24.6084ZM49.5042 42.2696L47.8813 41.6091V25.2603L49.5042 24.6005V42.2696ZM50.6121 59.7118H63.5744L63.5788 64.0817V64.3651L68.6558 68.0091H50.6121V59.7118ZM69.062 8.78105L69.063 9.29609L69.1214 66.9866L64.6866 63.7959L64.6658 43.4497L67.3579 42.3556V24.5148L64.6453 23.4115L64.6271 5.59048L69.062 8.78105ZM63.5272 13.2689H50.6121V9.25815H63.5231L63.5272 13.2689ZM42.2587 46.9418H25.12V37.4989H42.2587V46.9418ZM42.2587 57.4917H25.12V48.0497H42.2587V57.4917ZM42.2587 68.0089H25.12V58.5995H42.2587V68.0089ZM6.87349 37.4989H24.0122V46.9418V48.0497V57.4917V58.5995V68.0089H6.87349V37.4989ZM39.8936 70.4649H38.7598L38.3876 69.1503H40.2658L39.8936 70.4649ZM43.3666 58.5995V57.4917V48.0497V46.9418V36.391H31.5727L31.5998 9.25815H49.5044V23.404L46.7736 24.5148V42.3556L49.5044 43.4653V68.0088H43.3667V58.5995H43.3666Z" fill="#0077C1"/>
<path d="M21.1604 48.4946V47.3867H18.707V55.6795H21.1604V54.5716H19.8149V48.4946H21.1604Z" fill="#0077C1"/>
<path d="M37.0875 40.9829H35.9796V41.8138H31.8463V40.9829H30.7383V42.9216H37.0875V40.9829Z" fill="#0077C1"/>
<path d="M37.0875 50.8398H35.9796V51.6719H31.8463V50.8398H30.7383V52.7797H37.0875V50.8398Z" fill="#0077C1"/>
<path d="M37.0875 61.936H35.9796V62.7669H31.8463V61.936H30.7383V63.8748H37.0875V61.936Z" fill="#0077C1"/>
<path d="M11.4472 33.5478H19.7622V32.4399H11.4472C10.6406 32.4399 9.98438 33.0962 9.98438 33.9032C9.98438 34.7097 10.6406 35.366 11.4472 35.366H21.0492V34.2581H11.4472C11.2513 34.2581 11.0922 34.099 11.0922 33.9032C11.0924 33.7073 11.2513 33.5478 11.4472 33.5478Z" fill="#0077C1"/>
<path d="M10.9667 31.7659H20.5687V30.658H10.9667C10.7708 30.658 10.6118 30.4985 10.6118 30.3026C10.6118 30.1068 10.7708 29.9477 10.9667 29.9477H19.2812V28.8398H10.9667C10.1602 28.8398 9.50391 29.4961 9.50391 30.3026C9.50405 31.1098 10.1602 31.7659 10.9667 31.7659Z" fill="#0077C1"/>
<path d="M53.1274 46.0733C53.1274 45.9142 53.2562 45.7855 53.4152 45.7855H61.1152V44.6777H53.4152C52.646 44.6777 52.0195 45.3041 52.0195 46.0734C52.0195 46.8426 52.6459 47.4691 53.4152 47.4691H62.3076V46.3613H53.4152C53.2562 46.3611 53.1274 46.2324 53.1274 46.0733Z" fill="#0077C1"/>
<path d="M51.7188 42.425C51.7188 43.1942 52.3451 43.8207 53.1145 43.8207H62.0066V42.7128H53.1145C52.9554 42.7128 52.8266 42.5841 52.8266 42.425C52.8266 42.2659 52.9554 42.1372 53.1145 42.1372H60.8144V41.0293H53.1145C52.3451 41.0293 51.7188 41.6558 51.7188 42.425Z" fill="#0077C1"/>
<path d="M33.9492 17.8112H35.0571V13.1801H39.6211V12.0723H33.9492V17.8112Z" fill="#0077C1"/>
</svg>
