<svg width="76" height="75" viewBox="0 0 76 75" fill="none" xmlns="http://www.w3.org/2000/svg">
<path d="M34.469 40.0452C34.769 40.0452 35.069 39.9304 35.2976 39.7019L40.6354 34.364C41.0937 33.9058 41.0937 33.1651 40.6354 32.7069C40.1772 32.2487 39.4366 32.2487 38.9784 32.7069L33.6405 38.0448C33.1823 38.503 33.1823 39.2437 33.6405 39.7019C33.869 39.9304 34.169 40.0452 34.469 40.0452Z" fill="#0077C1"/>
<path d="M39.3335 36.8871L37.5897 38.6297C37.1315 39.0867 37.1315 39.8285 37.5897 40.2867C37.8183 40.5152 38.1183 40.6301 38.4183 40.6301C38.7183 40.6301 39.0183 40.5152 39.2468 40.2867L40.9905 38.5441C41.4487 38.0871 41.4487 37.3453 40.9905 36.8871C40.5323 36.4289 39.7917 36.4289 39.3335 36.8871Z" fill="#0077C1"/>
<path d="M54.6068 55.3193H63.2049C65.4842 55.3193 67.3393 53.4643 67.3393 51.1861C67.3393 48.908 65.4842 47.0518 63.2049 47.0518H58.5666C56.8428 47.0518 55.2842 48.1393 54.6877 49.7564L53.319 53.4725C53.1643 53.892 53.224 54.3631 53.4795 54.7311C53.7361 55.099 54.158 55.3193 54.6068 55.3193ZM56.8873 50.5662C57.1451 49.8654 57.8201 49.3943 58.5666 49.3943H63.2049C64.1916 49.3943 64.9955 50.1982 64.9955 51.185C64.9955 52.1717 64.1916 52.9744 63.2049 52.9744H56.0002L56.8873 50.565V50.5662Z" fill="#0077C1"/>
<path d="M4.19531 55.9205C4.19531 59.19 6.00117 62.0424 8.66367 63.5447V68.5674C8.66367 70.8209 10.4977 72.6549 12.7512 72.6549H19.4953C21.7488 72.6549 23.5828 70.8209 23.5828 68.5674V64.6721H52.418V68.5674C52.418 70.8209 54.252 72.6549 56.5055 72.6549H63.2496C65.5031 72.6549 67.3371 70.8209 67.3371 68.5674V63.5447C70.0008 62.0424 71.8055 59.19 71.8055 55.9205V48.7357C71.8055 43.91 67.8797 39.9842 63.0539 39.9842C62.1621 39.9842 61.268 40.1307 60.416 40.4002L55.0582 30.4299C54.2625 28.951 52.7262 28.0322 51.048 28.0322H24.9527C23.2734 28.0322 21.7371 28.951 20.9426 30.4299L15.5848 40.4002C14.7316 40.1318 13.8375 39.9842 12.9469 39.9842C8.12109 39.9842 4.19531 43.91 4.19531 48.7357V55.9205ZM21.2402 68.5674C21.2402 69.5295 20.4586 70.3111 19.4965 70.3111H12.7523C11.7902 70.3111 11.0086 69.5295 11.0086 68.5674V64.6721H21.2402V68.5674ZM64.9957 64.6721V68.5674C64.9957 69.5295 64.2141 70.3111 63.252 70.3111H56.5078C55.5457 70.3111 54.7641 69.5295 54.7641 68.5674V64.6721H64.9957ZM23.0074 31.5396C23.393 30.8213 24.1383 30.376 24.9539 30.376H51.0516C51.866 30.376 52.6125 30.8213 52.998 31.5396L58.2516 41.3166L56.7984 41.9893C55.9594 42.3783 55.0289 42.5822 54.1066 42.5822H21.8988C20.9766 42.5822 20.0449 42.3772 19.207 41.9893L17.7539 41.3166L23.0074 31.5396ZM6.53906 48.7357C6.53906 45.2025 9.41367 42.3279 12.9469 42.3279C13.8715 42.3279 14.802 42.533 15.6398 42.9209L18.2227 44.1162C19.3676 44.6459 20.6391 44.926 21.8988 44.926H54.1043C55.3641 44.926 56.6355 44.6459 57.7805 44.1162L60.3633 42.9197C61.2 42.5318 62.1316 42.3268 63.0551 42.3268C66.5883 42.3268 69.4629 45.2014 69.4629 48.7346V55.9193C69.4629 59.4525 66.5883 62.3271 63.0551 62.3271H12.9469C9.41367 62.3271 6.53906 59.4525 6.53906 55.9193V48.7357Z" fill="#0077C1"/>
<path d="M12.7984 55.3193H21.3965C21.8453 55.3193 22.2672 55.099 22.5238 54.7311C22.7793 54.3631 22.8402 53.8932 22.6844 53.4725L21.3156 49.7564C20.7191 48.1393 19.1605 47.0518 17.4367 47.0518H12.7984C10.5191 47.0518 8.66406 48.9068 8.66406 51.1861C8.66406 53.4654 10.5191 55.3193 12.7984 55.3193ZM12.7984 49.3955H17.4367C18.1832 49.3955 18.8582 49.8666 19.116 50.5674L20.0031 52.9768H12.7984C11.8117 52.9768 11.0078 52.174 11.0078 51.1873C11.0078 50.2006 11.8117 49.3955 12.7984 49.3955Z" fill="#0077C1"/>
<path d="M25.9085 56.8956C26.246 57.9198 27.1741 58.6065 28.2183 58.6065H47.7839C48.8292 58.6065 49.7574 57.9187 50.0937 56.8956L51.0265 54.062C51.2878 53.2698 51.1542 52.3968 50.6691 51.7276C50.205 51.0854 49.4925 50.7163 48.7167 50.7163H27.2843C26.5085 50.7163 25.796 51.0843 25.332 51.7276C24.8468 52.3968 24.7144 53.2698 24.9745 54.062L25.9074 56.8944L25.9085 56.8956ZM27.2855 53.0612L48.7706 53.1022C48.7882 53.1257 48.8398 53.2112 48.8011 53.3296L47.8671 56.1632C47.8437 56.2335 47.8015 56.2628 47.7839 56.2628H28.2183C28.2007 56.2628 28.1585 56.2323 28.1351 56.162L27.2023 53.3284C27.1636 53.2101 27.2152 53.1257 27.2855 53.0612Z" fill="#0077C1"/>
<path d="M69.6585 11.101C70.0581 11.101 70.4308 10.8971 70.6452 10.5607C70.8608 10.2244 70.889 9.80137 70.7214 9.43809C68.7292 5.1291 64.364 2.34473 59.6015 2.34473C55.3288 2.34473 51.3901 4.55254 49.1565 8.15137H27.1663C24.9327 4.55254 20.9929 2.34473 16.7202 2.34473C11.9835 2.34473 7.62061 5.11855 5.60381 9.4123C5.43272 9.77559 5.45967 10.1998 5.6753 10.5385C5.89092 10.8771 6.26358 11.0822 6.66436 11.0822H16.0991L18.4921 14.6154L16.1003 18.1311H6.66436C6.26475 18.1311 5.89326 18.3338 5.67764 18.6701C5.46201 19.0064 5.43272 19.4295 5.59912 19.7928C7.58194 24.1029 11.9472 26.8885 16.7202 26.8885C20.9929 26.8885 24.9315 24.6818 27.1663 21.0818H49.1577C51.3913 24.6807 55.3312 26.8885 59.6026 26.8885C64.3499 26.8885 68.714 24.1135 70.7202 19.8186C70.8901 19.4553 70.8632 19.0311 70.6476 18.6936C70.4319 18.3561 70.0593 18.151 69.6585 18.151H60.2202L57.8144 14.6354L60.2214 11.1033H69.6585V11.101ZM58.6335 9.26934L55.4273 13.9744C55.1554 14.3729 55.1566 14.8979 55.4273 15.2951L58.6335 19.9826C58.8515 20.3014 59.2136 20.4936 59.6003 20.4936H67.6042C65.7562 23.0014 62.7855 24.5447 59.6003 24.5447C55.9499 24.5447 52.6007 22.5549 50.8581 19.351C50.653 18.9736 50.2581 18.7393 49.8292 18.7393H26.4925C26.0636 18.7393 25.6675 18.9736 25.4636 19.351C23.721 22.5549 20.3706 24.5459 16.7214 24.5459C13.5163 24.5459 10.5397 22.9955 8.70459 20.476H16.7214C17.1093 20.476 17.4726 20.2838 17.6905 19.9627L20.878 15.2752C21.1476 14.8779 21.1487 14.3564 20.8792 13.958L17.6917 9.25176C17.4737 8.93066 17.1093 8.7373 16.7214 8.7373H8.72217C10.5749 6.22949 13.5444 4.6873 16.7214 4.6873C20.3706 4.6873 23.721 6.67715 25.4636 9.88223C25.6687 10.2596 26.0636 10.4939 26.4925 10.4939H49.8304C50.2593 10.4939 50.6554 10.2596 50.8593 9.88223C52.6019 6.67832 55.9511 4.68848 59.6015 4.68848C62.7995 4.68848 65.7749 6.23887 67.6147 8.7584H59.6015C59.2136 8.7584 58.8515 8.94941 58.6335 9.26934Z" fill="#0077C1"/>
<path d="M46.9891 13.4438H29.3359C28.6891 13.4438 28.1641 13.9688 28.1641 14.6157C28.1641 15.2626 28.6891 15.7876 29.3359 15.7876H46.9891C47.6359 15.7876 48.1609 15.2626 48.1609 14.6157C48.1609 13.9688 47.6359 13.4438 46.9891 13.4438Z" fill="#0077C1"/>
</svg>
