<svg width="76" height="75" viewBox="0 0 76 75" fill="none" xmlns="http://www.w3.org/2000/svg">
<path d="M48.5165 65.1489H46.1359C45.556 65.1489 45.0859 65.619 45.0859 66.1989C45.0859 66.7789 45.556 67.2489 46.1359 67.2489H48.5165C49.0964 67.2489 49.5665 66.7789 49.5665 66.1989C49.5665 65.619 49.0964 65.1489 48.5165 65.1489Z" fill="#0077C1"/>
<path d="M69.4395 58.4401H68.1572V51.6804C68.1572 51.1005 67.6872 50.6304 67.1072 50.6304H64.4028V47.9197C64.4028 47.3398 63.9328 46.8697 63.3528 46.8697C62.7729 46.8697 62.3028 47.3398 62.3028 47.9197V50.6304H59.8161C59.2362 50.6304 58.7661 51.1005 58.7661 51.6804V58.4401H52.0829C52.4002 57.8887 52.5827 57.2505 52.5827 56.5699V52.9781C53.0495 52.548 53.3462 51.9526 53.3669 51.2925L53.9932 46.1858C53.9983 46.1433 54.001 46.1007 54.001 46.0579C54.001 44.5087 52.6717 43.4333 50.9031 42.6879V34.0251V32.4267C50.9031 30.2674 49.0257 28.5107 46.7178 28.5107H27.6439C25.3362 28.5107 23.4587 30.2674 23.4587 32.4267V34.0251V42.6874C21.6869 43.4337 20.3607 44.5094 20.3607 46.058C20.3607 46.1007 20.3633 46.1433 20.3685 46.1858L20.9948 51.2926C21.0155 51.9527 21.3122 52.548 21.779 52.9782V56.57C21.779 57.2505 21.9615 57.8888 22.2788 58.4401H17.3405V52.199C17.3405 51.6191 16.8704 51.149 16.2905 51.149H13.5859V48.4382C13.5859 47.8582 13.1159 47.3882 12.5359 47.3882C11.956 47.3882 11.4859 47.8582 11.4859 48.4382V51.149H8.99937C8.41944 51.149 7.94937 51.6191 7.94937 52.199V58.4401H6.10469C5.52476 58.4401 5.05469 58.9102 5.05469 59.4901V66.1987C5.05469 66.7786 5.52476 67.2487 6.10469 67.2487H40.6221C41.202 67.2487 41.6721 66.7786 41.6721 66.1987C41.6721 65.6187 41.202 65.1487 40.6221 65.1487H7.15469V60.5401H8.99937H16.2905H68.3895V65.1487H54.4116C53.8316 65.1487 53.3616 65.6187 53.3616 66.1987C53.3616 66.7786 53.8316 67.2487 54.4116 67.2487H69.4395C70.0195 67.2487 70.4895 66.7786 70.4895 66.1987V59.4901C70.4895 58.9102 70.0195 58.4401 69.4395 58.4401ZM60.8661 52.7304H66.0572V57.9217H60.8661V52.7304ZM23.879 53.6719H29.4263V56.57C29.4263 57.4864 28.6807 58.232 27.7643 58.232H25.541C24.6245 58.232 23.8789 57.4864 23.8789 56.57L23.879 53.6719ZM31.3423 51.5719V42.476C31.3423 41.5981 32.1679 40.8838 33.1826 40.8838H41.1791C42.1939 40.8838 43.0195 41.5981 43.0195 42.476V51.5719H31.3423ZM44.9355 53.6719H50.4827V56.57C50.4827 57.4864 49.7373 58.232 48.8208 58.232H46.5974C45.681 58.232 44.9355 57.4864 44.9355 56.57V53.6719ZM51.8981 46.0175L51.2758 51.0911C51.2707 51.1336 51.268 51.1763 51.268 51.219C51.268 51.407 51.0415 51.5719 50.7834 51.5719H45.1195V43.4104C50.4797 44.1323 51.8283 45.5145 51.8981 46.0175ZM25.5587 32.4267C25.5587 31.4253 26.4941 30.6107 27.6439 30.6107H46.7178C47.8677 30.6107 48.8031 31.4253 48.8031 32.4267V32.9751H25.5587V32.4267ZM25.5587 35.0751H48.8031V41.9882C47.4596 41.6335 46.0653 41.4075 44.9006 41.2647C44.3642 39.8222 42.8991 38.7838 41.179 38.7838H33.1826C31.4626 38.7838 29.9974 39.8223 29.4611 41.2649C28.2851 41.4095 26.8946 41.6361 25.5587 41.9884L25.5587 35.0751ZM29.2423 43.4108V51.5719H23.5784C23.3201 51.5719 23.0937 51.407 23.0937 51.219C23.0937 51.1763 23.091 51.1336 23.0859 51.0912L22.4636 46.0175C22.5333 45.5124 23.8859 44.132 29.2423 43.4108ZM31.5263 56.57V53.6719H42.8355V56.57C42.8355 57.2505 43.018 57.8888 43.3353 58.4401H31.0265C31.3438 57.8888 31.5263 57.2505 31.5263 56.57ZM10.0494 58.4401V53.249H15.2405V58.4401H10.0494Z" fill="#0077C1"/>
<path d="M32.5188 9.85098H34.6382C35.2182 9.85098 35.6882 9.38091 35.6882 8.80098C35.6882 8.22105 35.2182 7.75098 34.6382 7.75098H32.5188C31.9388 7.75098 31.4688 8.22105 31.4688 8.80098C31.4688 9.38091 31.9388 9.85098 32.5188 9.85098Z" fill="#0077C1"/>
<path d="M69.3539 22.6579L67.4742 18.5203C68.2796 18.0037 68.8158 17.1027 68.8158 16.0769V14.896H69.4388C70.0187 14.896 70.4888 14.426 70.4888 13.846V8.80098C70.4888 8.22105 70.0187 7.75098 69.4388 7.75098H38.8366C38.2567 7.75098 37.7866 8.22105 37.7866 8.80098C37.7866 9.38091 38.2567 9.85098 38.8366 9.85098H68.3888V12.796H67.7658H57.8221H18.9422H8.9986H7.15391V9.85098H27.2221C27.8021 9.85098 28.2721 9.38091 28.2721 8.80098C28.2721 8.22105 27.8021 7.75098 27.2221 7.75098H6.10391C5.52398 7.75098 5.05391 8.22105 5.05391 8.80098V13.846C5.05391 14.426 5.52398 14.896 6.10391 14.896H7.9486V16.0769C7.9486 17.1756 8.56222 18.1335 9.46463 18.6264L5.95733 26.2967C4.12715 27.1519 2.85547 29.0094 2.85547 31.1593C2.85547 34.1176 5.26205 36.5242 8.22031 36.5242C8.5559 36.5242 8.88388 36.4917 9.20255 36.4325L13.5468 38.6677C14.0576 38.9305 14.6035 39.055 15.142 39.055C16.0953 39.0549 17.0246 38.6644 17.6911 37.96L20.3249 39.2502C20.4736 39.3231 20.6309 39.3576 20.786 39.3576C21.1742 39.3576 21.5474 39.1414 21.7297 38.7692C21.9848 38.2484 21.7694 37.6194 21.2486 37.3644L18.6437 36.0883C18.7482 35.5264 18.7127 34.944 18.5334 34.3845C18.248 33.4943 17.6332 32.7686 16.8019 32.3409L13.5622 30.674C13.4878 29.8483 13.2262 29.076 12.8193 28.4002L17.1276 18.978C18.7106 18.9571 19.9923 17.6647 19.9923 16.0769V14.896H56.7721V16.0769C56.7721 17.6776 58.0744 18.9799 59.6752 18.9799H59.8683L62.8769 25.6028C62.5783 26.2702 62.4109 27.0085 62.4109 27.7856C62.4109 28.3981 62.5155 28.9863 62.7053 29.535C62.6948 29.5505 62.6837 29.5654 62.6738 29.5815L60.5898 33.0266C60.5797 33.0432 60.5715 33.0604 60.5625 33.0774C60.1621 33.1358 59.7705 33.2385 59.3944 33.3859L58.8503 32.2348C58.6824 31.8796 58.3304 31.6479 57.9378 31.6341L54.7909 31.5238C54.2169 31.5037 53.7251 31.9568 53.7047 32.5364C53.6845 33.1159 54.1379 33.6022 54.7174 33.6226L57.2252 33.7105L57.6133 34.5314C56.7222 35.3911 56.1607 36.5229 56.0166 37.7691C55.8518 39.1927 56.2513 40.5951 57.1414 41.7181C57.8905 42.6633 58.9123 43.3139 60.0655 43.5948L59.8892 44.6254L57.8456 45.2274C57.2894 45.3913 56.9712 45.9751 57.1351 46.5314C57.2699 46.9886 57.6882 47.2849 58.1419 47.2849C58.2401 47.2849 58.3401 47.271 58.4391 47.2419L61.1106 46.4548C61.4948 46.3416 61.7812 46.0196 61.8487 45.6247L62.1806 43.6846C64.4998 43.3183 66.3924 41.446 66.6751 39.0024C66.7553 38.3089 66.7007 37.6206 66.5216 36.967L68.9032 33.0303C71.3218 32.5109 73.1407 30.3572 73.1407 27.7856C73.1407 25.3764 71.5443 23.3334 69.3539 22.6579ZM8.49304 25.8014L11.6122 18.9799H14.8175L11.2663 26.7464C10.4704 26.1954 9.51962 25.853 8.49304 25.8014ZM4.95548 31.1593C4.95548 29.359 6.42004 27.8945 8.22032 27.8945C10.0206 27.8945 11.4852 29.359 11.4852 31.1593C11.4852 32.9596 10.0206 34.4242 8.22032 34.4242C6.42004 34.4242 4.95548 32.9596 4.95548 31.1593ZM16.5336 35.0255C16.6477 35.3814 16.6164 35.7606 16.4451 36.0932L16.3923 36.1962C16.0392 36.8825 15.1936 37.1538 14.5076 36.8003L11.6136 35.3112C12.3785 34.6849 12.9668 33.8516 13.2944 32.8979L15.8413 34.2082C16.1737 34.3792 16.4195 34.6695 16.5336 35.0255ZM17.8922 16.0769C17.8922 16.5197 17.532 16.8799 17.0892 16.8799H10.8515C10.4088 16.8799 10.0486 16.5197 10.0486 16.0769V14.896H17.8922V16.0769ZM58.8721 16.0769V14.896H66.7158V16.0769C66.7158 16.5197 66.3556 16.8799 65.9128 16.8799H59.6751C59.2323 16.8799 58.8721 16.5197 58.8721 16.0769ZM65.3765 18.9799L66.9672 22.4816C65.9657 22.6336 65.0549 23.0644 64.3148 23.6909L62.1748 18.9799L65.3765 18.9799ZM66.4733 32.9898L65.3611 34.8283C64.6982 34.0782 63.8528 33.5386 62.9071 33.2531L63.9453 31.5368C64.6278 32.2336 65.4978 32.7456 66.4733 32.9898ZM64.5891 38.761C64.3821 40.5491 62.7581 41.8389 60.9705 41.6289C60.1042 41.5288 59.3289 41.0971 58.7872 40.4138C58.2455 39.7303 58.0023 38.8768 58.1025 38.0105C58.2028 37.1442 58.6344 36.3687 59.3179 35.827C59.9006 35.3652 60.6068 35.1204 61.3394 35.1204C61.4659 35.1204 61.5935 35.1277 61.7211 35.1424C62.5874 35.2427 63.3627 35.6743 63.9044 36.3578C64.4462 37.0413 64.6893 37.8947 64.5891 38.761ZM67.7757 31.0505C65.9754 31.0505 64.5109 29.5859 64.5109 27.7857C64.5109 25.9854 65.9754 24.5207 67.7757 24.5207C69.576 24.5207 71.0407 25.9854 71.0407 27.7857C71.0407 29.586 69.576 31.0505 67.7757 31.0505Z" fill="#0077C1"/>
<path d="M38.9474 43.2261H35.5031C34.9232 43.2261 34.4531 43.6961 34.4531 44.2761C34.4531 44.856 34.9232 45.3261 35.5031 45.3261H38.9474C39.5273 45.3261 39.9974 44.856 39.9974 44.2761C39.9974 43.6961 39.5273 43.2261 38.9474 43.2261Z" fill="#0077C1"/>
<path d="M38.9005 47.2065H35.4562C34.8763 47.2065 34.4062 47.6766 34.4062 48.2565C34.4062 48.8365 34.8763 49.3065 35.4562 49.3065H38.9005C39.4805 49.3065 39.9505 48.8365 39.9505 48.2565C39.9505 47.6766 39.4805 47.2065 38.9005 47.2065Z" fill="#0077C1"/>
<path d="M24.6016 47.0356H27.2728V49.4773H24.6016V47.0356Z" fill="#0077C1"/>
<path d="M47.1797 47.0356H49.8509V49.4773H47.1797V47.0356Z" fill="#0077C1"/>
</svg>
