<svg width="76" height="75" viewBox="0 0 76 75" fill="none" xmlns="http://www.w3.org/2000/svg">
<path d="M66.7159 48.6025C66.25 48.6025 65.8636 48.2161 65.8636 47.7502V13.0229H59.6023C59.1364 13.0229 58.75 12.6365 58.75 12.1706C58.75 11.7047 59.1364 11.3184 59.6023 11.3184H66.7159C67.1818 11.3184 67.5682 11.7047 67.5682 12.1706V47.7502C67.5682 48.2161 67.1932 48.6025 66.7159 48.6025Z" fill="#0077C1"/>
<path d="M57.1257 47.1479C56.6598 47.1479 56.2734 46.7615 56.2734 46.2956V19.6706C56.2734 19.2047 56.6598 18.8184 57.1257 18.8184C57.5916 18.8184 57.978 19.2047 57.978 19.6706V46.2956C57.978 46.7615 57.603 47.1479 57.1257 47.1479Z" fill="#0077C1"/>
<path d="M66.7166 30.5H57.1257C56.6598 30.5 56.2734 30.1136 56.2734 29.6477V23.8977C56.2734 23.4318 56.6598 23.0454 57.1257 23.0454H66.7166C67.1825 23.0454 67.5689 23.4318 67.5689 23.8977V29.6477C67.5689 30.125 67.1939 30.5 66.7166 30.5ZM57.978 28.7954H65.8643V24.75H57.978V28.7954Z" fill="#0077C1"/>
<path d="M49.2624 54.6024C48.7965 54.6024 48.4102 54.216 48.4102 53.7501V20.1365C48.4102 19.6705 48.7965 19.2842 49.2624 19.2842C49.7283 19.2842 50.1147 19.6705 50.1147 20.1365V53.7501C50.1147 54.216 49.7397 54.6024 49.2624 54.6024Z" fill="#0077C1"/>
<path d="M39.6726 68.7844C39.2067 68.7844 38.8203 68.3981 38.8203 67.9322V20.239C38.8203 19.7731 39.2067 19.3867 39.6726 19.3867C40.1385 19.3867 40.5249 19.7731 40.5249 20.239V67.9322C40.5249 68.3981 40.1499 68.7844 39.6726 68.7844Z" fill="#0077C1"/>
<path d="M49.2752 30.5H39.6843C39.2184 30.5 38.832 30.1136 38.832 29.6477V23.8977C38.832 23.4318 39.2184 23.0454 39.6843 23.0454H49.2752C49.7411 23.0454 50.1275 23.4318 50.1275 23.8977V29.6477C50.1275 30.125 49.7411 30.5 49.2752 30.5ZM40.5252 28.7954H48.4116V24.75H40.5252V28.7954Z" fill="#0077C1"/>
<path d="M32.3408 25.6934C32.3181 25.6934 32.284 25.6934 32.2613 25.6934C31.7954 25.6479 31.4545 25.2274 31.4999 24.7615C31.5908 23.7729 31.2727 22.807 30.5795 22.0684C30.3636 21.8411 30.2954 21.5115 30.3977 21.2161C30.409 21.1706 30.4431 21.1024 30.4772 21.0456C30.5795 20.8184 30.784 20.6479 31.0227 20.5797C31.3068 20.5115 31.6022 20.5684 31.8181 20.7615C32.6704 21.5229 33.784 21.8297 34.8636 21.6138C35.8636 21.4093 36.5113 20.8184 36.8749 20.3638C37.0227 20.1706 37.2499 20.057 37.4999 20.0456C37.6931 20.0343 37.8863 20.0229 38.0795 19.9888C39.0454 19.7956 39.8636 19.2047 40.3977 18.307C40.5568 18.0343 40.8636 17.8638 41.1818 17.8865C41.4545 17.8979 41.8068 17.9093 42.1477 17.8411C42.2954 17.807 42.4431 17.7502 42.6136 17.6933C43.0227 17.5343 43.4886 17.7161 43.6818 18.1024C44.3977 19.5229 45.9658 20.307 47.4999 19.9774C48.6818 19.7388 49.6477 18.932 50.0795 17.807C50.1704 17.5797 50.3522 17.3979 50.5908 17.3184C50.8181 17.2388 51.0795 17.2615 51.2954 17.3752C52.034 17.7956 52.8522 17.9206 53.6022 17.7843C53.8636 17.7388 54.1249 17.807 54.3181 17.9774C55.3977 18.9093 56.8181 19.1138 58.1363 18.5115C59.284 17.9888 60.0908 16.7956 60.1363 15.557C60.2158 13.9661 59.3068 12.5911 57.8295 12.0456C57.409 11.8865 57.1818 11.4434 57.3068 11.0115C57.5795 10.057 57.7045 9.00017 55.9999 7.36381C55.5681 6.94335 55.0908 6.67062 54.6249 6.59108C53.5454 6.38653 52.4999 6.65926 51.659 7.37517C51.4204 7.57972 51.0908 7.63653 50.7954 7.5229C50.4999 7.40926 50.2954 7.1479 50.2613 6.84108C50.2499 6.7729 50.2499 6.70472 50.2386 6.63653C49.8522 4.71608 47.9886 3.48881 46.0908 3.87517C45.2272 4.04562 44.4658 4.54562 43.9545 5.2729C43.8068 5.47744 43.5795 5.61381 43.3181 5.63653C43.0681 5.65926 42.8181 5.55699 42.6363 5.37517C41.7954 4.48881 40.5795 4.11381 39.3977 4.35244C38.5568 4.5229 37.7954 5.0229 37.2613 5.75017C37.0681 6.01153 36.7386 6.1479 36.4204 6.07972C36.1022 6.0229 35.8408 5.7729 35.7499 5.46608C35.2727 3.67062 33.4772 2.55699 31.6818 2.92062C31.5568 2.94335 31.4658 2.97744 31.3636 3.01153L31.2386 3.05699C31.0681 3.11381 30.8749 3.11381 30.7045 3.05699C30.0795 2.85244 29.4545 2.80699 28.8522 2.92062C27.5908 3.17062 26.5795 4.11381 26.2045 5.37517C26.1136 5.68199 25.8636 5.90926 25.5454 5.96608C25.2272 6.0229 24.909 5.90926 24.7158 5.6479C23.8863 4.57972 22.5568 4.07972 21.2499 4.34108C19.8749 4.62517 18.7954 5.69335 18.5227 7.05699C18.4658 7.31835 18.2954 7.53426 18.0568 7.6479C17.8181 7.76153 17.534 7.76153 17.2954 7.63653C16.534 7.23881 15.7272 7.11381 14.9318 7.2729C13.9999 7.46608 13.2045 8.01153 12.6931 8.81835C12.5454 9.04562 12.3068 9.18199 12.0454 9.20472L11.8863 9.21608C11.8295 9.21608 11.7613 9.21608 11.7045 9.22744C9.82948 9.61381 8.59084 11.4774 8.97721 13.3752C9.29539 14.9093 10.6136 16.057 12.1818 16.1593C12.4204 16.1706 12.6363 16.2843 12.784 16.4661C12.9318 16.6479 12.9999 16.8865 12.9772 17.1138L12.9545 17.2729C12.9431 17.3638 12.9318 17.4434 12.9318 17.5343C12.9318 17.8524 12.9886 18.182 13.1136 18.5797C13.2272 18.9434 13.0795 19.3411 12.7613 19.5456C11.7386 20.2047 11.1363 21.3183 11.1363 22.5002C11.1363 23.1365 11.3068 23.7502 11.6363 24.2843C11.8863 24.682 11.7613 25.2047 11.3522 25.4547C10.9545 25.7047 10.4204 25.5797 10.1818 25.1706C9.69312 24.3752 9.43175 23.4433 9.43175 22.5002C9.43175 20.9433 10.1249 19.4774 11.3295 18.4888C11.2727 18.2274 11.2386 17.9774 11.2386 17.7274C9.29539 17.2729 7.73857 15.7161 7.31812 13.7161C6.73857 10.9093 8.56812 8.1479 11.3863 7.55699C11.4318 7.54562 11.4658 7.54562 11.4999 7.53426C12.2613 6.53426 13.3408 5.86381 14.5908 5.60244C15.4545 5.43199 16.3181 5.47744 17.1477 5.73881C17.8068 4.18199 19.2045 3.0229 20.909 2.67062C22.4204 2.36381 23.9318 2.73881 25.1136 3.6479C25.8522 2.40926 27.0795 1.53426 28.5227 1.23881C29.3295 1.07972 30.1477 1.11381 30.9658 1.34108C31.1136 1.29562 31.2386 1.26153 31.3636 1.23881C33.5681 0.784261 35.7613 1.84108 36.8636 3.71608C37.5113 3.19335 38.2613 2.84108 39.0681 2.67062C40.5227 2.37517 41.9999 2.71608 43.1704 3.56835C43.8749 2.87517 44.7727 2.38653 45.7613 2.19335C48.2613 1.69335 50.7158 3.06835 51.6477 5.35244C52.659 4.85244 53.7954 4.69335 54.9431 4.90926C55.7386 5.05699 56.5113 5.47744 57.1818 6.13653C59.0795 7.95472 59.3068 9.5229 59.1022 10.7615C60.8636 11.7161 61.9318 13.5911 61.8295 15.6479C61.7499 17.5343 60.5681 19.2729 58.8295 20.0684C57.0454 20.8865 55.0454 20.6706 53.4999 19.5229C52.6704 19.6252 51.9658 19.5002 51.2499 19.2388C50.4999 20.4774 49.2727 21.3524 47.8181 21.6479C45.7727 22.0797 43.6818 21.2047 42.5113 19.5002C42.4999 19.5002 42.4886 19.5002 42.4772 19.5115C42.1477 19.5797 41.8408 19.6024 41.5681 19.6024C40.7954 20.6706 39.659 21.3979 38.3977 21.6479C38.2386 21.682 38.0908 21.6934 37.9431 21.7047C37.2045 22.5002 36.2386 23.0456 35.1931 23.2729C34.4772 23.4206 33.7613 23.4093 33.0681 23.2615C33.1931 23.7956 33.2272 24.3524 33.1704 24.9206C33.1477 25.3638 32.7727 25.6934 32.3408 25.6934Z" fill="#0077C1"/>
<path d="M36.8891 68.7841C36.5254 68.7841 36.1959 68.5455 36.0709 68.1818C31.9573 55.0795 30.1732 42.8182 30.6277 30.6932C30.6504 30.2273 31.0482 29.8523 31.5141 29.875C31.98 29.8977 32.355 30.2841 32.3323 30.7614C31.8891 42.6932 33.6504 54.7614 37.7073 67.6818C37.8436 68.1364 37.5936 68.6136 37.1504 68.75C37.0595 68.7727 36.98 68.7841 36.8891 68.7841Z" fill="#0077C1"/>
<path d="M6.16188 68.7842C6.07098 68.7842 5.99143 68.7729 5.90052 68.7388C5.45734 68.591 5.20734 68.1138 5.35507 67.6706C9.5937 54.5001 11.3551 42.4433 10.7301 30.7842C10.7073 30.3183 11.071 29.9092 11.5369 29.8865C12.0255 29.8751 12.4119 30.2274 12.4346 30.6933C13.071 42.557 11.2869 54.8297 6.9687 68.1933C6.85507 68.557 6.52552 68.7842 6.16188 68.7842Z" fill="#0077C1"/>
<path d="M10.9314 64.8071C10.8519 64.8071 10.7723 64.7958 10.7041 64.773C10.2496 64.648 9.98823 64.1708 10.1132 63.7162C11.5451 58.6253 12.6246 53.5912 13.3064 48.7617C13.3746 48.2958 13.8064 47.9776 14.2723 48.0344C14.7382 48.1026 15.0678 48.5344 14.9996 49.0003C14.3064 53.9094 13.2155 59.0117 11.761 64.1821C11.6473 64.5571 11.2951 64.8071 10.9314 64.8071Z" fill="#0077C1"/>
<path d="M20.7844 65.3754H16.239C15.7731 65.3754 15.3867 64.9891 15.3867 64.5232C15.3867 64.0573 15.7731 63.6709 16.239 63.6709H20.7844C21.2504 63.6709 21.6367 64.0573 21.6367 64.5232C21.6367 64.9891 21.2504 65.3754 20.7844 65.3754Z" fill="#0077C1"/>
<path d="M31.0682 31.6137H11.9545C9.77273 31.6137 8 29.841 8 27.6591C8 25.4773 9.77273 23.7046 11.9545 23.7046H31.0682C33.25 23.7046 35.0227 25.4773 35.0227 27.6591C35.0227 29.841 33.25 31.6137 31.0682 31.6137ZM11.9545 25.4091C10.7159 25.4091 9.70455 26.4205 9.70455 27.6591C9.70455 28.8978 10.7159 29.9091 11.9545 29.9091H31.0682C32.3068 29.9091 33.3182 28.8978 33.3182 27.6591C33.3182 26.4205 32.3068 25.4091 31.0682 25.4091H11.9545Z" fill="#0077C1"/>
<path d="M60.037 51.4662C59.6734 51.4662 59.3325 51.2275 59.2189 50.8639L57.8666 46.5116C57.8211 46.3525 57.8098 46.1707 57.8666 46.0116L58.878 42.6593C58.9916 42.2616 59.378 42.0116 59.787 42.0571L63.4348 42.4434C63.7189 42.4775 63.9689 42.648 64.0939 42.898L66.5939 47.6934C66.8098 48.1139 66.6507 48.6253 66.2302 48.8412C65.8098 49.0571 65.2984 48.898 65.0825 48.4775L62.7871 44.0798L60.2984 43.8184L59.5711 46.2389L60.8552 50.3412C60.9916 50.7957 60.7416 51.273 60.2984 51.4093C60.2075 51.4548 60.1166 51.4662 60.037 51.4662Z" fill="#0077C1"/>
<path d="M68.5355 73.8637H4.27415C3.80824 73.8637 3.42188 73.4773 3.42188 73.0114V67.9319C3.42188 67.466 3.80824 67.0796 4.27415 67.0796H68.5355C69.0014 67.0796 69.3878 67.466 69.3878 67.9319V73.0114C69.3878 73.4773 69.0014 73.8637 68.5355 73.8637ZM5.12642 72.1591H67.6832V68.7841H5.12642V72.1591Z" fill="#0077C1"/>
<path d="M59.921 56.114C59.4664 56.114 59.0914 55.7617 59.0687 55.2958L58.8755 50.8981C58.8642 50.5685 59.0346 50.2617 59.3301 50.114L62.9096 48.1935C63.3187 47.9663 63.8414 48.1254 64.0687 48.5458C64.296 48.9549 64.1369 49.4776 63.7164 49.7049L60.6142 51.3754L60.7846 55.239C60.8074 55.7049 60.4437 56.1026 59.9664 56.1254C59.9437 56.114 59.9324 56.114 59.921 56.114Z" fill="#0077C1"/>
<path d="M68.7861 52.8524C68.627 52.8524 68.4679 52.8069 68.3201 52.716C67.9224 52.4547 67.8088 51.9319 68.0701 51.5342L68.4792 50.8978L66.9679 48.7956L63.8997 49.591C63.4451 49.7047 62.9792 49.4319 62.8656 48.9774C62.752 48.5228 63.0247 48.0569 63.4792 47.9433L67.1156 47.0001C67.4565 46.9092 67.8201 47.0456 68.0247 47.3297L70.2292 50.3751C70.4338 50.6592 70.4451 51.0456 70.252 51.341L69.5247 52.466C69.3315 52.716 69.0588 52.8524 68.7861 52.8524Z" fill="#0077C1"/>
<path d="M53.1723 54.5455C52.8087 54.5455 52.4678 54.3069 52.3542 53.9433L50.3314 47.4433C50.286 47.2842 50.2746 47.1023 50.3314 46.9433L51.3428 43.591C51.4564 43.1933 51.8428 42.9433 52.2519 42.9887L55.8996 43.3751C56.1951 43.4092 56.4451 43.5796 56.5701 43.8523L60.4905 51.8637C60.6042 52.1023 60.6042 52.3751 60.4905 52.6137C60.3769 52.8523 60.161 53.0228 59.911 53.0796L53.3542 54.5228C53.286 54.5455 53.2292 54.5455 53.1723 54.5455ZM52.036 47.1933L53.7519 52.6933L58.4905 51.6478L55.2519 45.0342L52.7746 44.7728L52.036 47.1933Z" fill="#0077C1"/>
<path d="M55.4549 59.6705C55.3753 59.6705 55.3071 59.6591 55.2276 59.6364C54.773 59.5114 54.5117 59.0455 54.6367 58.5909L56.2503 52.7955C56.3753 52.3409 56.8526 52.0795 57.2958 52.2045C57.7503 52.3295 58.0117 52.7955 57.8867 53.25L56.273 59.0455C56.1708 59.4205 55.8299 59.6705 55.4549 59.6705Z" fill="#0077C1"/>
<path d="M49.6953 59.6707C49.3089 59.6707 48.9567 59.4093 48.8657 59.0116L47.8544 54.6707C47.7748 54.3298 47.9112 53.9661 48.2067 53.7729L51.6271 51.4775C51.7521 51.3979 51.8998 51.3411 52.0476 51.3298L52.6157 51.2957C53.093 51.2616 53.4907 51.6252 53.5135 52.0911C53.5362 52.557 53.1839 52.9661 52.718 52.9889L52.3771 53.0116L49.6385 54.8525L50.5135 58.6252C50.6157 59.0798 50.3317 59.5457 49.8771 59.6479C49.8203 59.6593 49.7635 59.6707 49.6953 59.6707Z" fill="#0077C1"/>
<path d="M68.8303 59.6706C68.6484 59.6706 68.4666 59.6138 68.3075 59.4888C67.9325 59.2047 67.8643 58.6706 68.1484 58.2956L70.6143 55.1024L68.603 52.8978L60.228 56.1592V58.8183C60.228 59.2842 59.8416 59.6706 59.3757 59.6706C58.9098 59.6706 58.5234 59.2842 58.5234 58.8183V55.5797C58.5234 55.2274 58.7393 54.9092 59.0689 54.7842L68.5348 51.1024C68.8643 50.9774 69.2393 51.0569 69.478 51.3183L72.3643 54.4774C72.6484 54.7842 72.6598 55.2501 72.4098 55.5683L69.5121 59.3297C69.3416 59.5569 69.0916 59.6706 68.8303 59.6706Z" fill="#0077C1"/>
<path d="M71.6246 65.239H68.2724C67.8065 65.239 67.4201 64.8527 67.4201 64.3868C67.4201 63.9209 67.8065 63.5345 68.2724 63.5345H70.7724V59.9549C70.7724 59.7959 70.6474 59.6709 70.4883 59.6709H46.8519C46.6928 59.6709 46.5678 59.7959 46.5678 59.9549V63.5345H49.5678C50.0337 63.5345 50.4201 63.9209 50.4201 64.3868C50.4201 64.8527 50.0337 65.239 49.5678 65.239H45.7156C45.2496 65.239 44.8633 64.8527 44.8633 64.3868V59.9549C44.8633 58.864 45.761 57.9663 46.8519 57.9663H70.4883C71.5792 57.9663 72.4769 58.864 72.4769 59.9549V64.3868C72.4769 64.8527 72.1019 65.239 71.6246 65.239Z" fill="#0077C1"/>
<path d="M63.2976 65.2387H54.5476C54.0817 65.2387 53.6953 64.8524 53.6953 64.3865C53.6953 63.9205 54.0817 63.5342 54.5476 63.5342H63.2976C63.7635 63.5342 64.1499 63.9205 64.1499 64.3865C64.1499 64.8524 63.7749 65.2387 63.2976 65.2387Z" fill="#0077C1"/>
<path d="M65.7862 67.8296C63.9453 67.8296 62.4453 66.341 62.4453 64.5001V64.3865C62.5362 62.5569 64.0021 61.1592 65.7862 61.1592C67.5703 61.1592 69.0362 62.5569 69.1271 64.341V64.3865V64.5001C69.1271 66.3296 67.6271 67.8296 65.7862 67.8296ZM65.7862 62.8637C64.9112 62.8637 64.1953 63.5569 64.1499 64.4319V64.5001C64.1499 65.3978 64.8885 66.1251 65.7862 66.1251C66.684 66.1251 67.4226 65.3978 67.4226 64.5001V64.4092C67.3658 63.5455 66.6499 62.8637 65.7862 62.8637Z" fill="#0077C1"/>
<path d="M52.0597 67.8296C50.2187 67.8296 48.7188 66.341 48.7188 64.5001V64.3865C48.8097 62.5569 50.2756 61.1592 52.0597 61.1592C53.8437 61.1592 55.3097 62.5569 55.4006 64.341V64.3865V64.5001C55.4006 66.3296 53.9006 67.8296 52.0597 67.8296ZM52.0597 62.8637C51.1847 62.8637 50.4688 63.5569 50.4233 64.4319V64.5001C50.4233 65.3978 51.1619 66.1251 52.0597 66.1251C52.9574 66.1251 53.696 65.3978 53.696 64.5001V64.4092C53.6392 63.5455 52.9233 62.8637 52.0597 62.8637Z" fill="#0077C1"/>
</svg>
