<svg width="76" height="75" viewBox="0 0 76 75" fill="none" xmlns="http://www.w3.org/2000/svg">
<path d="M69.7002 43.5764C71.6059 43.5764 73.1562 42.026 73.1562 40.1204V25.6343C73.1562 23.8636 71.8175 22.4006 70.0991 22.2021V14.9244C70.0991 14.9242 70.0991 14.9226 70.0991 14.9226C70.0981 12.6619 68.2587 10.8235 65.9986 10.8235C65.9981 10.8235 65.9973 10.8235 65.9967 10.8235H41.9552V4.27275H46.286C46.7283 4.27275 47.0867 3.91431 47.0867 3.47207C47.0867 3.02983 46.7283 2.67139 46.286 2.67139H29.714C29.2717 2.67139 28.9133 3.02983 28.9133 3.47207C28.9133 3.91431 29.2717 4.27275 29.714 4.27275H34.0448V10.8235H10.0949C7.8377 10.8275 6.00137 12.6672 6.00137 14.9244V22.192C4.23491 22.3439 2.84375 23.8293 2.84375 25.6343V40.1204C2.84375 42.026 4.39399 43.5764 6.29961 43.5764H14.526C16.4316 43.5764 17.9819 42.026 17.9819 40.1204V25.6343C17.9819 23.7502 16.4661 22.2143 14.59 22.18V19.2881C14.5902 19.1267 14.6532 18.9751 14.7674 18.8611C14.8817 18.7472 15.0392 18.6814 15.1958 18.6846H34.0448V22.8582H30.1128C29.6706 22.8582 29.3122 23.2167 29.3122 23.6589V39.7697C29.3122 40.212 29.6706 40.5704 30.1128 40.5704H34.0448V45.6845H31.5277C29.057 45.6845 27.0469 47.6945 27.0469 50.1653V56.2416H25.8459C25.4037 56.2416 25.0452 56.6 25.0452 57.0423V63.0123C25.0452 63.4545 25.4037 63.8129 25.8459 63.8129H27.7733V70.7277H26.2084C25.7662 70.7277 25.4078 71.0862 25.4078 71.5284C25.4078 71.9707 25.7662 72.3291 26.2084 72.3291H49.0637C49.5059 72.3291 49.8644 71.9707 49.8644 71.5284C49.8644 71.0862 49.5059 70.7277 49.0637 70.7277H48.2267V63.8129H50.1541C50.5963 63.8129 50.9548 63.4545 50.9548 63.0123V57.0423C50.9548 56.6 50.5963 56.2416 50.1541 56.2416H48.9531V50.1651C48.9531 47.6944 46.943 45.6843 44.4723 45.6843H41.9552V40.5703H45.8872C46.3294 40.5703 46.6878 40.2118 46.6878 39.7696V23.6588C46.6878 23.2166 46.3294 22.8581 45.8872 22.8581H41.9552V18.6845H60.9062C61.2393 18.6845 61.5103 18.9555 61.5103 19.2886V22.1783H61.474C59.5684 22.1783 58.018 23.7287 58.018 25.6343V40.1204C58.018 42.026 59.5684 43.5764 61.474 43.5764H69.7002ZM29.3747 70.7274V63.8126H33.5236V70.7274H29.3747ZM40.875 63.8126V70.7274H35.1248V63.8126H40.875ZM46.6253 70.7274H42.4764V63.8126H46.6253V70.7274ZM49.3533 62.2114H26.6466V57.8427H49.3533V62.2114ZM35.6461 4.27275H40.354V10.8235H35.6461V4.27275ZM14.5262 41.9751H6.29961C5.277 41.9751 4.44497 41.143 4.44497 40.1204V29.7962H16.3805V40.1204C16.3807 41.143 15.5488 41.9751 14.5262 41.9751ZM16.3807 25.6343V28.195H4.44512V25.6343C4.44512 24.6117 5.277 23.7796 6.29976 23.7796H14.5262C15.5488 23.7796 16.3807 24.6117 16.3807 25.6343ZM47.3517 50.1651V56.2371H28.6483V50.1651C28.6483 48.5774 29.94 47.2857 31.5277 47.2857H44.4723C46.06 47.2855 47.3517 48.5774 47.3517 50.1651ZM40.3539 45.6843H35.646V40.5703H40.3539V45.6843ZM30.9134 38.9689V34.4547H45.0865V38.9689H30.9134ZM45.0865 32.8533H30.9134V24.4595H45.0865V32.8533ZM40.3539 22.8582H35.646V18.6846H40.3539V22.8582ZM60.9062 17.0833H15.1966C15.1958 17.0833 15.195 17.0833 15.1941 17.0833C14.606 17.0833 14.0527 17.3121 13.6364 17.7276C13.2194 18.1438 12.9894 18.6974 12.9888 19.2887V22.1784H7.60259V14.9244C7.60259 13.5486 8.72188 12.4272 10.0962 12.4249H65.9971H65.9983C67.376 12.4249 68.4972 13.5455 68.4978 14.9229V22.1784H63.1115V19.2887C63.1117 18.0726 62.1222 17.0833 60.9062 17.0833ZM61.4738 23.7796H69.7002C70.7229 23.7796 71.5549 24.6117 71.5549 25.6343V28.195H59.6192V25.6343C59.6192 24.6117 60.4512 23.7796 61.4738 23.7796ZM59.6192 40.1204V29.7962H71.5549V40.1204C71.5549 41.143 70.7229 41.9751 69.7002 41.9751H61.4738C60.4512 41.9751 59.6192 41.143 59.6192 40.1204Z" fill="#0077C1"/>
</svg>
