<svg width="76" height="75" viewBox="0 0 76 75" fill="none" xmlns="http://www.w3.org/2000/svg">
<path fill-rule="evenodd" clip-rule="evenodd" d="M50.8289 71.0013H8.48558C6.29021 71.0013 4.5 69.2111 4.5 67.0157V24.6724C4.5 22.4771 6.29021 20.6963 8.48558 20.6963H50.8289C53.0242 20.6963 54.805 22.4771 54.805 24.6724V67.0157C54.805 69.2111 53.0242 71.0013 50.8289 71.0013ZM8.48558 22.2604C7.15705 22.2604 6.0735 23.3439 6.0735 24.6724V67.0157C6.0735 68.3442 7.15705 69.4278 8.48558 69.4278H50.8289C52.1574 69.4278 53.2409 68.3442 53.2409 67.0157V24.6724C53.2409 23.3439 52.1574 22.2604 50.8289 22.2604H8.48558Z" fill="#0077C1"/>
<path fill-rule="evenodd" clip-rule="evenodd" d="M10.2993 26.9147C9.85643 26.9147 9.50781 26.566 9.50781 26.1326C9.50781 25.6992 9.85643 25.3506 10.2899 25.3506C10.7233 25.3506 11.0813 25.6992 11.0813 26.1326C11.0813 26.566 10.7327 26.9147 10.2993 26.9147Z" fill="#0077C1"/>
<path fill-rule="evenodd" clip-rule="evenodd" d="M15.1352 26.9147C14.6924 26.9147 14.3438 26.566 14.3438 26.1326C14.3438 25.6992 14.6924 25.3506 15.1258 25.3506C15.5592 25.3506 15.9173 25.6992 15.9173 26.1326C15.9173 26.566 15.5686 26.9147 15.1352 26.9147Z" fill="#0077C1"/>
<path fill-rule="evenodd" clip-rule="evenodd" d="M19.9734 26.9147C19.54 26.9147 19.1914 26.566 19.1914 26.1326C19.1914 25.6992 19.54 25.3506 19.9734 25.3506C20.4069 25.3506 20.7649 25.6992 20.7649 26.1326C20.7649 26.566 20.4069 26.9147 19.9734 26.9147Z" fill="#0077C1"/>
<path fill-rule="evenodd" clip-rule="evenodd" d="M24.8094 26.9147C24.376 26.9147 24.0273 26.566 24.0273 26.1326C24.0273 25.6992 24.376 25.3506 24.8094 25.3506C25.2428 25.3506 25.6008 25.6992 25.6008 26.1326C25.6008 26.566 25.2428 26.9147 24.8094 26.9147Z" fill="#0077C1"/>
<path fill-rule="evenodd" clip-rule="evenodd" d="M29.657 26.9147C29.2236 26.9147 28.875 26.566 28.875 26.1326C28.875 25.6992 29.2236 25.3506 29.657 25.3506C30.0905 25.3506 30.4391 25.6992 30.4391 26.1326C30.4391 26.566 30.0905 26.9147 29.657 26.9147Z" fill="#0077C1"/>
<path fill-rule="evenodd" clip-rule="evenodd" d="M34.4985 26.9147C34.0651 26.9147 33.707 26.566 33.707 26.1326C33.707 25.6992 34.0651 25.3506 34.4985 25.3506C34.9319 25.3506 35.2805 25.6992 35.2805 26.1326C35.2805 26.566 34.9319 26.9147 34.4985 26.9147Z" fill="#0077C1"/>
<path fill-rule="evenodd" clip-rule="evenodd" d="M39.3462 26.9147C38.9033 26.9147 38.5547 26.566 38.5547 26.1326C38.5547 25.6992 38.9127 25.3506 39.3462 25.3506C39.7796 25.3506 40.1282 25.6992 40.1282 26.1326C40.1282 26.566 39.7796 26.9147 39.3462 26.9147Z" fill="#0077C1"/>
<path fill-rule="evenodd" clip-rule="evenodd" d="M44.186 26.9147C43.7432 26.9147 43.3945 26.566 43.3945 26.1326C43.3945 25.6992 43.7432 25.3506 44.1766 25.3506C44.61 25.3506 44.968 25.6992 44.968 26.1326C44.968 26.566 44.6194 26.9147 44.186 26.9147Z" fill="#0077C1"/>
<path fill-rule="evenodd" clip-rule="evenodd" d="M49.0242 26.9147C48.5908 26.9147 48.2422 26.566 48.2422 26.1326C48.2422 25.6992 48.5908 25.3506 49.0242 25.3506C49.4576 25.3506 49.8157 25.6992 49.8157 26.1326C49.8157 26.566 49.4576 26.9147 49.0242 26.9147Z" fill="#0077C1"/>
<path fill-rule="evenodd" clip-rule="evenodd" d="M10.2993 31.2965C9.85643 31.2965 9.50781 30.9479 9.50781 30.5145C9.50781 30.081 9.85643 29.7324 10.2899 29.7324C10.7233 29.7324 11.0813 30.081 11.0813 30.5145C11.0813 30.9479 10.7327 31.2965 10.2993 31.2965Z" fill="#0077C1"/>
<path fill-rule="evenodd" clip-rule="evenodd" d="M15.1352 31.2965C14.6924 31.2965 14.3438 30.9479 14.3438 30.5145C14.3438 30.081 14.6924 29.7324 15.1258 29.7324C15.5592 29.7324 15.9173 30.081 15.9173 30.5145C15.9173 30.9479 15.5686 31.2965 15.1352 31.2965Z" fill="#0077C1"/>
<path fill-rule="evenodd" clip-rule="evenodd" d="M19.9734 31.2965C19.54 31.2965 19.1914 30.9479 19.1914 30.5145C19.1914 30.081 19.54 29.7324 19.9734 29.7324C20.4069 29.7324 20.7649 30.081 20.7649 30.5145C20.7649 30.9479 20.4069 31.2965 19.9734 31.2965Z" fill="#0077C1"/>
<path fill-rule="evenodd" clip-rule="evenodd" d="M24.8094 31.2965C24.376 31.2965 24.0273 30.9479 24.0273 30.5145C24.0273 30.081 24.376 29.7324 24.8094 29.7324C25.2428 29.7324 25.6008 30.081 25.6008 30.5145C25.6008 30.9479 25.2428 31.2965 24.8094 31.2965Z" fill="#0077C1"/>
<path fill-rule="evenodd" clip-rule="evenodd" d="M29.657 31.2965C29.2236 31.2965 28.875 30.9479 28.875 30.5145C28.875 30.081 29.2236 29.7324 29.657 29.7324C30.0905 29.7324 30.4391 30.081 30.4391 30.5145C30.4391 30.9479 30.0905 31.2965 29.657 31.2965Z" fill="#0077C1"/>
<path fill-rule="evenodd" clip-rule="evenodd" d="M34.4985 31.2965C34.0651 31.2965 33.707 30.9479 33.707 30.5145C33.707 30.081 34.0651 29.7324 34.4985 29.7324C34.9319 29.7324 35.2805 30.081 35.2805 30.5145C35.2805 30.9479 34.9319 31.2965 34.4985 31.2965Z" fill="#0077C1"/>
<path fill-rule="evenodd" clip-rule="evenodd" d="M39.3462 31.2965C38.9033 31.2965 38.5547 30.9479 38.5547 30.5145C38.5547 30.081 38.9127 29.7324 39.3462 29.7324C39.7796 29.7324 40.1282 30.081 40.1282 30.5145C40.1282 30.9479 39.7796 31.2965 39.3462 31.2965Z" fill="#0077C1"/>
<path fill-rule="evenodd" clip-rule="evenodd" d="M44.186 31.2965C43.7432 31.2965 43.3945 30.9479 43.3945 30.5145C43.3945 30.081 43.7432 29.7324 44.1766 29.7324C44.61 29.7324 44.968 30.081 44.968 30.5145C44.968 30.9479 44.6194 31.2965 44.186 31.2965Z" fill="#0077C1"/>
<path fill-rule="evenodd" clip-rule="evenodd" d="M49.0242 31.2965C48.5908 31.2965 48.2422 30.9479 48.2422 30.5145C48.2422 30.081 48.5908 29.7324 49.0242 29.7324C49.4576 29.7324 49.8157 30.081 49.8157 30.5145C49.8157 30.9479 49.4576 31.2965 49.0242 31.2965Z" fill="#0077C1"/>
<path fill-rule="evenodd" clip-rule="evenodd" d="M10.2993 35.677C9.85643 35.677 9.50781 35.3284 9.50781 34.895C9.50781 34.4616 9.85643 34.1035 10.2899 34.1035C10.7233 34.1035 11.0813 34.4616 11.0813 34.895C11.0813 35.3284 10.7327 35.677 10.2993 35.677Z" fill="#0077C1"/>
<path fill-rule="evenodd" clip-rule="evenodd" d="M15.1352 35.677C14.6924 35.677 14.3438 35.3284 14.3438 34.895C14.3438 34.4616 14.6924 34.1035 15.1258 34.1035C15.5592 34.1035 15.9173 34.4616 15.9173 34.895C15.9173 35.3284 15.5686 35.677 15.1352 35.677Z" fill="#0077C1"/>
<path fill-rule="evenodd" clip-rule="evenodd" d="M19.9734 35.677C19.54 35.677 19.1914 35.3284 19.1914 34.895C19.1914 34.4616 19.54 34.1035 19.9734 34.1035C20.4069 34.1035 20.7649 34.4616 20.7649 34.895C20.7649 35.3284 20.4069 35.677 19.9734 35.677Z" fill="#0077C1"/>
<path fill-rule="evenodd" clip-rule="evenodd" d="M24.8094 35.677C24.376 35.677 24.0273 35.3284 24.0273 34.895C24.0273 34.4616 24.376 34.1035 24.8094 34.1035C25.2428 34.1035 25.6008 34.4616 25.6008 34.895C25.6008 35.3284 25.2428 35.677 24.8094 35.677Z" fill="#0077C1"/>
<path fill-rule="evenodd" clip-rule="evenodd" d="M29.657 35.677C29.2236 35.677 28.875 35.3284 28.875 34.895C28.875 34.4616 29.2236 34.1035 29.657 34.1035C30.0905 34.1035 30.4391 34.4616 30.4391 34.895C30.4391 35.3284 30.0905 35.677 29.657 35.677Z" fill="#0077C1"/>
<path fill-rule="evenodd" clip-rule="evenodd" d="M34.4985 35.677C34.0651 35.677 33.707 35.3284 33.707 34.895C33.707 34.4616 34.0651 34.1035 34.4985 34.1035C34.9319 34.1035 35.2805 34.4616 35.2805 34.895C35.2805 35.3284 34.9319 35.677 34.4985 35.677Z" fill="#0077C1"/>
<path fill-rule="evenodd" clip-rule="evenodd" d="M39.3462 35.677C38.9033 35.677 38.5547 35.3284 38.5547 34.895C38.5547 34.4616 38.9127 34.1035 39.3462 34.1035C39.7796 34.1035 40.1282 34.4616 40.1282 34.895C40.1282 35.3284 39.7796 35.677 39.3462 35.677Z" fill="#0077C1"/>
<path fill-rule="evenodd" clip-rule="evenodd" d="M44.186 35.677C43.7432 35.677 43.3945 35.3284 43.3945 34.895C43.3945 34.4616 43.7432 34.1035 44.1766 34.1035C44.61 34.1035 44.968 34.4616 44.968 34.895C44.968 35.3284 44.6194 35.677 44.186 35.677Z" fill="#0077C1"/>
<path fill-rule="evenodd" clip-rule="evenodd" d="M49.0242 35.677C48.5908 35.677 48.2422 35.3284 48.2422 34.895C48.2422 34.4616 48.5908 34.1035 49.0242 34.1035C49.4576 34.1035 49.8157 34.4616 49.8157 34.895C49.8157 35.3284 49.4576 35.677 49.0242 35.677Z" fill="#0077C1"/>
<path fill-rule="evenodd" clip-rule="evenodd" d="M10.2993 40.0584C9.85643 40.0584 9.50781 39.7097 9.50781 39.2763C9.50781 38.8429 9.85643 38.4849 10.2899 38.4849C10.7233 38.4849 11.0813 38.8429 11.0813 39.2763C11.0813 39.7097 10.7327 40.0584 10.2993 40.0584Z" fill="#0077C1"/>
<path fill-rule="evenodd" clip-rule="evenodd" d="M15.1352 40.0584C14.6924 40.0584 14.3438 39.7097 14.3438 39.2763C14.3438 38.8429 14.6924 38.4849 15.1258 38.4849C15.5592 38.4849 15.9173 38.8429 15.9173 39.2763C15.9173 39.7097 15.5686 40.0584 15.1352 40.0584Z" fill="#0077C1"/>
<path fill-rule="evenodd" clip-rule="evenodd" d="M19.9734 40.0584C19.54 40.0584 19.1914 39.7097 19.1914 39.2763C19.1914 38.8429 19.54 38.4849 19.9734 38.4849C20.4069 38.4849 20.7649 38.8429 20.7649 39.2763C20.7649 39.7097 20.4069 40.0584 19.9734 40.0584Z" fill="#0077C1"/>
<path fill-rule="evenodd" clip-rule="evenodd" d="M24.8094 40.0584C24.376 40.0584 24.0273 39.7097 24.0273 39.2763C24.0273 38.8429 24.376 38.4849 24.8094 38.4849C25.2428 38.4849 25.6008 38.8429 25.6008 39.2763C25.6008 39.7097 25.2428 40.0584 24.8094 40.0584Z" fill="#0077C1"/>
<path fill-rule="evenodd" clip-rule="evenodd" d="M29.657 40.0584C29.2236 40.0584 28.875 39.7097 28.875 39.2763C28.875 38.8429 29.2236 38.4849 29.657 38.4849C30.0905 38.4849 30.4391 38.8429 30.4391 39.2763C30.4391 39.7097 30.0905 40.0584 29.657 40.0584Z" fill="#0077C1"/>
<path fill-rule="evenodd" clip-rule="evenodd" d="M34.4985 40.0584C34.0651 40.0584 33.707 39.7097 33.707 39.2763C33.707 38.8429 34.0651 38.4849 34.4985 38.4849C34.9319 38.4849 35.2805 38.8429 35.2805 39.2763C35.2805 39.7097 34.9319 40.0584 34.4985 40.0584Z" fill="#0077C1"/>
<path fill-rule="evenodd" clip-rule="evenodd" d="M39.3462 40.0584C38.9033 40.0584 38.5547 39.7097 38.5547 39.2763C38.5547 38.8429 38.9127 38.4849 39.3462 38.4849C39.7796 38.4849 40.1282 38.8429 40.1282 39.2763C40.1282 39.7097 39.7796 40.0584 39.3462 40.0584Z" fill="#0077C1"/>
<path fill-rule="evenodd" clip-rule="evenodd" d="M44.186 40.0584C43.7432 40.0584 43.3945 39.7097 43.3945 39.2763C43.3945 38.8429 43.7432 38.4849 44.1766 38.4849C44.61 38.4849 44.968 38.8429 44.968 39.2763C44.968 39.7097 44.6194 40.0584 44.186 40.0584Z" fill="#0077C1"/>
<path fill-rule="evenodd" clip-rule="evenodd" d="M49.0242 40.0584C48.5908 40.0584 48.2422 39.7097 48.2422 39.2763C48.2422 38.8429 48.5908 38.4849 49.0242 38.4849C49.4576 38.4849 49.8157 38.8429 49.8157 39.2763C49.8157 39.7097 49.4576 40.0584 49.0242 40.0584Z" fill="#0077C1"/>
<path fill-rule="evenodd" clip-rule="evenodd" d="M10.2993 44.4397C9.85643 44.4397 9.50781 44.0911 9.50781 43.6577C9.50781 43.2243 9.85643 42.8662 10.2899 42.8662C10.7233 42.8662 11.0813 43.2243 11.0813 43.6577C11.0813 44.0911 10.7327 44.4397 10.2993 44.4397Z" fill="#0077C1"/>
<path fill-rule="evenodd" clip-rule="evenodd" d="M15.1352 44.4397C14.6924 44.4397 14.3438 44.0911 14.3438 43.6577C14.3438 43.2243 14.6924 42.8662 15.1258 42.8662C15.5592 42.8662 15.9173 43.2243 15.9173 43.6577C15.9173 44.0911 15.5686 44.4397 15.1352 44.4397Z" fill="#0077C1"/>
<path fill-rule="evenodd" clip-rule="evenodd" d="M19.9734 44.4397C19.54 44.4397 19.1914 44.0911 19.1914 43.6577C19.1914 43.2243 19.54 42.8662 19.9734 42.8662C20.4069 42.8662 20.7649 43.2243 20.7649 43.6577C20.7649 44.0911 20.4069 44.4397 19.9734 44.4397Z" fill="#0077C1"/>
<path fill-rule="evenodd" clip-rule="evenodd" d="M24.8094 44.4397C24.376 44.4397 24.0273 44.0911 24.0273 43.6577C24.0273 43.2243 24.376 42.8662 24.8094 42.8662C25.2428 42.8662 25.6008 43.2243 25.6008 43.6577C25.6008 44.0911 25.2428 44.4397 24.8094 44.4397Z" fill="#0077C1"/>
<path fill-rule="evenodd" clip-rule="evenodd" d="M29.657 44.4397C29.2236 44.4397 28.875 44.0911 28.875 43.6577C28.875 43.2243 29.2236 42.8662 29.657 42.8662C30.0905 42.8662 30.4391 43.2243 30.4391 43.6577C30.4391 44.0911 30.0905 44.4397 29.657 44.4397Z" fill="#0077C1"/>
<path fill-rule="evenodd" clip-rule="evenodd" d="M34.4985 44.4397C34.0651 44.4397 33.707 44.0911 33.707 43.6577C33.707 43.2243 34.0651 42.8662 34.4985 42.8662C34.9319 42.8662 35.2805 43.2243 35.2805 43.6577C35.2805 44.0911 34.9319 44.4397 34.4985 44.4397Z" fill="#0077C1"/>
<path fill-rule="evenodd" clip-rule="evenodd" d="M39.3462 44.4397C38.9033 44.4397 38.5547 44.0911 38.5547 43.6577C38.5547 43.2243 38.9127 42.8662 39.3462 42.8662C39.7796 42.8662 40.1282 43.2243 40.1282 43.6577C40.1282 44.0911 39.7796 44.4397 39.3462 44.4397Z" fill="#0077C1"/>
<path fill-rule="evenodd" clip-rule="evenodd" d="M44.186 44.4397C43.7432 44.4397 43.3945 44.0911 43.3945 43.6577C43.3945 43.2243 43.7432 42.8662 44.1766 42.8662C44.61 42.8662 44.968 43.2243 44.968 43.6577C44.968 44.0911 44.6194 44.4397 44.186 44.4397Z" fill="#0077C1"/>
<path fill-rule="evenodd" clip-rule="evenodd" d="M49.0242 44.4397C48.5908 44.4397 48.2422 44.0911 48.2422 43.6577C48.2422 43.2243 48.5908 42.8662 49.0242 42.8662C49.4576 42.8662 49.8157 43.2243 49.8157 43.6577C49.8157 44.0911 49.4576 44.4397 49.0242 44.4397Z" fill="#0077C1"/>
<path fill-rule="evenodd" clip-rule="evenodd" d="M10.2993 48.8211C9.85643 48.8211 9.50781 48.4724 9.50781 48.039C9.50781 47.6056 9.85643 47.2476 10.2899 47.2476C10.7233 47.2476 11.0813 47.6056 11.0813 48.039C11.0813 48.4724 10.7327 48.8211 10.2993 48.8211Z" fill="#0077C1"/>
<path fill-rule="evenodd" clip-rule="evenodd" d="M15.1352 48.8211C14.6924 48.8211 14.3438 48.4724 14.3438 48.039C14.3438 47.6056 14.6924 47.2476 15.1258 47.2476C15.5592 47.2476 15.9173 47.6056 15.9173 48.039C15.9173 48.4724 15.5686 48.8211 15.1352 48.8211Z" fill="#0077C1"/>
<path fill-rule="evenodd" clip-rule="evenodd" d="M19.9734 48.8211C19.54 48.8211 19.1914 48.4724 19.1914 48.039C19.1914 47.6056 19.54 47.2476 19.9734 47.2476C20.4069 47.2476 20.7649 47.6056 20.7649 48.039C20.7649 48.4724 20.4069 48.8211 19.9734 48.8211Z" fill="#0077C1"/>
<path fill-rule="evenodd" clip-rule="evenodd" d="M24.8094 48.8211C24.376 48.8211 24.0273 48.4724 24.0273 48.039C24.0273 47.6056 24.376 47.2476 24.8094 47.2476C25.2428 47.2476 25.6008 47.6056 25.6008 48.039C25.6008 48.4724 25.2428 48.8211 24.8094 48.8211Z" fill="#0077C1"/>
<path fill-rule="evenodd" clip-rule="evenodd" d="M29.657 48.8211C29.2236 48.8211 28.875 48.4724 28.875 48.039C28.875 47.6056 29.2236 47.2476 29.657 47.2476C30.0905 47.2476 30.4391 47.6056 30.4391 48.039C30.4391 48.4724 30.0905 48.8211 29.657 48.8211Z" fill="#0077C1"/>
<path fill-rule="evenodd" clip-rule="evenodd" d="M34.4985 48.8211C34.0651 48.8211 33.707 48.4724 33.707 48.039C33.707 47.6056 34.0651 47.2476 34.4985 47.2476C34.9319 47.2476 35.2805 47.6056 35.2805 48.039C35.2805 48.4724 34.9319 48.8211 34.4985 48.8211Z" fill="#0077C1"/>
<path fill-rule="evenodd" clip-rule="evenodd" d="M39.3462 48.8211C38.9033 48.8211 38.5547 48.4724 38.5547 48.039C38.5547 47.6056 38.9127 47.2476 39.3462 47.2476C39.7796 47.2476 40.1282 47.6056 40.1282 48.039C40.1282 48.4724 39.7796 48.8211 39.3462 48.8211Z" fill="#0077C1"/>
<path fill-rule="evenodd" clip-rule="evenodd" d="M44.186 48.8211C43.7432 48.8211 43.3945 48.4724 43.3945 48.039C43.3945 47.6056 43.7432 47.2476 44.1766 47.2476C44.61 47.2476 44.968 47.6056 44.968 48.039C44.968 48.4724 44.6194 48.8211 44.186 48.8211Z" fill="#0077C1"/>
<path fill-rule="evenodd" clip-rule="evenodd" d="M49.0242 48.8211C48.5908 48.8211 48.2422 48.4724 48.2422 48.039C48.2422 47.6056 48.5908 47.2476 49.0242 47.2476C49.4576 47.2476 49.8157 47.6056 49.8157 48.039C49.8157 48.4724 49.4576 48.8211 49.0242 48.8211Z" fill="#0077C1"/>
<path fill-rule="evenodd" clip-rule="evenodd" d="M10.2993 53.2029C9.85643 53.2029 9.50781 52.8543 9.50781 52.4209C9.50781 51.9874 9.85643 51.6294 10.2899 51.6294C10.7233 51.6294 11.0813 51.9874 11.0813 52.4209C11.0813 52.8543 10.7327 53.2029 10.2993 53.2029Z" fill="#0077C1"/>
<path fill-rule="evenodd" clip-rule="evenodd" d="M15.1352 53.2029C14.6924 53.2029 14.3438 52.8543 14.3438 52.4209C14.3438 51.9874 14.6924 51.6294 15.1258 51.6294C15.5592 51.6294 15.9173 51.9874 15.9173 52.4209C15.9173 52.8543 15.5686 53.2029 15.1352 53.2029Z" fill="#0077C1"/>
<path fill-rule="evenodd" clip-rule="evenodd" d="M19.9734 53.2029C19.54 53.2029 19.1914 52.8543 19.1914 52.4209C19.1914 51.9874 19.54 51.6294 19.9734 51.6294C20.4069 51.6294 20.7649 51.9874 20.7649 52.4209C20.7649 52.8543 20.4069 53.2029 19.9734 53.2029Z" fill="#0077C1"/>
<path fill-rule="evenodd" clip-rule="evenodd" d="M24.8094 53.2029C24.376 53.2029 24.0273 52.8543 24.0273 52.4209C24.0273 51.9874 24.376 51.6294 24.8094 51.6294C25.2428 51.6294 25.6008 51.9874 25.6008 52.4209C25.6008 52.8543 25.2428 53.2029 24.8094 53.2029Z" fill="#0077C1"/>
<path fill-rule="evenodd" clip-rule="evenodd" d="M29.657 53.2029C29.2236 53.2029 28.875 52.8543 28.875 52.4209C28.875 51.9874 29.2236 51.6294 29.657 51.6294C30.0905 51.6294 30.4391 51.9874 30.4391 52.4209C30.4391 52.8543 30.0905 53.2029 29.657 53.2029Z" fill="#0077C1"/>
<path fill-rule="evenodd" clip-rule="evenodd" d="M34.4985 53.2029C34.0651 53.2029 33.707 52.8543 33.707 52.4209C33.707 51.9874 34.0651 51.6294 34.4985 51.6294C34.9319 51.6294 35.2805 51.9874 35.2805 52.4209C35.2805 52.8543 34.9319 53.2029 34.4985 53.2029Z" fill="#0077C1"/>
<path fill-rule="evenodd" clip-rule="evenodd" d="M39.3462 53.2029C38.9033 53.2029 38.5547 52.8543 38.5547 52.4209C38.5547 51.9874 38.9127 51.6294 39.3462 51.6294C39.7796 51.6294 40.1282 51.9874 40.1282 52.4209C40.1282 52.8543 39.7796 53.2029 39.3462 53.2029Z" fill="#0077C1"/>
<path fill-rule="evenodd" clip-rule="evenodd" d="M44.186 53.2029C43.7432 53.2029 43.3945 52.8543 43.3945 52.4209C43.3945 51.9874 43.7432 51.6294 44.1766 51.6294C44.61 51.6294 44.968 51.9874 44.968 52.4209C44.968 52.8543 44.6194 53.2029 44.186 53.2029Z" fill="#0077C1"/>
<path fill-rule="evenodd" clip-rule="evenodd" d="M49.0242 53.2029C48.5908 53.2029 48.2422 52.8543 48.2422 52.4209C48.2422 51.9874 48.5908 51.6294 49.0242 51.6294C49.4576 51.6294 49.8157 51.9874 49.8157 52.4209C49.8157 52.8543 49.4576 53.2029 49.0242 53.2029Z" fill="#0077C1"/>
<path fill-rule="evenodd" clip-rule="evenodd" d="M10.2993 57.5838C9.85643 57.5838 9.50781 57.2351 9.50781 56.8017C9.50781 56.3683 9.85643 56.0103 10.2899 56.0103C10.7233 56.0103 11.0813 56.3683 11.0813 56.8017C11.0813 57.2351 10.7327 57.5838 10.2993 57.5838Z" fill="#0077C1"/>
<path fill-rule="evenodd" clip-rule="evenodd" d="M15.1352 57.5838C14.6924 57.5838 14.3438 57.2351 14.3438 56.8017C14.3438 56.3683 14.6924 56.0103 15.1258 56.0103C15.5592 56.0103 15.9173 56.3683 15.9173 56.8017C15.9173 57.2351 15.5686 57.5838 15.1352 57.5838Z" fill="#0077C1"/>
<path fill-rule="evenodd" clip-rule="evenodd" d="M19.9734 57.5838C19.54 57.5838 19.1914 57.2351 19.1914 56.8017C19.1914 56.3683 19.54 56.0103 19.9734 56.0103C20.4069 56.0103 20.7649 56.3683 20.7649 56.8017C20.7649 57.2351 20.4069 57.5838 19.9734 57.5838Z" fill="#0077C1"/>
<path fill-rule="evenodd" clip-rule="evenodd" d="M24.8094 57.5838C24.376 57.5838 24.0273 57.2351 24.0273 56.8017C24.0273 56.3683 24.376 56.0103 24.8094 56.0103C25.2428 56.0103 25.6008 56.3683 25.6008 56.8017C25.6008 57.2351 25.2428 57.5838 24.8094 57.5838Z" fill="#0077C1"/>
<path fill-rule="evenodd" clip-rule="evenodd" d="M29.657 57.5838C29.2236 57.5838 28.875 57.2351 28.875 56.8017C28.875 56.3683 29.2236 56.0103 29.657 56.0103C30.0905 56.0103 30.4391 56.3683 30.4391 56.8017C30.4391 57.2351 30.0905 57.5838 29.657 57.5838Z" fill="#0077C1"/>
<path fill-rule="evenodd" clip-rule="evenodd" d="M34.4985 57.5838C34.0651 57.5838 33.707 57.2351 33.707 56.8017C33.707 56.3683 34.0651 56.0103 34.4985 56.0103C34.9319 56.0103 35.2805 56.3683 35.2805 56.8017C35.2805 57.2351 34.9319 57.5838 34.4985 57.5838Z" fill="#0077C1"/>
<path fill-rule="evenodd" clip-rule="evenodd" d="M39.3462 57.5838C38.9033 57.5838 38.5547 57.2351 38.5547 56.8017C38.5547 56.3683 38.9127 56.0103 39.3462 56.0103C39.7796 56.0103 40.1282 56.3683 40.1282 56.8017C40.1282 57.2351 39.7796 57.5838 39.3462 57.5838Z" fill="#0077C1"/>
<path fill-rule="evenodd" clip-rule="evenodd" d="M44.186 57.5838C43.7432 57.5838 43.3945 57.2351 43.3945 56.8017C43.3945 56.3683 43.7432 56.0103 44.1766 56.0103C44.61 56.0103 44.968 56.3683 44.968 56.8017C44.968 57.2351 44.6194 57.5838 44.186 57.5838Z" fill="#0077C1"/>
<path fill-rule="evenodd" clip-rule="evenodd" d="M49.0242 57.5838C48.5908 57.5838 48.2422 57.2351 48.2422 56.8017C48.2422 56.3683 48.5908 56.0103 49.0242 56.0103C49.4576 56.0103 49.8157 56.3683 49.8157 56.8017C49.8157 57.2351 49.4576 57.5838 49.0242 57.5838Z" fill="#0077C1"/>
<path fill-rule="evenodd" clip-rule="evenodd" d="M10.2993 61.9651C9.85643 61.9651 9.50781 61.6165 9.50781 61.1831C9.50781 60.7496 9.85643 60.3916 10.2899 60.3916C10.7233 60.3916 11.0813 60.7496 11.0813 61.1831C11.0813 61.6165 10.7327 61.9651 10.2993 61.9651Z" fill="#0077C1"/>
<path fill-rule="evenodd" clip-rule="evenodd" d="M15.1352 61.9651C14.6924 61.9651 14.3438 61.6165 14.3438 61.1831C14.3438 60.7496 14.6924 60.3916 15.1258 60.3916C15.5592 60.3916 15.9173 60.7496 15.9173 61.1831C15.9173 61.6165 15.5686 61.9651 15.1352 61.9651Z" fill="#0077C1"/>
<path fill-rule="evenodd" clip-rule="evenodd" d="M19.9734 61.9651C19.54 61.9651 19.1914 61.6165 19.1914 61.1831C19.1914 60.7496 19.54 60.3916 19.9734 60.3916C20.4069 60.3916 20.7649 60.7496 20.7649 61.1831C20.7649 61.6165 20.4069 61.9651 19.9734 61.9651Z" fill="#0077C1"/>
<path fill-rule="evenodd" clip-rule="evenodd" d="M24.8094 61.9651C24.376 61.9651 24.0273 61.6165 24.0273 61.1831C24.0273 60.7496 24.376 60.3916 24.8094 60.3916C25.2428 60.3916 25.6008 60.7496 25.6008 61.1831C25.6008 61.6165 25.2428 61.9651 24.8094 61.9651Z" fill="#0077C1"/>
<path fill-rule="evenodd" clip-rule="evenodd" d="M29.657 61.9651C29.2236 61.9651 28.875 61.6165 28.875 61.1831C28.875 60.7496 29.2236 60.3916 29.657 60.3916C30.0905 60.3916 30.4391 60.7496 30.4391 61.1831C30.4391 61.6165 30.0905 61.9651 29.657 61.9651Z" fill="#0077C1"/>
<path fill-rule="evenodd" clip-rule="evenodd" d="M34.4985 61.9651C34.0651 61.9651 33.707 61.6165 33.707 61.1831C33.707 60.7496 34.0651 60.3916 34.4985 60.3916C34.9319 60.3916 35.2805 60.7496 35.2805 61.1831C35.2805 61.6165 34.9319 61.9651 34.4985 61.9651Z" fill="#0077C1"/>
<path fill-rule="evenodd" clip-rule="evenodd" d="M39.3462 61.9651C38.9033 61.9651 38.5547 61.6165 38.5547 61.1831C38.5547 60.7496 38.9127 60.3916 39.3462 60.3916C39.7796 60.3916 40.1282 60.7496 40.1282 61.1831C40.1282 61.6165 39.7796 61.9651 39.3462 61.9651Z" fill="#0077C1"/>
<path fill-rule="evenodd" clip-rule="evenodd" d="M44.186 61.9651C43.7432 61.9651 43.3945 61.6165 43.3945 61.1831C43.3945 60.7496 43.7432 60.3916 44.1766 60.3916C44.61 60.3916 44.968 60.7496 44.968 61.1831C44.968 61.6165 44.6194 61.9651 44.186 61.9651Z" fill="#0077C1"/>
<path fill-rule="evenodd" clip-rule="evenodd" d="M49.0242 61.9651C48.5908 61.9651 48.2422 61.6165 48.2422 61.1831C48.2422 60.7496 48.5908 60.3916 49.0242 60.3916C49.4576 60.3916 49.8157 60.7496 49.8157 61.1831C49.8157 61.6165 49.4576 61.9651 49.0242 61.9651Z" fill="#0077C1"/>
<path fill-rule="evenodd" clip-rule="evenodd" d="M10.2993 66.3465C9.85643 66.3465 9.50781 65.9978 9.50781 65.5644C9.50781 65.131 9.85643 64.7729 10.2899 64.7729C10.7233 64.7729 11.0813 65.131 11.0813 65.5644C11.0813 65.9978 10.7327 66.3465 10.2993 66.3465Z" fill="#0077C1"/>
<path fill-rule="evenodd" clip-rule="evenodd" d="M15.1352 66.3465C14.6924 66.3465 14.3438 65.9978 14.3438 65.5644C14.3438 65.131 14.6924 64.7729 15.1258 64.7729C15.5592 64.7729 15.9173 65.131 15.9173 65.5644C15.9173 65.9978 15.5686 66.3465 15.1352 66.3465Z" fill="#0077C1"/>
<path fill-rule="evenodd" clip-rule="evenodd" d="M19.9734 66.3465C19.54 66.3465 19.1914 65.9978 19.1914 65.5644C19.1914 65.131 19.54 64.7729 19.9734 64.7729C20.4069 64.7729 20.7649 65.131 20.7649 65.5644C20.7649 65.9978 20.4069 66.3465 19.9734 66.3465Z" fill="#0077C1"/>
<path fill-rule="evenodd" clip-rule="evenodd" d="M24.8094 66.3465C24.376 66.3465 24.0273 65.9978 24.0273 65.5644C24.0273 65.131 24.376 64.7729 24.8094 64.7729C25.2428 64.7729 25.6008 65.131 25.6008 65.5644C25.6008 65.9978 25.2428 66.3465 24.8094 66.3465Z" fill="#0077C1"/>
<path fill-rule="evenodd" clip-rule="evenodd" d="M29.657 66.3465C29.2236 66.3465 28.875 65.9978 28.875 65.5644C28.875 65.131 29.2236 64.7729 29.657 64.7729C30.0905 64.7729 30.4391 65.131 30.4391 65.5644C30.4391 65.9978 30.0905 66.3465 29.657 66.3465Z" fill="#0077C1"/>
<path fill-rule="evenodd" clip-rule="evenodd" d="M34.4985 66.3465C34.0651 66.3465 33.707 65.9978 33.707 65.5644C33.707 65.131 34.0651 64.7729 34.4985 64.7729C34.9319 64.7729 35.2805 65.131 35.2805 65.5644C35.2805 65.9978 34.9319 66.3465 34.4985 66.3465Z" fill="#0077C1"/>
<path fill-rule="evenodd" clip-rule="evenodd" d="M39.3462 66.3465C38.9033 66.3465 38.5547 65.9978 38.5547 65.5644C38.5547 65.131 38.9127 64.7729 39.3462 64.7729C39.7796 64.7729 40.1282 65.131 40.1282 65.5644C40.1282 65.9978 39.7796 66.3465 39.3462 66.3465Z" fill="#0077C1"/>
<path fill-rule="evenodd" clip-rule="evenodd" d="M44.186 66.3465C43.7432 66.3465 43.3945 65.9978 43.3945 65.5644C43.3945 65.131 43.7432 64.7729 44.1766 64.7729C44.61 64.7729 44.968 65.131 44.968 65.5644C44.968 65.9978 44.6194 66.3465 44.186 66.3465Z" fill="#0077C1"/>
<path fill-rule="evenodd" clip-rule="evenodd" d="M49.0242 66.3465C48.5908 66.3465 48.2422 65.9978 48.2422 65.5644C48.2422 65.131 48.5908 64.7729 49.0242 64.7729C49.4576 64.7729 49.8157 65.131 49.8157 65.5644C49.8157 65.9978 49.4576 66.3465 49.0242 66.3465Z" fill="#0077C1"/>
<path fill-rule="evenodd" clip-rule="evenodd" d="M59.1632 62.6532H54.0187C53.5853 62.6532 53.2366 62.3045 53.2366 61.8711V24.6724C53.2366 23.3438 52.1531 22.2603 50.8246 22.2603H13.6352C13.2018 22.2603 12.8438 21.9117 12.8438 21.4782V16.3337C12.8438 14.1384 14.634 12.3481 16.8293 12.3481H59.1632C61.3586 12.3481 63.1488 14.1384 63.1488 16.3337V58.6676C63.1488 60.8629 61.3586 62.6532 59.1632 62.6532ZM54.8007 61.0797H59.1632C60.5011 61.0797 61.5753 59.9961 61.5753 58.6676V16.3337C61.5753 15.0052 60.5011 13.9216 59.1632 13.9216H16.8293C15.5008 13.9216 14.4173 15.0052 14.4173 16.3337V20.6962H50.8246C53.0199 20.6962 54.8007 22.477 54.8007 24.6724V61.0797Z" fill="#0077C1"/>
<path fill-rule="evenodd" clip-rule="evenodd" d="M18.6336 18.566C18.2002 18.566 17.8516 18.2174 17.8516 17.784C17.8516 17.3506 18.2002 17.002 18.6336 17.002C19.067 17.002 19.4251 17.3506 19.4251 17.784C19.4251 18.2174 19.067 18.566 18.6336 18.566Z" fill="#0077C1"/>
<path fill-rule="evenodd" clip-rule="evenodd" d="M23.4774 18.566C23.0439 18.566 22.6953 18.2174 22.6953 17.784C22.6953 17.3506 23.0439 17.002 23.4774 17.002C23.9108 17.002 24.2594 17.3506 24.2594 17.784C24.2594 18.2174 23.9108 18.566 23.4774 18.566Z" fill="#0077C1"/>
<path fill-rule="evenodd" clip-rule="evenodd" d="M28.3188 18.566C27.8854 18.566 27.5273 18.2174 27.5273 17.784C27.5273 17.3506 27.8854 17.002 28.3188 17.002C28.7522 17.002 29.1008 17.3506 29.1008 17.784C29.1008 18.2174 28.7522 18.566 28.3188 18.566Z" fill="#0077C1"/>
<path fill-rule="evenodd" clip-rule="evenodd" d="M33.1626 18.566C32.7291 18.566 32.3711 18.2174 32.3711 17.784C32.3711 17.3506 32.7291 17.002 33.1626 17.002C33.596 17.002 33.9446 17.3506 33.9446 17.784C33.9446 18.2174 33.596 18.566 33.1626 18.566Z" fill="#0077C1"/>
<path fill-rule="evenodd" clip-rule="evenodd" d="M38.0063 18.566C37.5635 18.566 37.2148 18.2174 37.2148 17.784C37.2148 17.3506 37.5729 17.002 37.9969 17.002C38.4303 17.002 38.7883 17.3506 38.7883 17.784C38.7883 18.2174 38.4397 18.566 38.0063 18.566Z" fill="#0077C1"/>
<path fill-rule="evenodd" clip-rule="evenodd" d="M42.8462 18.566C42.4033 18.566 42.0547 18.2174 42.0547 17.784C42.0547 17.3506 42.4033 17.002 42.8367 17.002C43.2701 17.002 43.6282 17.3506 43.6282 17.784C43.6282 18.2174 43.2796 18.566 42.8462 18.566Z" fill="#0077C1"/>
<path fill-rule="evenodd" clip-rule="evenodd" d="M47.6805 18.566C47.2471 18.566 46.8984 18.2174 46.8984 17.784C46.8984 17.3506 47.2471 17.002 47.6805 17.002C48.1139 17.002 48.4719 17.3506 48.4719 17.784C48.4719 18.2174 48.1233 18.566 47.6805 18.566Z" fill="#0077C1"/>
<path fill-rule="evenodd" clip-rule="evenodd" d="M52.5242 18.566C52.0908 18.566 51.7422 18.2174 51.7422 17.784C51.7422 17.3506 52.0908 17.002 52.5242 17.002C52.9576 17.002 53.3063 17.3506 53.3063 17.784C53.3063 18.2174 52.9576 18.566 52.5242 18.566Z" fill="#0077C1"/>
<path fill-rule="evenodd" clip-rule="evenodd" d="M57.3657 18.566C56.9323 18.566 56.5742 18.2174 56.5742 17.784C56.5742 17.3506 56.9323 17.002 57.3657 17.002C57.7991 17.002 58.1477 17.3506 58.1477 17.784C58.1477 18.2174 57.7991 18.566 57.3657 18.566Z" fill="#0077C1"/>
<path fill-rule="evenodd" clip-rule="evenodd" d="M57.3657 22.9578C56.9323 22.9578 56.5742 22.5997 56.5742 22.1663C56.5742 21.7329 56.9323 21.3843 57.3657 21.3843C57.7991 21.3843 58.1477 21.7329 58.1477 22.1663C58.1477 22.5997 57.7991 22.9578 57.3657 22.9578Z" fill="#0077C1"/>
<path fill-rule="evenodd" clip-rule="evenodd" d="M57.3657 27.3386C56.9323 27.3386 56.5742 26.9806 56.5742 26.5472C56.5742 26.1138 56.9323 25.7651 57.3657 25.7651C57.7991 25.7651 58.1477 26.1138 58.1477 26.5472C58.1477 26.9806 57.7991 27.3386 57.3657 27.3386Z" fill="#0077C1"/>
<path fill-rule="evenodd" clip-rule="evenodd" d="M57.3657 31.7106C56.9323 31.7106 56.5742 31.3619 56.5742 30.9285C56.5742 30.4951 56.9323 30.1465 57.3657 30.1465C57.7991 30.1465 58.1477 30.4951 58.1477 30.9285C58.1477 31.3619 57.7991 31.7106 57.3657 31.7106Z" fill="#0077C1"/>
<path fill-rule="evenodd" clip-rule="evenodd" d="M57.3657 36.0914C56.9323 36.0914 56.5742 35.7428 56.5742 35.3094C56.5742 34.876 56.9323 34.5273 57.3657 34.5273C57.7991 34.5273 58.1477 34.876 58.1477 35.3094C58.1477 35.7428 57.7991 36.0914 57.3657 36.0914Z" fill="#0077C1"/>
<path fill-rule="evenodd" clip-rule="evenodd" d="M57.3657 40.4733C56.9323 40.4733 56.5742 40.1246 56.5742 39.6912C56.5742 39.2578 56.9323 38.9092 57.3657 38.9092C57.7991 38.9092 58.1477 39.2578 58.1477 39.6912C58.1477 40.1246 57.7991 40.4733 57.3657 40.4733Z" fill="#0077C1"/>
<path fill-rule="evenodd" clip-rule="evenodd" d="M57.3657 44.8541C56.9323 44.8541 56.5742 44.5055 56.5742 44.0721C56.5742 43.6387 56.9323 43.29 57.3657 43.29C57.7991 43.29 58.1477 43.6387 58.1477 44.0721C58.1477 44.5055 57.7991 44.8541 57.3657 44.8541Z" fill="#0077C1"/>
<path fill-rule="evenodd" clip-rule="evenodd" d="M57.3657 49.236C56.9323 49.236 56.5742 48.8873 56.5742 48.4539C56.5742 48.0205 56.9323 47.6719 57.3657 47.6719C57.7991 47.6719 58.1477 48.0205 58.1477 48.4539C58.1477 48.8873 57.7991 49.236 57.3657 49.236Z" fill="#0077C1"/>
<path fill-rule="evenodd" clip-rule="evenodd" d="M57.3657 53.6173C56.9323 53.6173 56.5742 53.2687 56.5742 52.8353C56.5742 52.4018 56.9323 52.0532 57.3657 52.0532C57.7991 52.0532 58.1477 52.4018 58.1477 52.8353C58.1477 53.2687 57.7991 53.6173 57.3657 53.6173Z" fill="#0077C1"/>
<path fill-rule="evenodd" clip-rule="evenodd" d="M57.3657 57.9982C56.9323 57.9982 56.5742 57.6495 56.5742 57.2161C56.5742 56.7827 56.9323 56.4341 57.3657 56.4341C57.7991 56.4341 58.1477 56.7827 58.1477 57.2161C58.1477 57.6495 57.7991 57.9982 57.3657 57.9982Z" fill="#0077C1"/>
<path fill-rule="evenodd" clip-rule="evenodd" d="M67.5147 54.305H62.3702C61.9368 54.305 61.5882 53.9564 61.5882 53.523V16.3336C61.5882 15.0051 60.5046 13.9216 59.1761 13.9216H21.9774C21.5439 13.9216 21.1953 13.5635 21.1953 13.1301V7.98558C21.1953 5.79021 22.9761 4 25.1715 4H67.5147C69.7101 4 71.5003 5.79021 71.5003 7.98558V50.3289C71.5003 52.5242 69.7101 54.305 67.5147 54.305ZM63.1523 52.7409H67.5147C68.8433 52.7409 69.9268 51.6574 69.9268 50.3289V7.98558C69.9268 6.65705 68.8433 5.5735 67.5147 5.5735H25.1715C23.8429 5.5735 22.7594 6.65705 22.7594 7.98558V12.3481H59.1667C61.3621 12.3481 63.1523 14.1383 63.1523 16.3336V52.7409Z" fill="#0077C1"/>
<path fill-rule="evenodd" clip-rule="evenodd" d="M26.9774 10.2283C26.5439 10.2283 26.1953 9.87967 26.1953 9.44625C26.1953 9.01283 26.5439 8.65479 26.9774 8.65479C27.4108 8.65479 27.7594 9.01283 27.7594 9.44625C27.7594 9.87967 27.4108 10.2283 26.9774 10.2283Z" fill="#0077C1"/>
<path fill-rule="evenodd" clip-rule="evenodd" d="M31.8266 10.2283C31.3932 10.2283 31.0352 9.87967 31.0352 9.44625C31.0352 9.01283 31.3932 8.65479 31.8266 8.65479C32.26 8.65479 32.6087 9.01283 32.6087 9.44625C32.6087 9.87967 32.26 10.2283 31.8266 10.2283Z" fill="#0077C1"/>
<path fill-rule="evenodd" clip-rule="evenodd" d="M36.6665 10.2283C36.2236 10.2283 35.875 9.87967 35.875 9.44625C35.875 9.01283 36.233 8.65479 36.6665 8.65479C37.0999 8.65479 37.4485 9.01283 37.4485 9.44625C37.4485 9.87967 37.0999 10.2283 36.6665 10.2283Z" fill="#0077C1"/>
<path fill-rule="evenodd" clip-rule="evenodd" d="M41.5102 10.2283C41.0674 10.2283 40.7188 9.87967 40.7188 9.44625C40.7188 9.01283 41.0674 8.65479 41.5008 8.65479C41.9342 8.65479 42.2923 9.01283 42.2923 9.44625C42.2923 9.87967 41.9436 10.2283 41.5102 10.2283Z" fill="#0077C1"/>
<path fill-rule="evenodd" clip-rule="evenodd" d="M46.3445 10.2283C45.9111 10.2283 45.5625 9.87967 45.5625 9.44625C45.5625 9.01283 45.9111 8.65479 46.3445 8.65479C46.778 8.65479 47.136 9.01283 47.136 9.44625C47.136 9.87967 46.778 10.2283 46.3445 10.2283Z" fill="#0077C1"/>
<path fill-rule="evenodd" clip-rule="evenodd" d="M51.1883 10.2283C50.7549 10.2283 50.4062 9.87967 50.4062 9.44625C50.4062 9.01283 50.7549 8.65479 51.1883 8.65479C51.6217 8.65479 51.9798 9.01283 51.9798 9.44625C51.9798 9.87967 51.6217 10.2283 51.1883 10.2283Z" fill="#0077C1"/>
<path fill-rule="evenodd" clip-rule="evenodd" d="M56.0281 10.2283C55.5947 10.2283 55.2461 9.87967 55.2461 9.44625C55.2461 9.01283 55.5947 8.65479 56.0281 8.65479C56.4616 8.65479 56.8102 9.01283 56.8102 9.44625C56.8102 9.87967 56.4616 10.2283 56.0281 10.2283Z" fill="#0077C1"/>
<path fill-rule="evenodd" clip-rule="evenodd" d="M60.8774 10.2283C60.444 10.2283 60.0859 9.87967 60.0859 9.44625C60.0859 9.01283 60.444 8.65479 60.8774 8.65479C61.3108 8.65479 61.6594 9.01283 61.6594 9.44625C61.6594 9.87967 61.3108 10.2283 60.8774 10.2283Z" fill="#0077C1"/>
<path fill-rule="evenodd" clip-rule="evenodd" d="M65.7172 10.2283C65.2744 10.2283 64.9258 9.87967 64.9258 9.44625C64.9258 9.01283 65.2838 8.65479 65.7172 8.65479C66.1507 8.65479 66.4993 9.01283 66.4993 9.44625C66.4993 9.87967 66.1507 10.2283 65.7172 10.2283Z" fill="#0077C1"/>
<path fill-rule="evenodd" clip-rule="evenodd" d="M65.7172 14.6096C65.2744 14.6096 64.9258 14.2516 64.9258 13.8182C64.9258 13.3942 65.2838 13.0361 65.7172 13.0361C66.1507 13.0361 66.4993 13.3942 66.4993 13.8182C66.4993 14.2516 66.1507 14.6096 65.7172 14.6096Z" fill="#0077C1"/>
<path fill-rule="evenodd" clip-rule="evenodd" d="M65.7172 18.991C65.2744 18.991 64.9258 18.6329 64.9258 18.1995C64.9258 17.7661 65.2838 17.4175 65.7172 17.4175C66.1507 17.4175 66.4993 17.7661 66.4993 18.1995C66.4993 18.6329 66.1507 18.991 65.7172 18.991Z" fill="#0077C1"/>
<path fill-rule="evenodd" clip-rule="evenodd" d="M65.7172 23.3723C65.2744 23.3723 64.9258 23.0143 64.9258 22.5809C64.9258 22.1474 65.2838 21.7988 65.7172 21.7988C66.1507 21.7988 66.4993 22.1474 66.4993 22.5809C66.4993 23.0143 66.1507 23.3723 65.7172 23.3723Z" fill="#0077C1"/>
<path fill-rule="evenodd" clip-rule="evenodd" d="M65.7172 27.7532C65.2744 27.7532 64.9258 27.3951 64.9258 26.9617C64.9258 26.5283 65.2838 26.1797 65.7172 26.1797C66.1507 26.1797 66.4993 26.5283 66.4993 26.9617C66.4993 27.3951 66.1507 27.7532 65.7172 27.7532Z" fill="#0077C1"/>
<path fill-rule="evenodd" clip-rule="evenodd" d="M65.7172 32.1345C65.2744 32.1345 64.9258 31.7765 64.9258 31.3431C64.9258 30.9097 65.2838 30.561 65.7172 30.561C66.1507 30.561 66.4993 30.9097 66.4993 31.3431C66.4993 31.7765 66.1507 32.1345 65.7172 32.1345Z" fill="#0077C1"/>
<path fill-rule="evenodd" clip-rule="evenodd" d="M65.7172 36.5164C65.2744 36.5164 64.9258 36.1583 64.9258 35.7249C64.9258 35.2915 65.2838 34.9429 65.7172 34.9429C66.1507 34.9429 66.4993 35.2915 66.4993 35.7249C66.4993 36.1583 66.1507 36.5164 65.7172 36.5164Z" fill="#0077C1"/>
<path fill-rule="evenodd" clip-rule="evenodd" d="M65.7172 40.8977C65.2744 40.8977 64.9258 40.5397 64.9258 40.1063C64.9258 39.6728 65.2838 39.3242 65.7172 39.3242C66.1507 39.3242 66.4993 39.6728 66.4993 40.1063C66.4993 40.5397 66.1507 40.8977 65.7172 40.8977Z" fill="#0077C1"/>
<path fill-rule="evenodd" clip-rule="evenodd" d="M65.7172 45.2786C65.2744 45.2786 64.9258 44.9205 64.9258 44.4871C64.9258 44.0537 65.2838 43.7051 65.7172 43.7051C66.1507 43.7051 66.4993 44.0537 66.4993 44.4871C66.4993 44.9205 66.1507 45.2786 65.7172 45.2786Z" fill="#0077C1"/>
<path fill-rule="evenodd" clip-rule="evenodd" d="M65.7172 49.6604C65.2744 49.6604 64.9258 49.3024 64.9258 48.869C64.9258 48.4355 65.2838 48.0869 65.7172 48.0869C66.1507 48.0869 66.4993 48.4355 66.4993 48.869C66.4993 49.3024 66.1507 49.6604 65.7172 49.6604Z" fill="#0077C1"/>
</svg>
