<svg width="76" height="75" viewBox="0 0 76 75" fill="none" xmlns="http://www.w3.org/2000/svg">
<path d="M68.4082 44.9697H66.5063V40.8555H68.3833C68.7974 40.8555 69.1333 40.5195 69.1333 40.1055C69.1333 39.6914 68.7974 39.3555 68.3833 39.3555H66.5063V34.458H68.3833C68.7974 34.458 69.1333 34.1221 69.1333 33.708C69.1333 33.2939 68.7974 32.958 68.3833 32.958H66.5063V29.7217C66.5063 26.9473 64.249 24.6895 61.4746 24.6895C58.7002 24.6895 56.4429 26.9473 56.4429 29.7217V32.958H54.6094C54.1953 32.958 53.8594 33.2939 53.8594 33.708C53.8594 34.1221 54.1953 34.458 54.6094 34.458H56.4429V39.3555H54.6094C54.1953 39.3555 53.8594 39.6914 53.8594 40.1055C53.8594 40.5195 54.1953 40.8555 54.6094 40.8555H56.4429V68.2197C56.4429 69.1182 57.1743 69.8496 58.0732 69.8496H64.876C65.7749 69.8496 66.5063 69.1182 66.5063 68.2197V46.4697H68.4082C68.8721 46.4697 69.249 46.8467 69.249 47.3105V69.2305C69.249 69.6445 69.585 69.9805 69.999 69.9805C70.4131 69.9805 70.749 69.6445 70.749 69.2305V47.3105C70.749 46.0195 69.6987 44.9697 68.4082 44.9697ZM61.4746 26.1895C63.4219 26.1895 65.0063 27.7744 65.0063 29.7217V62.4941H57.9429C57.9429 35.3666 57.9429 96.976 57.9429 29.7217C57.9429 27.7744 59.5273 26.1895 61.4746 26.1895ZM64.876 68.3496H58.0732C58.0015 68.3496 57.9429 68.291 57.9429 68.2197V63.9941H65.0063V68.2197C65.0063 68.291 64.9478 68.3496 64.876 68.3496Z" fill="#0077C1"/>
<path d="M23.1999 22.4678C22.7859 22.4678 22.4499 22.8037 22.4499 23.2178C22.4499 23.5906 22.727 23.8862 23.0835 23.9443L22.0744 66.1807C22.0647 66.5947 22.3923 66.9385 22.8064 66.9482C23.2204 66.9414 23.5647 66.6299 23.5744 66.2158L23.8723 53.75H31.5105L31.8083 66.2158C31.8181 66.624 32.1521 66.9482 32.5578 66.9482H32.5764C32.9904 66.9385 33.3181 66.5947 33.3083 66.1807L32.2993 23.9443C32.6557 23.8862 32.9328 23.5906 32.9328 23.2178C32.9328 22.8037 32.5969 22.4678 32.1828 22.4678C31.1086 22.4678 25.3225 22.4678 23.1999 22.4678ZM24.2271 38.8936H31.1556L31.3427 46.7236C31.3259 46.7224 31.3117 46.7139 31.2946 46.7139H24.0403L24.2271 38.8936ZM31.1198 37.3936H24.2629L24.3593 33.3564H30.9519C30.977 33.3564 30.9984 33.3445 31.0229 33.342L31.1198 37.3936ZM23.908 52.25L24.0045 48.2139H31.2946C31.3242 48.2139 31.3492 48.2004 31.3779 48.197L31.4747 52.25H23.908ZM30.799 23.9678L30.9876 31.8638C30.9751 31.863 30.9646 31.8564 30.9519 31.8564H24.3952L24.5837 23.9678H30.799Z" fill="#0077C1"/>
<path d="M7.79074 66.9482C8.22678 66.9414 8.54904 66.6299 8.55881 66.2158L8.884 52.5527H17.1767L17.5022 66.2158C17.5119 66.624 17.8459 66.9482 18.2517 66.9482H18.2702C18.6843 66.9385 19.0119 66.5947 19.0022 66.1807L17.9137 20.4761C18.2934 20.4392 18.594 20.1296 18.594 19.7402C18.594 19.3262 18.258 18.9902 17.844 18.9902C16.6927 18.9902 10.4914 18.9902 8.21652 18.9902C7.80246 18.9902 7.46652 19.3262 7.46652 19.7402C7.46652 20.1296 7.76706 20.4392 8.14682 20.4761L7.05881 66.1807C7.04904 66.5947 7.37668 66.9385 7.79074 66.9482ZM9.26645 36.4854H16.7942L17.0003 45.1409C16.9636 45.1353 16.9306 45.1191 16.8923 45.1191H9.061L9.26645 36.4854ZM16.7585 34.9854H9.30221L9.40768 30.5508H16.5246C16.5699 30.5508 16.6091 30.5327 16.6523 30.5249L16.7585 34.9854ZM8.91965 51.0527L9.02524 46.6191H16.8923C16.9428 46.6191 16.987 46.5999 17.0349 46.5903L17.1411 51.0527H8.91965ZM16.4133 20.4902L16.6176 29.0696C16.5857 29.0654 16.5576 29.0508 16.5246 29.0508H9.44345L9.64719 20.4902H16.4133Z" fill="#0077C1"/>
<path d="M9.65668 10.5599C9.46416 9.91175 8.56926 9.82784 8.26605 10.4408C7.28802 12.4144 7.10003 14.1449 7.70795 15.5853C8.5014 17.4661 10.3637 18.0863 10.4423 18.1117C11.3965 18.4155 11.8307 16.9949 10.9072 16.6859C10.8945 16.681 9.60052 16.2337 9.08343 14.9867C8.80218 14.3089 8.78705 13.5042 9.03558 12.5824C9.82074 13.515 10.7299 13.5511 10.7831 13.5521C11.5343 13.5856 12.4229 12.0265 11.644 10.6663C11.0107 9.55738 11.2329 8.22604 12.3246 7.59798C12.5361 8.42513 12.9819 9.30795 13.9809 9.89584C14.7511 10.5644 14.4034 12.0264 14.4164 12.2161C14.4409 12.5736 14.7255 12.8714 15.081 12.9173C15.4633 12.9691 16.2055 12.5697 16.7763 12.0492C17.7211 13.891 17.0483 15.1068 15.3388 16.8763C15.0512 17.1742 15.0595 17.6497 15.3574 17.9369C15.6557 18.2259 16.1298 18.2171 16.4179 17.9193C18.2846 15.9867 19.9052 13.8089 17.4892 10.3441C17.1088 9.79858 16.2809 10.0169 16.1015 10.555C16.081 10.6165 16.0268 10.6908 15.9526 10.7708C15.8156 9.67081 15.2547 8.89686 14.7778 8.62435C14.0971 8.24056 13.7592 7.58822 13.6494 6.44369C13.6264 6.20541 13.4911 5.99252 13.2851 5.87045C12.8001 5.58446 12.3942 5.96558 11.9711 6.09994C9.7312 7.06367 9.28862 9.56886 10.3422 11.4115C10.4233 11.5531 10.4575 11.7103 10.4409 11.8656C10.1913 11.6781 9.87836 11.304 9.65668 10.5599Z" fill="#0077C1"/>
<path d="M54.0863 54.3262C54.0863 49.7373 50.3529 46.0039 45.764 46.0039C41.1752 46.0039 37.4423 49.7373 37.4423 54.3262C37.4423 56.8616 38.5856 59.1323 40.38 60.6597L37.4559 68.6992C37.2782 69.1883 37.64 69.7061 38.1605 69.7061C38.4667 69.7061 38.7548 69.5166 38.8651 69.2129L41.6519 61.5513C42.6627 62.1289 43.8034 62.5015 45.0209 62.6099V69.2402C45.0209 69.6543 45.3568 69.9902 45.7709 69.9902C46.1849 69.9902 46.5209 69.6543 46.5209 69.2402V62.6091C47.7561 62.4971 48.911 62.1113 49.932 61.5171L52.7269 69.2119C52.867 69.597 53.2925 69.8028 53.6879 69.6611C54.0775 69.5195 54.2782 69.0889 54.1371 68.7002L51.1996 60.613C52.9638 59.0859 54.0863 56.8364 54.0863 54.3262ZM38.9423 54.3262C38.9423 50.5645 42.0023 47.5039 45.764 47.5039C49.5258 47.5039 52.5863 50.5645 52.5863 54.3262C52.5863 58.0808 49.537 61.135 45.785 61.1465C45.78 61.1462 45.7759 61.1436 45.7709 61.1436C45.7649 61.1436 45.7599 61.147 45.754 61.147C41.997 61.1416 38.9423 58.0845 38.9423 54.3262Z" fill="#0077C1"/>
<path d="M45.0195 21.6611V43.4404H42.9023C42.4883 43.4404 42.1523 43.7764 42.1523 44.1904C42.1523 44.6045 42.4883 44.9404 42.9023 44.9404H48.6216C49.0356 44.9404 49.3716 44.6045 49.3716 44.1904C49.3716 43.7764 49.0356 43.4404 48.6216 43.4404H46.5195V21.6611C46.5195 20.7432 47.2666 19.9961 48.1846 19.9961H59.0591C59.9771 19.9961 60.7241 20.7432 60.7241 21.6611V22.624C60.7241 23.0381 61.0601 23.374 61.4741 23.374C61.8882 23.374 62.2241 23.0381 62.2241 22.624V21.6611C62.2241 19.916 60.8042 18.4961 59.0591 18.4961H48.1846C46.4395 18.4961 45.0195 19.916 45.0195 21.6611Z" fill="#0077C1"/>
<path d="M43.1199 58.0176C43.2283 58.0723 43.3436 58.0976 43.4573 58.0976C44.2465 58.0976 44.4965 57.0313 43.7957 56.6777C43.7274 56.6435 42.411 55.9531 42.6551 54.2422C43.3211 54.8008 44.056 55.0039 44.1048 55.0166C44.7501 55.1901 45.5975 54.3658 45.137 52.9248C44.9605 52.3763 44.8844 51.1952 45.283 50.71C45.471 51.2676 45.7381 51.8223 46.0609 52.208C46.3641 52.5713 46.4105 53.3799 46.3685 53.8027C46.3265 54.213 46.6219 54.5763 47.0223 54.6269C47.3841 54.667 48.0174 54.1846 48.5599 53.6523C48.8372 54.918 48.3577 55.7627 47.4764 56.6748C47.1888 56.9726 47.1971 57.4482 47.4949 57.7353C47.7933 58.0234 48.2679 58.0166 48.5555 57.7178C49.7825 56.4473 50.8572 54.7627 49.5252 51.8975C49.2307 51.2653 48.2982 51.3585 48.1097 51.9521C48.0609 52.042 47.9222 52.1963 47.7493 52.3672C47.6522 51.9756 47.4871 51.5752 47.2117 51.2461C46.8875 50.8584 46.5472 49.9355 46.4837 49.2705C46.4289 48.6973 45.7757 48.3997 45.3099 48.7256C45.1996 48.8198 44.4026 49.2635 43.9715 49.958C43.3328 50.9902 43.472 52.3975 43.6351 53.1103C43.4193 52.9316 43.2235 52.6953 43.1321 52.3887C42.9399 51.7416 42.0461 51.6559 41.7415 52.2695C40.157 55.4658 41.9505 57.4267 43.1199 58.0176Z" fill="#0077C1"/>
<path d="M5.25 68.9404C5.25 69.3545 5.58594 69.6904 6 69.6904H34.3706C34.7847 69.6904 35.1206 69.3545 35.1206 68.9404C35.1206 68.5264 34.7847 68.1904 34.3706 68.1904H6C5.58594 68.1904 5.25 68.5264 5.25 68.9404Z" fill="#0077C1"/>
<path d="M24.2161 20.9689C24.2517 21.3888 24.6234 21.6901 25.0267 21.6535C25.4393 21.6193 25.7459 21.256 25.7112 20.8439C25.5706 19.1744 25.9276 19.2036 26.7693 18.1935C27.8045 16.9504 28.1092 15.3361 27.5662 13.8215C27.5555 13.7931 27.5237 13.7043 27.6146 13.5675C27.7171 13.4132 27.9715 13.2248 28.3509 13.2033C29.7332 13.1261 31.0135 12.5431 31.8641 11.6027L33.4393 9.86051C34.1331 9.09294 35.3875 8.74235 36.4778 9.00797C36.5783 9.0122 39.2178 9.93305 41.7747 8.21501L43.4964 7.05778C44.7366 6.22379 46.5945 6.37223 47.3929 7.3693C48.1238 8.28141 49.5628 8.54606 50.741 7.98356C51.115 7.80583 51.2737 7.35758 51.095 6.98454C50.9173 6.60954 50.47 6.45329 50.0955 6.63004C49.5569 6.88688 48.8553 6.79606 48.5638 6.4318C47.2684 4.81461 44.5652 4.53141 42.6595 5.81364L40.9378 6.97086C38.9837 8.28555 36.9334 7.55538 36.8333 7.55094C35.2 7.14958 33.3899 7.67887 32.327 8.85465L30.7518 10.5968C30.1727 11.2365 29.2439 11.6515 28.2669 11.7052C26.8175 11.7874 25.6845 13.0205 26.1727 14.38C26.5213 15.3517 26.3187 16.3908 25.617 17.2326C24.7333 18.2944 24.0207 18.6422 24.2161 20.9689Z" fill="#0077C1"/>
<path d="M39.5964 16.3886L41.0392 16.7412C42.2295 17.0337 43.431 16.2941 43.7048 15.0937C43.8329 14.5309 44.4234 14.2071 44.967 14.4072C45.0974 14.4539 45.0584 14.4309 46.5705 14.6699C47.6052 15.0097 48.7497 14.5498 49.2624 13.581L49.3249 13.4629C49.5182 13.0966 49.3786 12.6425 49.0124 12.4492C48.6481 12.2588 48.1935 12.3945 47.9987 12.7617L47.9362 12.8798C47.7609 13.2138 47.3625 13.3652 47.0104 13.2353C46.8756 13.1876 46.931 13.2136 45.4069 12.9726C44.0352 12.5185 42.5629 13.3473 42.2414 14.7617C42.1564 15.1374 41.7763 15.3797 41.3952 15.2841L39.9518 14.9316C37.6066 14.3603 35.3308 15.6172 33.4128 16.9228C32.672 17.4287 29.3602 17.631 28.7233 20.0947C28.6016 20.5656 28.9559 21.0322 29.4499 21.0322C29.7839 21.0322 30.0881 20.8076 30.1755 20.4697C30.4142 19.5468 31.4592 19.1591 32.8 18.748C33.3845 18.5683 33.8893 18.4131 34.2575 18.1631C35.9025 17.042 37.8205 15.955 39.5964 16.3886Z" fill="#0077C1"/>
</svg>
