<svg width="76" height="75" viewBox="0 0 76 75" fill="none" xmlns="http://www.w3.org/2000/svg">
<path d="M43.9435 67.3069H10.8798C10.2292 67.3069 9.67512 66.835 9.57147 66.1929L4.26687 33.3265C4.20522 32.9434 4.31427 32.5524 4.56627 32.2564C4.81827 31.9609 5.18697 31.7905 5.57517 31.7905H12.1081C12.7585 31.7905 13.3128 32.2624 13.4163 32.9046L17.6011 58.833H37.222L41.4069 32.9046C41.5105 32.2624 42.0646 31.7905 42.7152 31.7905H49.2481C49.6363 31.7905 50.0052 31.9609 50.257 32.2564C50.5089 32.5522 50.6179 32.9434 50.5564 33.3265L45.2518 66.1929C45.1483 66.8352 44.5941 67.3069 43.9435 67.3069ZM12.0081 64.6569H42.8151L47.6917 34.4406H43.8435L39.6586 60.369C39.555 61.0111 39.0009 61.4832 38.3505 61.4832H16.4728C15.8223 61.4832 15.2682 61.0111 15.1645 60.369L10.9798 34.4407H7.13142L12.0081 64.6569Z" fill="#0077C1"/>
<path d="M42.048 37.3868H37.6509C37.0005 37.3868 36.4462 36.9149 36.3427 36.2728L31.978 9.23031C31.8615 8.50821 32.3527 7.82796 33.0753 7.71111C33.7891 7.59201 34.4776 8.08506 34.5945 8.80836L38.7792 34.7368H42.0478C42.7798 34.7368 43.3729 35.3299 43.3729 36.0617C43.3731 36.7937 42.78 37.3868 42.048 37.3868Z" fill="#0077C1"/>
<path d="M12.1082 34.4408H5.57509C5.05444 34.4408 4.58254 34.1363 4.36774 33.6619C4.15339 33.1879 4.23619 32.6318 4.57954 32.2409L25.7559 8.14464C26.0078 7.85829 26.37 7.69434 26.7515 7.69434H33.2844C33.8051 7.69434 34.277 7.99884 34.4918 8.47329C34.7061 8.94744 34.6233 9.50334 34.28 9.89409L13.1037 33.9905C12.8517 34.2769 12.4893 34.4408 12.1082 34.4408ZM8.50339 31.7908H11.5085L30.3561 10.3444H27.351L8.50339 31.7908Z" fill="#0077C1"/>
<path d="M16.4732 61.4831C16.1627 61.4831 15.8507 61.3743 15.5989 61.1535C15.0493 60.6704 14.995 59.8332 15.4781 59.2832L36.6544 35.1867C37.138 34.6368 37.9738 34.5833 38.5247 35.0658C39.0743 35.549 39.1286 36.3863 38.6455 36.9362L17.4692 61.0328C17.2069 61.3307 16.8412 61.4831 16.4732 61.4831Z" fill="#0077C1"/>
<path d="M43.9438 67.3072C43.6331 67.3072 43.3213 67.1986 43.0694 66.9778C42.5198 66.4947 42.4655 65.6571 42.9485 65.1075L63.8731 41.2984L68.3843 13.3492L50.2442 33.9907C49.9924 34.2771 49.6301 34.441 49.2487 34.441H42.7157C42.1951 34.441 41.7232 34.1365 41.5084 33.6621C41.294 33.1881 41.3768 32.632 41.7202 32.2411L62.8969 8.14481C63.1487 7.85846 63.5111 7.69451 63.8924 7.69451H70.4125C70.4684 7.69361 70.513 7.69616 70.5634 7.70141C70.8023 7.72646 71.0222 7.81451 71.2064 7.94891C71.3044 8.02061 71.3911 8.10461 71.4647 8.19776C71.6161 8.38886 71.7158 8.62256 71.743 8.87801C71.7508 8.95061 71.7524 9.02426 71.7481 9.09851C71.7448 9.15146 71.7386 9.20381 71.7296 9.25511L66.4286 42.0976C66.389 42.3435 66.2803 42.5737 66.116 42.7609L44.9396 66.8571C44.6774 67.155 44.3117 67.3072 43.9438 67.3072ZM45.6445 31.791H48.6491L67.4968 10.3446H64.4921L45.6445 31.791Z" fill="#0077C1"/>
</svg>
