<svg width="18" height="18" viewBox="0 0 18 18" fill="none" xmlns="http://www.w3.org/2000/svg">
<mask id="mask0_2114_188" style="mask-type:alpha" maskUnits="userSpaceOnUse" x="1" y="0" width="16" height="16">
<path d="M8.71468 0.878116C8.80449 0.601723 9.19551 0.601722 9.28532 0.878115L10.9533 6.01155C10.9934 6.13516 11.1086 6.21885 11.2386 6.21885H16.6362C16.9268 6.21885 17.0477 6.59073 16.8125 6.76155L12.4458 9.93419C12.3406 10.0106 12.2966 10.146 12.3368 10.2696L14.0048 15.403C14.0946 15.6794 13.7782 15.9093 13.5431 15.7384L9.17634 12.5658C9.07119 12.4894 8.92881 12.4894 8.82366 12.5658L4.4569 15.7384C4.22179 15.9093 3.90544 15.6794 3.99525 15.403L5.6632 10.2696C5.70337 10.146 5.65937 10.0106 5.55422 9.93419L1.18746 6.76155C0.952347 6.59073 1.07318 6.21885 1.3638 6.21885H6.76141C6.89138 6.21885 7.00657 6.13516 7.04673 6.01155L8.71468 0.878116Z" fill="white"/>
</mask>
<g mask="url(#mask0_2114_188)">
<rect x="-3" y="-7" width="11" height="29" fill="#F2BF3E"/>
<path d="M9 0.97082L10.668 6.10426C10.7483 6.35147 10.9787 6.51885 11.2386 6.51885H16.6362L12.2694 9.69149C12.0591 9.84427 11.9712 10.1151 12.0515 10.3623L13.7194 15.4957L9.35267 12.3231C9.14238 12.1703 8.85762 12.1703 8.64733 12.3231L4.28057 15.4957L5.94852 10.3623C6.02885 10.1151 5.94085 9.84427 5.73056 9.69149L1.3638 6.51885H6.76141C7.02135 6.51885 7.25172 6.35147 7.33205 6.10426L9 0.97082Z" stroke="#D6D6D6" stroke-width="0.6"/>
</g>
</svg>
