<svg width="98" height="18" viewBox="0 0 98 18" fill="none" xmlns="http://www.w3.org/2000/svg">
<path d="M8.80979 0.58541C8.86966 0.401148 9.13034 0.401148 9.19021 0.58541L10.9757 6.08065C11.0025 6.16306 11.0793 6.21885 11.1659 6.21885H16.944C17.1377 6.21885 17.2183 6.46677 17.0615 6.58065L12.387 9.9769C12.3169 10.0278 12.2876 10.1181 12.3143 10.2005L14.0999 15.6957C14.1597 15.88 13.9488 16.0332 13.7921 15.9193L9.11756 12.5231C9.04746 12.4722 8.95254 12.4722 8.88244 12.5231L4.20791 15.9193C4.05117 16.0332 3.84027 15.88 3.90014 15.6957L5.68566 10.2005C5.71243 10.1181 5.6831 10.0278 5.613 9.9769L0.938471 6.58065C0.781729 6.46677 0.862284 6.21885 1.05603 6.21885H6.83407C6.92071 6.21885 6.9975 6.16306 7.02428 6.08065L8.80979 0.58541Z" fill="#F2BF3E"/>
<path d="M28.8098 0.58541C28.8697 0.401148 29.1303 0.401148 29.1902 0.58541L30.9757 6.08065C31.0025 6.16306 31.0793 6.21885 31.1659 6.21885H36.944C37.1377 6.21885 37.2183 6.46677 37.0615 6.58065L32.387 9.9769C32.3169 10.0278 32.2876 10.1181 32.3143 10.2005L34.0999 15.6957C34.1597 15.88 33.9488 16.0332 33.7921 15.9193L29.1176 12.5231C29.0475 12.4722 28.9525 12.4722 28.8824 12.5231L24.2079 15.9193C24.0512 16.0332 23.8403 15.88 23.9001 15.6957L25.6857 10.2005C25.7124 10.1181 25.6831 10.0278 25.613 9.9769L20.9385 6.58065C20.7817 6.46677 20.8623 6.21885 21.056 6.21885H26.8341C26.9207 6.21885 26.9975 6.16306 27.0243 6.08065L28.8098 0.58541Z" fill="#F2BF3E"/>
<path d="M48.8098 0.58541C48.8697 0.401148 49.1303 0.401148 49.1902 0.58541L50.9757 6.08065C51.0025 6.16306 51.0793 6.21885 51.1659 6.21885H56.944C57.1377 6.21885 57.2183 6.46677 57.0615 6.58065L52.387 9.9769C52.3169 10.0278 52.2876 10.1181 52.3143 10.2005L54.0999 15.6957C54.1597 15.88 53.9488 16.0332 53.7921 15.9193L49.1176 12.5231C49.0475 12.4722 48.9525 12.4722 48.8824 12.5231L44.2079 15.9193C44.0512 16.0332 43.8403 15.88 43.9001 15.6957L45.6857 10.2005C45.7124 10.1181 45.6831 10.0278 45.613 9.9769L40.9385 6.58065C40.7817 6.46677 40.8623 6.21885 41.056 6.21885H46.8341C46.9207 6.21885 46.9975 6.16306 47.0243 6.08065L48.8098 0.58541Z" fill="#F2BF3E"/>
<path d="M68.8098 0.58541C68.8697 0.401148 69.1303 0.401148 69.1902 0.58541L70.9757 6.08065C71.0025 6.16306 71.0793 6.21885 71.1659 6.21885H76.944C77.1377 6.21885 77.2183 6.46677 77.0615 6.58065L72.387 9.9769C72.3169 10.0278 72.2876 10.1181 72.3143 10.2005L74.0999 15.6957C74.1597 15.88 73.9488 16.0332 73.7921 15.9193L69.1176 12.5231C69.0475 12.4722 68.9525 12.4722 68.8824 12.5231L64.2079 15.9193C64.0512 16.0332 63.8403 15.88 63.9001 15.6957L65.6857 10.2005C65.7124 10.1181 65.6831 10.0278 65.613 9.9769L60.9385 6.58065C60.7817 6.46677 60.8623 6.21885 61.056 6.21885H66.8341C66.9207 6.21885 66.9975 6.16306 67.0243 6.08065L68.8098 0.58541Z" fill="#F2BF3E"/>
<mask id="mask0_2113_170" style="mask-type:alpha" maskUnits="userSpaceOnUse" x="81" y="0" width="16" height="16">
<path d="M88.7147 0.878116C88.8045 0.601723 89.1955 0.601722 89.2853 0.878115L90.9533 6.01155C90.9934 6.13516 91.1086 6.21885 91.2386 6.21885H96.6362C96.9268 6.21885 97.0477 6.59073 96.8125 6.76155L92.4458 9.93419C92.3406 10.0106 92.2966 10.146 92.3368 10.2696L94.0048 15.403C94.0946 15.6794 93.7782 15.9093 93.5431 15.7384L89.1763 12.5658C89.0712 12.4894 88.9288 12.4894 88.8237 12.5658L84.4569 15.7384C84.2218 15.9093 83.9054 15.6794 83.9952 15.403L85.6632 10.2696C85.7034 10.146 85.6594 10.0106 85.5542 9.93419L81.1875 6.76155C80.9523 6.59073 81.0732 6.21885 81.3638 6.21885H86.7614C86.8914 6.21885 87.0066 6.13516 87.0467 6.01155L88.7147 0.878116Z" fill="white"/>
</mask>
<g mask="url(#mask0_2113_170)">
<rect x="77" y="-7" width="11" height="29" fill="#F2BF3E"/>
<path d="M89 0.97082L90.668 6.10426C90.7483 6.35147 90.9787 6.51885 91.2386 6.51885H96.6362L92.2694 9.69149C92.0591 9.84427 91.9712 10.1151 92.0515 10.3623L93.7194 15.4957L89.3527 12.3231C89.1424 12.1703 88.8576 12.1703 88.6473 12.3231L84.2806 15.4957L85.9485 10.3623C86.0288 10.1151 85.9409 9.84427 85.7306 9.69149L81.3638 6.51885H86.7614C87.0213 6.51885 87.2517 6.35147 87.332 6.10426L89 0.97082Z" stroke="#D6D6D6" stroke-width="0.6"/>
</g>
</svg>
