<svg width="76" height="75" viewBox="0 0 76 75" fill="none" xmlns="http://www.w3.org/2000/svg">
<g clip-path="url(#clip0_110_3383)">
<path d="M65.594 45.4926L47.6249 54.4868C47.5374 53.5124 47.1871 52.58 46.6114 51.7889C46.0357 50.9979 45.2562 50.3779 44.356 49.995L39.0173 47.6846L29.7168 43.5905C26.3311 42.0946 23.4165 42.7036 21.0127 43.4963L11.7037 46.5593L11.191 44.839C11.0114 44.2491 10.6061 43.754 10.0633 43.4612C9.52056 43.1685 8.88419 43.1018 8.29255 43.2757L2.15837 45.1024L2.14811 45.1055C1.56158 45.2907 1.07063 45.6978 0.77996 46.2399C0.489288 46.7819 0.421896 47.4161 0.592155 48.0072L7.28942 70.4367C7.43185 70.9165 7.72525 71.3376 8.12603 71.6374C8.5268 71.9371 9.01359 72.0997 9.51408 72.1008C9.74161 72.1006 9.9679 72.0671 10.1857 72.0013L16.3124 70.175C16.9051 69.9994 17.4038 69.5956 17.6988 69.0524C17.9938 68.5092 18.0609 67.8711 17.8854 67.2784L17.3692 65.5485L20.6281 64.6755L32.7755 69.0435C32.7874 69.0478 32.7992 69.0519 32.8112 69.0555C35.155 69.8026 36.6477 70.2127 38.1064 70.2127C39.636 70.2127 41.1286 69.7613 43.5263 68.7732C43.5556 68.7612 43.5841 68.7479 43.6118 68.7333L70.1428 54.818C73.1138 53.261 73.4797 50.1271 72.3058 47.8361C71.149 45.5802 68.4726 44.0511 65.594 45.4926ZM15.8958 68.0741C15.8785 68.1065 15.8548 68.1351 15.8261 68.1582C15.7974 68.1813 15.7644 68.1983 15.729 68.2083L9.59699 70.0362C9.56226 70.047 9.52573 70.0507 9.48954 70.0471C9.45336 70.0435 9.41827 70.0327 9.38634 70.0153C9.35478 69.9984 9.32696 69.9753 9.30458 69.9474C9.2822 69.9195 9.26571 69.8873 9.25612 69.8528L2.56032 47.4287C2.53925 47.3555 2.54729 47.2769 2.58278 47.2095C2.61827 47.142 2.67845 47.0909 2.75075 47.0668L8.87482 45.2423C8.94593 45.2212 9.0225 45.2288 9.08803 45.2636C9.15356 45.2983 9.20282 45.3575 9.22521 45.4282L15.9185 67.8621C15.9289 67.8972 15.9322 67.934 15.9283 67.9704C15.9244 68.0067 15.9133 68.042 15.8958 68.0741ZM69.1896 53.0008L42.7001 66.8946C38.7045 68.5399 37.9943 68.5534 33.452 67.1068L21.0201 62.6366C20.8233 62.5659 20.6096 62.5571 20.4077 62.6112L16.7825 63.5823L12.2904 48.5257L21.6546 45.4446C24.5757 44.4813 26.6715 44.4876 28.889 45.4674L38.1967 49.5646L43.5409 51.8774C45.1052 52.5549 45.9046 54.2336 45.4857 55.9607C45.4431 56.1105 45.3908 56.2573 45.3289 56.4002C44.965 57.2361 44.2846 57.8937 43.4367 58.2289C42.5888 58.564 41.6426 58.5494 40.8055 58.1881L27.6415 52.4908C27.3919 52.3827 27.1095 52.3783 26.8565 52.4784C26.6036 52.5786 26.4008 52.7751 26.2928 53.0248C26.1847 53.2745 26.1803 53.5568 26.2804 53.8098C26.3806 54.0627 26.5771 54.2655 26.8268 54.3735L39.9906 60.0708C41.3249 60.6484 42.8337 60.6734 44.1864 60.1403C45.5391 59.6071 46.6251 58.5593 47.2064 57.2266C47.2517 57.1254 47.2898 57.0268 47.3249 56.9309L66.5125 47.3269C68.2862 46.4389 69.7829 47.4125 70.4793 48.7717C71.1938 50.1659 71.0722 52.0146 69.1896 53.0013V53.0008ZM28.1312 31.5019C30.1689 31.502 32.1609 30.8978 33.8552 29.7657C35.5496 28.6337 36.8702 27.0246 37.65 25.142C38.4298 23.2594 38.6339 21.1878 38.2364 19.1893C37.8389 17.1907 36.8577 15.3549 35.4168 13.914C33.976 12.4731 32.1402 11.4918 30.1416 11.0942C28.143 10.6967 26.0715 10.9007 24.1889 11.6805C22.3062 12.4603 20.6971 13.7808 19.565 15.4751C18.4329 17.1694 17.8287 19.1614 17.8287 21.1991C17.8317 23.9306 18.9182 26.5493 20.8496 28.4808C22.781 30.4123 25.3997 31.4988 28.1312 31.5019ZM28.1312 12.9478C29.7632 12.9478 31.3584 13.4319 32.7153 14.3386C34.0722 15.2453 35.1297 16.534 35.7541 18.0417C36.3786 19.5495 36.5419 21.2085 36.2235 22.8091C35.9051 24.4097 35.1192 25.8799 33.9652 27.0338C32.8112 28.1877 31.341 28.9735 29.7404 29.2919C28.1398 29.6102 26.4807 29.4468 24.973 28.8223C23.4653 28.1977 22.1767 27.1401 21.27 25.7832C20.3634 24.4263 19.8795 22.831 19.8795 21.1991C19.8819 19.0114 20.7521 16.914 22.2991 15.3671C23.8461 13.8202 25.9435 12.9501 28.1312 12.9478ZM10.8354 24.4945L13.9654 25.334C14.266 26.3597 14.6769 27.3496 15.1911 28.2866L13.5683 31.0969C13.4687 31.2694 13.4214 31.4671 13.4324 31.666C13.4433 31.8649 13.5119 32.0564 13.6299 32.2169C14.6046 33.5503 15.7787 34.7258 17.1109 35.7022C17.2714 35.8194 17.4625 35.8875 17.6609 35.8981C17.8594 35.9087 18.0567 35.8614 18.2287 35.762L21.0389 34.1391C21.9771 34.6539 22.9685 35.065 23.9957 35.3653L24.8352 38.4949C24.8866 38.6869 24.9927 38.8598 25.1406 38.9925C25.2885 39.1253 25.4718 39.2122 25.6682 39.2427C26.4859 39.3701 27.3123 39.4343 28.1399 39.4346C28.9621 39.4348 29.7832 39.3705 30.5954 39.2423C30.7913 39.2114 30.974 39.1244 31.1214 38.9918C31.2689 38.8592 31.3747 38.6867 31.4261 38.4952L32.2653 35.3629C33.2913 35.0643 34.2815 34.6542 35.2181 34.1398L38.0289 35.762C38.2014 35.8616 38.3992 35.9089 38.5981 35.898C38.797 35.8871 38.9885 35.8184 39.149 35.7004C40.4828 34.724 41.6583 33.5481 42.6343 32.2141C42.7516 32.0536 42.8197 31.8624 42.8302 31.6638C42.8408 31.4653 42.7934 31.2679 42.6938 31.0959L41.0714 28.2904C41.5857 27.3522 41.9967 26.3609 42.297 25.334L45.4269 24.4945C45.6189 24.4431 45.7918 24.337 45.9245 24.1891C46.0573 24.0412 46.1442 23.8579 46.1747 23.6615C46.431 22.029 46.431 20.3666 46.1747 18.7342C46.1438 18.5383 46.0568 18.3556 45.9242 18.2082C45.7916 18.0608 45.6191 17.955 45.4277 17.9036L42.2954 17.0644C41.9969 16.037 41.5868 15.0454 41.0722 14.1073L42.695 11.2972C42.7948 11.1245 42.842 10.9264 42.831 10.7272C42.8199 10.528 42.7509 10.3364 42.6326 10.1758C41.6551 8.84469 40.4794 7.67113 39.1465 6.69595C38.986 6.57881 38.7948 6.51083 38.5963 6.50027C38.3978 6.48971 38.2005 6.53703 38.0284 6.63648L35.2225 8.25894C34.2844 7.74456 33.2931 7.33361 32.2662 7.0333L31.4267 3.90337C31.3752 3.7114 31.2691 3.53852 31.1212 3.40576C30.9733 3.27299 30.79 3.18607 30.5936 3.15557C28.9611 2.8987 27.2984 2.8987 25.6659 3.15557C25.4701 3.18654 25.2875 3.27359 25.1402 3.40618C24.9929 3.53876 24.8871 3.71121 24.8358 3.90264L23.9957 7.03287C22.9685 7.33304 21.977 7.7442 21.0389 8.25909L18.2293 6.6356C18.0566 6.53579 17.8584 6.48855 17.6592 6.49966C17.46 6.51077 17.2684 6.57975 17.1078 6.69815C15.777 7.67414 14.6035 8.8482 13.6281 10.1795C13.5109 10.34 13.4429 10.531 13.4323 10.7295C13.4216 10.9279 13.4689 11.1251 13.5683 11.2972L15.1911 14.1073C14.6766 15.0456 14.2657 16.037 13.9654 17.0641L10.8354 17.9036C10.6434 17.9551 10.4705 18.0612 10.3378 18.2091C10.205 18.357 10.1181 18.5403 10.0876 18.7367C9.83136 20.3691 9.83136 22.0315 10.0876 23.664C10.1185 23.8599 10.2056 24.0427 10.3384 24.1901C10.4711 24.3375 10.6437 24.4433 10.8354 24.4945ZM12.0279 19.7077L15.0666 18.8927C15.2435 18.8452 15.4045 18.7512 15.5328 18.6205C15.6611 18.4897 15.7521 18.327 15.7964 18.1493C16.1032 16.912 16.5942 15.7278 17.2528 14.6364C17.3477 14.4794 17.3986 14.2998 17.4004 14.1163C17.4022 13.9329 17.3547 13.7523 17.263 13.5935L15.6875 10.8647C16.315 10.0894 17.023 9.38264 17.7994 8.7564L20.5255 10.3313C20.6844 10.4229 20.8649 10.4703 21.0483 10.4685C21.2318 10.4667 21.4114 10.4158 21.5684 10.321C22.6594 9.66202 23.8434 9.17107 25.0805 8.86465C25.2585 8.82062 25.4214 8.72967 25.5523 8.6013C25.6832 8.47292 25.7772 8.3118 25.8247 8.13472L26.64 5.09473C27.6313 4.9875 28.6313 4.98795 29.6226 5.09605L30.4376 8.13472C30.485 8.31168 30.579 8.47271 30.7097 8.60105C30.8405 8.7294 31.0032 8.82037 31.181 8.86451C32.4183 9.17144 33.6024 9.66241 34.6939 10.321C34.851 10.4159 35.0307 10.4669 35.2142 10.4686C35.3977 10.4704 35.5784 10.4228 35.7373 10.331L38.4619 8.75552C39.2384 9.38264 39.9464 10.0903 40.5737 10.8667L38.9992 13.5936C38.9074 13.7524 38.8599 13.933 38.8617 14.1165C38.8634 14.2999 38.9143 14.4795 39.0091 14.6366C39.6677 15.7264 40.1571 16.9099 40.4608 18.1465C40.5047 18.3249 40.5956 18.4883 40.7242 18.6196C40.8527 18.7509 41.0141 18.8452 41.1916 18.8928L44.2351 19.7083C44.3423 20.6996 44.342 21.6995 44.2341 22.6907L41.1954 23.5056C41.0185 23.5531 40.8575 23.647 40.7292 23.7778C40.6009 23.9085 40.5099 24.0712 40.4658 24.249C40.1588 25.4863 39.6678 26.6704 39.0093 27.7619C38.9144 27.919 38.8634 28.0987 38.8617 28.2822C38.8599 28.4657 38.9075 28.6464 38.9993 28.8053L40.5748 31.5299C39.947 32.3072 39.2382 33.0154 38.4603 33.6425L35.7326 32.0673C35.5737 31.9756 35.3932 31.9281 35.2098 31.9299C35.0264 31.9317 34.8468 31.9826 34.6898 32.0774C33.6012 32.7357 32.4192 33.2252 31.184 33.5291C31.0053 33.5728 30.8418 33.6636 30.7103 33.7922C30.5789 33.9208 30.4844 34.0823 30.4369 34.2599L29.6215 37.3034C28.6303 37.4104 27.6303 37.41 26.6391 37.3022L25.8241 34.2637C25.7766 34.0866 25.6826 33.9255 25.5517 33.7971C25.4208 33.6688 25.2579 33.5778 25.0799 33.5338C23.8428 33.2272 22.6589 32.7363 21.5678 32.0774C21.4108 31.9826 21.2312 31.9317 21.0477 31.9299C20.8643 31.9281 20.6837 31.9756 20.5249 32.0673L17.7963 33.6429C17.02 33.0152 16.3129 32.3064 15.6869 31.5287L17.2622 28.8007C17.354 28.6419 17.4015 28.4613 17.3997 28.2779C17.3979 28.0944 17.3469 27.9148 17.2521 27.7578C16.5936 26.6678 16.1027 25.4851 15.7956 24.2492C15.7514 24.0714 15.6604 23.9087 15.5321 23.778C15.4037 23.6473 15.2428 23.5533 15.0658 23.5058L12.0272 22.6903C11.92 21.699 11.9202 20.699 12.0279 19.7077ZM73.1539 5.79244C73.0428 5.67137 72.9043 5.57877 72.7499 5.52243C72.5956 5.4661 72.43 5.44768 72.267 5.46873C72.1041 5.48978 71.9485 5.54968 71.8136 5.64339C71.6786 5.73709 71.5681 5.86186 71.4915 6.00718L68.6643 11.3578L66.6108 11.7579L65.7858 9.8376L68.6167 4.48682C68.6935 4.34166 68.7343 4.18019 68.7357 4.01598C68.7371 3.85177 68.699 3.68962 68.6247 3.5432C68.5503 3.39677 68.4419 3.27033 68.3085 3.17453C68.1752 3.07873 68.0207 3.01636 67.8582 2.99268C66.1774 2.74848 64.4618 2.98874 62.9127 3.68526C61.3636 4.38179 60.0453 5.50569 59.1125 6.92508C58.1797 8.34447 57.671 10.0005 57.6463 11.6988C57.6215 13.3971 58.0816 15.0672 58.9726 16.5132C57.7536 18.8168 56.535 21.1211 55.317 23.4261C54.0989 25.7311 52.8805 28.0346 51.6617 30.3368C49.9653 30.4159 48.3265 30.977 46.9376 31.9543C45.5487 32.9316 44.4671 34.2845 43.8197 35.8546C43.1723 37.4247 42.9858 39.1467 43.2822 40.819C43.5786 42.4912 44.3455 44.0443 45.4931 45.2962C45.6042 45.4174 45.7427 45.5101 45.8971 45.5665C46.0514 45.623 46.2171 45.6415 46.3801 45.6205C46.5431 45.5995 46.6987 45.5396 46.8338 45.4459C46.9688 45.3522 47.0793 45.2274 47.156 45.082L49.9832 39.7305L52.0363 39.3281L52.8616 41.2512L50.0305 46.6024C49.9535 46.7477 49.9126 46.9093 49.9112 47.0737C49.9098 47.2381 49.948 47.4004 50.0225 47.5469C50.0969 47.6935 50.2056 47.82 50.3392 47.9158C50.4728 48.0115 50.6274 48.0738 50.7901 48.0973C52.4708 48.3404 54.186 48.0993 55.7345 47.4024C57.2831 46.7055 58.6008 45.5815 59.5334 44.1623C60.4659 42.7431 60.9745 41.0875 60.9996 39.3895C61.0247 37.6915 60.5652 36.0216 59.675 34.5754C60.6193 32.7898 61.5631 31.0042 62.5066 29.2185C63.9994 26.394 65.4923 23.5704 66.9853 20.7478C68.6818 20.6695 70.3208 20.1091 71.71 19.1322C73.0993 18.1553 74.1811 16.8025 74.8286 15.2325C75.4761 13.6625 75.6624 11.9404 75.3657 10.2682C75.069 8.59601 74.3016 7.04312 73.1535 5.7917L73.1539 5.79244ZM72.6541 15.0438C72.0587 16.1801 71.1557 17.1259 70.0481 17.7732C68.9406 18.4205 67.6733 18.7431 66.391 18.7042C66.2002 18.6993 66.0118 18.7478 65.847 18.8442C65.6822 18.9405 65.5475 19.0809 65.4581 19.2495C63.869 22.2521 62.2808 25.2558 60.6934 28.2608C59.6546 30.2263 58.6155 32.192 57.5762 34.1578C57.4867 34.3269 57.4463 34.5176 57.4596 34.7085C57.4728 34.8993 57.5392 35.0826 57.6512 35.2377C58.3648 36.2279 58.8021 37.3903 58.9182 38.6053C59.0343 39.8204 58.8249 41.0445 58.3117 42.1519C57.7984 43.2594 56.9997 44.2103 55.9976 44.9071C54.9954 45.6039 53.8259 46.0215 52.6091 46.1171L54.9046 41.7772C54.9762 41.6419 55.0166 41.4922 55.0228 41.3393C55.029 41.1863 55.0009 41.0339 54.9405 40.8932L53.5952 37.7584C53.5027 37.5428 53.3391 37.3654 53.1317 37.2558C52.9242 37.1463 52.6855 37.1112 52.4552 37.1564L49.1082 37.8125C48.9581 37.8419 48.8165 37.9045 48.6937 37.9957C48.5709 38.087 48.4701 38.2045 48.3986 38.3398L46.1062 42.6787C45.4996 41.6192 45.1859 40.4173 45.1972 39.1965C45.2085 37.9757 45.5444 36.7799 46.1704 35.7318C46.7965 34.6837 47.6901 33.821 48.7597 33.2324C49.8292 32.6437 51.0362 32.3502 52.2566 32.382C52.4476 32.3874 52.6362 32.3391 52.8011 32.2427C52.966 32.1462 53.1006 32.0055 53.1896 31.8365C54.504 29.3531 55.8175 26.8689 57.13 24.3841C58.4425 21.8992 59.756 19.4154 61.0704 16.9327C61.1599 16.764 61.2004 16.5736 61.1875 16.383C61.1745 16.1924 61.1086 16.0093 60.9972 15.8542C60.2826 14.864 59.8445 13.7014 59.7279 12.4858C59.6113 11.2703 59.8204 10.0456 60.3338 8.93767C60.8471 7.82969 61.6461 6.87835 62.6488 6.18138C63.6515 5.4844 64.8216 5.06692 66.039 4.97183L63.7429 9.31202C63.6712 9.44744 63.6309 9.5972 63.6247 9.75028C63.6185 9.90337 63.6468 10.0559 63.7073 10.1966L65.0526 13.3277C65.1451 13.543 65.3085 13.7201 65.5156 13.8296C65.7227 13.9391 65.9611 13.9744 66.1911 13.9295L69.5377 13.2775C69.688 13.2483 69.8299 13.1857 69.9529 13.0944C70.0759 13.0032 70.1768 12.8855 70.2484 12.7502L72.5421 8.40996C73.1169 9.41716 73.4284 10.553 73.448 11.7125C73.4676 12.872 73.1946 14.0178 72.6541 15.0438Z" fill="#0077C1"/>
</g>
<defs>
<clipPath id="clip0_110_3383">
<rect width="75" height="75" fill="white" transform="translate(0.5)"/>
</clipPath>
</defs>
</svg>
