<svg width="76" height="75" viewBox="0 0 76 75" fill="none" xmlns="http://www.w3.org/2000/svg">
<g clip-path="url(#clip0_110_1083)">
<path d="M19.255 19.7874L18.3767 24.713C18.3189 25.0374 18.4076 25.3704 18.6193 25.6233C18.831 25.8763 19.1434 26.0222 19.473 26.0222H56.5283C56.8585 26.0222 57.1709 25.8763 57.3826 25.6233C57.5943 25.3704 57.683 25.0374 57.6252 24.713L56.7463 19.7874C56.6519 19.2564 56.1896 18.8696 55.65 18.8696H20.3513C19.8117 18.8691 19.3494 19.2564 19.255 19.7874ZM55.1985 23.7946H50.4641L50.166 21.0972H54.7173L55.1985 23.7946ZM48.2228 23.7946H39.115V21.0972H47.9252L48.2228 23.7946ZM36.8869 21.0972V23.7946H27.7791L28.0767 21.0972H36.8869ZM21.284 21.0972H25.8353L25.5378 23.7946H20.8034L21.284 21.0972Z" fill="#0077C1"/>
<path d="M29.3128 51.6129C31.6056 51.6129 33.4023 49.2108 33.4023 46.1443C33.4023 43.0779 31.6056 40.6758 29.3128 40.6758C27.0194 40.6758 25.2227 43.0779 25.2227 46.1443C25.2227 49.2108 27.0194 51.6129 29.3128 51.6129ZM29.3128 42.9034C30.1928 42.9034 31.1741 44.2343 31.1741 46.1443C31.1741 48.0543 30.1928 49.3853 29.3128 49.3853C28.4321 49.3853 27.4508 48.0543 27.4508 46.1443C27.4508 44.2343 28.4321 42.9034 29.3128 42.9034Z" fill="#0077C1"/>
<path d="M46.6911 40.6758C44.3977 40.6758 42.6016 43.0779 42.6016 46.1443C42.6016 49.2108 44.3977 51.6129 46.6911 51.6129C48.9845 51.6129 50.7806 49.2108 50.7806 46.1443C50.7806 43.0779 48.9845 40.6758 46.6911 40.6758ZM46.6911 49.3853C45.8105 49.3853 44.8292 48.0543 44.8292 46.1443C44.8292 44.2343 45.8105 42.9034 46.6911 42.9034C47.5717 42.9034 48.5531 44.2343 48.5531 46.1443C48.5531 48.0543 47.5717 49.3853 46.6911 49.3853Z" fill="#0077C1"/>
<path d="M1.61408 63.8435C4.38755 63.8435 5.74768 64.5096 7.18791 65.2151C8.71799 65.9641 10.4518 66.8138 13.7419 66.8138C17.0321 66.8138 18.7665 65.9641 20.2965 65.2151C21.7362 64.5096 23.0969 63.8435 25.8704 63.8435C28.6444 63.8435 30.0045 64.5096 31.4448 65.2151C32.9748 65.9641 34.7086 66.8138 37.9988 66.8138C41.289 66.8138 43.0233 65.9641 44.5534 65.2151C45.993 64.5096 47.3537 63.8435 50.1278 63.8435C52.9018 63.8435 54.262 64.5096 55.7022 65.2151C57.2323 65.9641 58.9666 66.8138 62.2568 66.8138C65.547 66.8138 67.2813 65.9641 68.8114 65.2151C70.2516 64.5096 71.6117 63.8435 74.3863 63.8435C75.0015 63.8435 75.4999 63.3446 75.4999 62.7295C75.4999 62.1143 75.0015 61.6154 74.3863 61.6154C71.0956 61.6154 69.3613 62.4651 67.8318 63.2147C67.2304 63.5088 66.6421 63.7955 65.9601 64.0306L69.7755 39.1037C69.8585 38.5647 69.5381 38.0452 69.0197 37.8758L64.9782 36.5592L61.2995 15.9375H62.3466C62.9617 15.9375 63.4607 15.4391 63.4607 14.824C63.4607 14.2089 62.9617 13.7099 62.3466 13.7099H47.1992L46.5481 4.20048C46.5189 3.77018 46.2437 3.39596 45.842 3.2386C40.7854 1.2645 35.215 1.26393 30.1579 3.2386C30.1464 3.24318 30.135 3.24776 30.1235 3.25291C29.7396 3.41713 29.4798 3.78334 29.4512 4.20048L28.8 13.7099H22.951C22.3359 13.7099 21.8369 14.2089 21.8369 14.824C21.8369 15.4391 22.3359 15.9375 22.951 15.9375H59.037L62.5761 35.7764L38.3455 27.8823C38.1212 27.8096 37.8798 27.8096 37.6555 27.8823L13.4255 35.7764L16.9629 15.9375H18.4952C19.1103 15.9375 19.6093 15.4391 19.6093 14.824C19.6093 14.2089 19.1103 13.7099 18.4952 13.7099H13.6544C13.0393 13.7099 12.5403 14.2089 12.5403 14.824C12.5403 15.4391 13.0393 15.9375 13.6544 15.9375H14.6998L11.0228 36.5592L6.98078 37.8758C6.46236 38.0452 6.1425 38.5642 6.2249 39.1037L10.0392 64.0306C9.35714 63.7955 8.76891 63.5088 8.16753 63.2141C6.63803 62.4651 4.90425 61.6154 1.61408 61.6154C0.998961 61.6154 0.5 62.1143 0.5 62.7295C0.5 63.3446 0.998961 63.8435 1.61408 63.8435ZM44.3748 5.07137L44.5225 7.22286C42.4007 6.65294 40.2132 6.36398 37.9988 6.36398C35.7861 6.36398 33.5997 6.65237 31.4768 7.22171L31.6244 5.0708C35.7615 3.62427 40.2378 3.62427 44.3748 5.07137ZM31.3149 9.58548C33.4789 8.92631 35.7237 8.59157 37.9988 8.59157C40.2762 8.59157 42.5209 8.92688 44.6838 9.5872L44.9665 13.7099H31.0328L31.3149 9.58548ZM66.9626 42.7596L62.9703 41.4589C62.3855 41.2684 61.7567 41.5883 61.5661 42.173C61.3756 42.7578 61.6954 43.3867 62.2802 43.5772L66.621 44.9911L63.6312 64.5239C63.2129 64.5639 62.7586 64.5863 62.2568 64.5863C59.4827 64.5863 58.122 63.9196 56.6824 63.2147C55.1523 62.4651 53.4179 61.6159 50.1278 61.6159C46.837 61.6159 45.1033 62.4651 43.5732 63.2147C42.3412 63.8178 41.1648 64.3911 39.1146 64.5451V36.0287L57.5069 42.0214C58.0917 42.2125 58.7206 41.8927 58.9111 41.3079C59.1016 40.7225 58.7824 40.0942 58.197 39.9037L39.1146 33.6861V30.4761L67.4306 39.7011L66.9626 42.7596ZM36.8864 30.4761V33.6861L9.03785 42.7596L8.57036 39.7011L36.8864 30.4761ZM9.37945 44.9911L36.8864 36.0287V64.5451C34.8339 64.3917 33.6575 63.8184 32.4249 63.2147C30.8949 62.4651 29.1605 61.6154 25.8704 61.6154C22.5802 61.6154 20.8464 62.4651 19.3163 63.2147C17.8761 63.9196 16.516 64.5857 13.7419 64.5857C13.2407 64.5857 12.7864 64.5634 12.3681 64.5239L9.37945 44.9911Z" fill="#0077C1"/>
<path d="M74.3858 68.0366C71.0956 68.0366 69.3613 68.8858 67.8312 69.6354C66.3915 70.3403 65.0308 71.0069 62.2568 71.0069C59.4827 71.0069 58.122 70.3403 56.6824 69.6354C55.1523 68.8858 53.4179 68.0366 50.1278 68.0366C46.837 68.0366 45.1033 68.8858 43.5732 69.6354C42.133 70.3403 40.7728 71.0069 37.9988 71.0069C35.2253 71.0069 33.8652 70.3403 32.4249 69.6354C30.8949 68.8858 29.1611 68.0366 25.8709 68.0366C22.5808 68.0366 20.8464 68.8858 19.3163 69.6354C17.8767 70.3403 16.516 71.0069 13.7425 71.0069C10.9685 71.0069 9.60834 70.3403 8.1681 69.6354C6.63803 68.8858 4.90425 68.0366 1.61408 68.0366C0.998961 68.0366 0.5 68.535 0.5 69.1501C0.5 69.7652 0.998961 70.2642 1.61408 70.2642C4.38755 70.2642 5.74768 70.9303 7.18791 71.6358C8.71799 72.3848 10.4518 73.2345 13.7419 73.2345C17.0321 73.2345 18.7665 72.3848 20.2965 71.6358C21.7362 70.9303 23.0969 70.2642 25.8704 70.2642C28.6444 70.2642 30.0045 70.9303 31.4448 71.6358C32.9748 72.3848 34.7086 73.2345 37.9988 73.2345C41.289 73.2345 43.0233 72.3848 44.5534 71.6358C45.993 70.9303 47.3537 70.2642 50.1278 70.2642C52.9018 70.2642 54.262 70.9303 55.7022 71.6358C57.2323 72.3848 58.9666 73.2345 62.2568 73.2345C65.547 73.2345 67.2813 72.3848 68.8114 71.6358C70.2516 70.9303 71.6117 70.2642 74.3863 70.2642C75.0015 70.2642 75.4999 69.7652 75.4999 69.1501C75.4999 68.535 75.0009 68.0366 74.3858 68.0366Z" fill="#0077C1"/>
</g>
<defs>
<clipPath id="clip0_110_1083">
<rect width="75" height="75" fill="white" transform="translate(0.5)"/>
</clipPath>
</defs>
</svg>
