<svg width="76" height="75" viewBox="0 0 76 75" fill="none" xmlns="http://www.w3.org/2000/svg">
<path fill-rule="evenodd" clip-rule="evenodd" d="M59.1019 70.6056H16.9017C13.7305 70.6056 11.1103 68.2972 10.8061 65.2344L8.53085 42.2499C8.49188 41.8524 8.78237 41.4985 9.17986 41.4594C9.57607 41.4187 9.92975 41.7093 9.97036 42.1068L12.2459 65.0929C12.4749 67.4118 14.4773 69.1601 16.9016 69.1601H59.1019C61.5261 69.1601 63.5287 67.4118 63.7576 65.0929L66.0331 42.1068C66.0738 41.7093 66.4274 41.4187 66.8234 41.4594C67.221 41.4985 67.5116 41.8524 67.4724 42.2499L65.1974 65.2344C64.8931 68.2972 62.2729 70.6056 59.1019 70.6056Z" fill="#0077C1"/>
<path fill-rule="evenodd" clip-rule="evenodd" d="M7.29929 34.0461C6.77073 34.0461 6.34006 34.4768 6.34006 35.0053L6.34014 40.497C6.34014 41.0255 6.77069 41.4547 7.29929 41.4547H68.7017C69.2303 41.4547 69.6606 41.0255 69.6606 40.497L69.6609 35.0053C69.6609 34.4768 69.23 34.0461 68.7014 34.0461H7.29929ZM68.7017 42.9002H7.29929C5.97422 42.9002 4.89453 41.8221 4.89453 40.497L4.89483 35.0053C4.89483 33.6787 5.97413 32.6006 7.29929 32.6006H68.7017C70.0268 32.6006 71.1062 33.6787 71.1062 35.0053L71.1062 40.497C71.1062 41.8221 70.0266 42.9002 68.7017 42.9002Z" fill="#0077C1"/>
<path fill-rule="evenodd" clip-rule="evenodd" d="M47.8501 70.6055C47.4509 70.6055 47.127 70.2834 47.127 69.8828V61.1521C47.127 59.5575 45.8291 58.261 44.2359 58.261H31.7667C30.1732 58.261 28.8753 59.5575 28.8753 61.1521V69.8828C28.8753 70.2834 28.5515 70.6055 28.1525 70.6055C27.7535 70.6055 27.4297 70.2834 27.4297 69.8828L27.4299 61.1521C27.4299 58.7609 29.3752 56.8154 31.7664 56.8154H44.236C46.6273 56.8154 48.5726 58.7609 48.5726 61.1521L48.5727 69.8828C48.5727 70.2834 48.2489 70.6055 47.8501 70.6055Z" fill="#0077C1"/>
<path fill-rule="evenodd" clip-rule="evenodd" d="M23.5177 50.0922H18.4221C18.0217 50.0922 17.6992 49.7701 17.6992 49.3695L17.6995 42.1778C17.6995 41.7788 18.0215 41.4551 18.422 41.4551C18.8213 41.4551 19.1447 41.7788 19.1447 42.1778L19.1448 48.6467H22.7951V42.1778C22.7951 41.7788 23.1186 41.4551 23.5176 41.4551C23.9182 41.4551 24.2404 41.7788 24.2404 42.1778V49.3695C24.2404 49.7701 23.9182 50.0923 23.5177 50.0922Z" fill="#0077C1"/>
<path fill-rule="evenodd" clip-rule="evenodd" d="M57.5817 50.0922H52.4847C52.0843 50.0922 51.7617 49.7701 51.7617 49.3695V42.1778C51.7617 41.7788 52.084 41.4551 52.4845 41.4551C52.8838 41.4551 53.2073 41.7788 53.2073 42.1778L53.2074 48.6467H56.859V42.1778C56.859 41.7788 57.1811 41.4551 57.5816 41.4551C57.9808 41.4551 58.3044 41.7788 58.3044 42.1778L58.3047 49.3695C58.3047 49.7701 57.9807 50.0923 57.5817 50.0922Z" fill="#0077C1"/>
<path fill-rule="evenodd" clip-rule="evenodd" d="M5.61834 18.9687C5.53399 18.9687 5.44813 18.9536 5.36535 18.922C5.08537 18.818 4.89856 18.5515 4.89553 18.2534C4.85362 14.132 6.13175 10.8404 8.69464 8.4657C12.2169 5.20262 17.9432 3.8911 25.7132 4.56719C25.8504 4.57926 25.9798 4.63047 26.0897 4.71326C27.8544 6.06397 28.2369 6.20852 30.1884 5.44203C30.2728 5.4089 30.3631 5.39238 30.4535 5.39238H33.3207C34.3266 5.39238 35.1455 6.16185 35.1455 7.10746V12.2211C35.1455 13.1683 34.3264 13.9378 33.3205 13.9378L30.4538 13.9378C30.2592 13.9378 30.074 13.8595 29.9385 13.7224C29.2398 13.0132 28.2023 12.2197 27.2145 12.4651C26.3579 12.6789 25.6078 13.6668 25.1576 15.1755C25.0434 15.558 24.6411 15.7764 24.2585 15.6619C23.8762 15.5475 23.6593 15.1455 23.7722 14.763C24.3824 12.7211 25.4798 11.4065 26.8652 11.0632C27.7372 10.8449 29.1043 10.9292 30.7486 12.4922L33.3207 12.4922C33.5375 12.4922 33.7 12.3492 33.7 12.2212L33.7002 7.10746C33.7002 6.97943 33.5373 6.83795 33.3205 6.83795L30.5876 6.8379C28.1526 7.7685 27.21 7.37247 25.3804 5.99018C18.1392 5.39086 12.8567 6.58042 9.67641 9.5258C7.8365 11.2304 6.75067 13.5011 6.43595 16.2913C9.90254 12.6894 12.6595 11.1265 14.8308 11.5195C16.2568 11.7784 17.3409 12.8506 18.0547 14.7103C18.1978 15.0822 18.011 15.5008 17.639 15.6439C17.2657 15.7869 16.8485 15.6002 16.7055 15.2282C16.1772 13.8535 15.4798 13.1066 14.5733 12.9425C13.2784 12.709 10.7682 13.5207 6.15887 18.7247C6.02051 18.8828 5.82154 18.9687 5.61834 18.9687Z" fill="#0077C1"/>
<path fill-rule="evenodd" clip-rule="evenodd" d="M18.1019 18.3258H23.7413V15.6922H18.1019V18.3258ZM24.464 19.7714H17.3792C16.9801 19.7714 16.6562 19.4477 16.6562 19.0486L16.6566 14.9694C16.6566 14.5703 16.98 14.2466 17.379 14.2466L24.464 14.2466C24.8631 14.2466 25.1866 14.5704 25.1866 14.9694V19.0486C25.1866 19.4476 24.8629 19.7714 24.464 19.7714Z" fill="#0077C1"/>
<path fill-rule="evenodd" clip-rule="evenodd" d="M17.9848 33.7195C17.5857 33.7195 17.2617 33.3972 17.2617 32.9982L17.2618 19.0484C17.2618 18.6494 17.5855 18.3257 17.9845 18.3257C18.3836 18.3257 18.7073 18.6494 18.7073 19.0484L18.7075 32.9982C18.7075 33.3972 18.3836 33.7195 17.9848 33.7195ZM23.8197 33.7195C23.4206 33.7195 23.0967 33.3972 23.0967 32.9982V19.0484C23.0967 18.6494 23.4205 18.3257 23.8195 18.3257C24.2188 18.3257 24.5423 18.6494 24.5423 19.0484L24.5424 32.9982C24.5424 33.3972 24.2186 33.7195 23.8197 33.7195Z" fill="#0077C1"/>
<path fill-rule="evenodd" clip-rule="evenodd" d="M30.778 34.0462C30.7161 34.0462 30.6528 34.0387 30.5911 34.0221C30.2058 33.9182 29.9767 33.5222 30.0791 33.1367L31.5851 27.5201C31.6349 27.3364 31.755 27.1783 31.9207 27.0819C32.0878 26.9855 32.2851 26.96 32.4688 27.0096L40.9361 29.2774C41.3217 29.3812 41.5503 29.7773 41.4464 30.1628L40.5492 33.5102C40.4469 33.8956 40.0505 34.1245 39.6651 34.0221C39.2783 33.9182 39.0507 33.5222 39.153 33.1367L39.8624 30.488L32.7943 28.5937L31.4766 33.5102C31.3892 33.8339 31.097 34.0462 30.778 34.0462Z" fill="#0077C1"/>
<path fill-rule="evenodd" clip-rule="evenodd" d="M38.1963 30.0154C38.1347 30.0154 38.0711 30.0078 38.0079 29.9913C37.6227 29.8873 37.3935 29.4913 37.4974 29.1059L41.0663 15.7855L40.5754 14.7541L39.6359 15.4016L36.0656 28.7219C35.9632 29.1074 35.5655 29.3362 35.18 29.2339C34.7947 29.13 34.5657 28.7339 34.6696 28.3485L38.3078 14.7706C38.3528 14.6035 38.4551 14.459 38.5967 14.3611L40.4551 13.0841C40.6283 12.9637 40.8464 12.9261 41.0512 12.9818C41.2547 13.036 41.4246 13.1775 41.5164 13.3688L42.4863 15.4031C42.5601 15.5597 42.5765 15.7359 42.5313 15.9015L38.8936 29.4793C38.8075 29.803 38.5153 30.0154 38.1963 30.0154Z" fill="#0077C1"/>
<path fill-rule="evenodd" clip-rule="evenodd" d="M52.6632 20.1281H45.2894C44.8903 20.1281 44.5664 19.8044 44.5664 19.4054V5.11831C44.5664 4.7193 44.8902 4.39555 45.2892 4.39555L55.9069 4.39551C55.9608 4.39551 56.0135 4.40156 56.0663 4.41367L65.9911 6.67085C66.0436 6.68283 66.0948 6.70095 66.1445 6.72505L70.6951 8.91894C70.9451 9.03945 71.1046 9.29239 71.1046 9.56952L71.1047 14.9543C71.1047 15.2539 70.9194 15.5234 70.6393 15.6303L61.0987 19.2699C60.7254 19.4113 60.308 19.2247 60.165 18.8513C60.0237 18.4778 60.2101 18.0607 60.5821 17.9191L69.6593 14.4573V10.0227L65.5906 8.06218L55.8253 5.84112H46.0121V18.6826H52.6632C53.0623 18.6826 53.3859 19.0063 53.3859 19.4054C53.3862 19.8044 53.0621 20.1281 52.6632 20.1281Z" fill="#0077C1"/>
<path fill-rule="evenodd" clip-rule="evenodd" d="M53.3873 25.603H60.1197V15.8981C60.1197 15.0564 59.4342 14.3728 58.5925 14.3728L54.9126 14.3728C54.0706 14.3728 53.387 15.0564 53.387 15.8981L53.3873 25.603ZM60.841 27.0486H52.6643C52.2638 27.0486 51.9414 26.7248 51.9414 26.3258L51.9416 15.8981C51.9416 14.2599 53.274 12.9272 54.9123 12.9272H58.5927C60.2308 12.9272 61.5635 14.2599 61.5635 15.8981L61.5637 26.3258C61.5637 26.7248 61.2412 27.0486 60.841 27.0486Z" fill="#0077C1"/>
<path fill-rule="evenodd" clip-rule="evenodd" d="M53.684 34.046C53.2849 34.046 52.9609 33.7223 52.9609 33.3233L52.961 26.3258C52.961 25.9267 53.2847 25.603 53.6837 25.603C54.0845 25.603 54.4065 25.9267 54.4065 26.3258L54.4067 33.3233C54.4067 33.7223 54.0843 34.046 53.684 34.046ZM59.8184 34.046C59.418 34.046 59.0956 33.7223 59.0956 33.3233L59.0958 26.3258C59.0958 25.9267 59.4178 25.603 59.8184 25.603C60.2176 25.603 60.5412 25.9267 60.5412 26.3258L60.5415 33.3233C60.5415 33.7223 60.2174 34.046 59.8184 34.046Z" fill="#0077C1"/>
<path fill-rule="evenodd" clip-rule="evenodd" d="M65.8324 17.4133C65.4319 17.4133 65.1094 17.0896 65.1094 16.6905V7.37564C65.1094 6.97658 65.4316 6.65283 65.8321 6.65283C66.2315 6.65283 66.5549 6.97663 66.5549 7.37564L66.555 16.6905C66.555 17.0896 66.2312 17.4133 65.8324 17.4133Z" fill="#0077C1"/>
<path fill-rule="evenodd" clip-rule="evenodd" d="M49.1005 20.1281C48.7013 20.1281 48.3789 19.8044 48.3789 19.4053L48.3792 5.11827C48.3792 4.71926 48.7011 4.39551 49.1002 4.39551C49.5009 4.39546 49.823 4.71926 49.823 5.11831L49.8231 19.4053C49.8231 19.8043 49.5007 20.1281 49.1005 20.1281Z" fill="#0077C1"/>
<path fill-rule="evenodd" clip-rule="evenodd" d="M55.14 9.32989H53.1644C52.7653 9.32989 52.4414 9.00618 52.4414 8.60713C52.4414 8.20807 52.7652 7.88428 53.1642 7.88428H55.14C55.5391 7.88428 55.8626 8.20812 55.8626 8.60713C55.8627 9.00618 55.5389 9.32989 55.14 9.32989Z" fill="#0077C1"/>
<path fill-rule="evenodd" clip-rule="evenodd" d="M63.0461 11.6849H61.0706C60.6702 11.6849 60.3477 11.3611 60.3477 10.9621C60.3479 10.5615 60.6699 10.2393 61.0705 10.2393L63.0461 10.2393C63.4453 10.2393 63.7688 10.5615 63.7688 10.9621C63.7688 11.3611 63.4451 11.6849 63.0461 11.6849Z" fill="#0077C1"/>
<path fill-rule="evenodd" clip-rule="evenodd" d="M32.1253 51.1672H43.872V48.5486H32.1253V51.1672ZM44.595 52.6127H31.4026C31.0035 52.6127 30.6797 52.289 30.6797 51.8899L30.6799 47.8257C30.6799 47.4267 31.0034 47.103 31.4025 47.103H44.595C44.9941 47.103 45.3176 47.4267 45.3176 47.8257L45.3177 51.8899C45.3177 52.289 44.9939 52.6127 44.595 52.6127Z" fill="#0077C1"/>
</svg>
