<svg width="76" height="75" viewBox="0 0 76 75" fill="none" xmlns="http://www.w3.org/2000/svg">
<path d="M57.2946 46.4886C56.1355 46.7386 54.9537 46.3863 54.1128 45.5454L45.5559 36.9886L63.8173 18.7272C63.9423 18.6022 64.0787 18.5113 64.2378 18.4545L68.5787 16.7045C69.1469 16.4772 69.6128 16.0568 69.9082 15.5227L73.5787 8.76131C74.1355 7.73858 73.9423 6.45449 73.1241 5.63631L70.5787 3.09085C69.7605 2.27267 68.4764 2.07949 67.4537 2.63631L60.7037 6.30676C60.1696 6.60222 59.7491 7.06813 59.5219 7.63631L57.7719 11.9772C57.7037 12.1363 57.6128 12.2727 57.4991 12.3977L39.2378 30.6704L29.8287 21.2613C28.9991 20.4318 28.6468 19.2386 28.8855 18.0795C29.8514 13.5681 28.4764 8.93176 25.215 5.6704C22.1241 2.57949 17.7037 1.15903 13.3968 1.88631C12.7491 1.99994 12.215 2.45449 12.0105 3.09085C11.8059 3.73858 11.9764 4.43176 12.4423 4.90903L17.0446 9.51131C17.4309 9.89767 17.5787 10.4659 17.4196 10.9999L16.2718 14.8977C16.1241 15.3977 15.7491 15.7727 15.2491 15.9204L11.3514 17.0568C10.8173 17.2159 10.2491 17.0681 9.86276 16.6818L5.26048 12.0795C4.78321 11.6022 4.09003 11.4318 3.4423 11.6477C2.80594 11.8522 2.35139 12.3749 2.23776 13.034C1.52185 17.3409 2.93094 21.7613 6.02185 24.8522C9.28321 28.1136 13.9196 29.4772 18.4309 28.5227C19.59 28.2727 20.7718 28.6249 21.6128 29.4659L27.215 35.0681C26.5105 35.3749 25.8741 35.8068 25.3173 36.3636L4.87412 56.8181C2.48776 59.2045 2.48776 63.0909 4.87412 65.4886L10.8059 71.409C11.9991 72.6022 13.5673 73.2045 15.1355 73.2045C16.7037 73.2045 18.2718 72.6022 19.465 71.409L39.9309 50.9431C40.4878 50.3863 40.9196 49.7386 41.2264 49.0454L45.9309 53.7499C46.7719 54.5909 47.1241 55.7613 46.8741 56.8977C45.7832 61.9772 47.6355 67.1477 51.715 70.3863C54.1582 72.3295 57.1355 73.3068 60.1241 73.3068C63.1355 73.3068 66.1355 72.3181 68.5787 70.3522C71.6469 67.8863 73.4423 64.3863 73.6582 60.4886C73.8628 56.6477 72.4309 52.8863 69.7037 50.1704C66.4537 46.8977 61.8059 45.534 57.2946 46.4886ZM58.4764 13.3749C58.7264 13.1249 58.9196 12.8295 59.0559 12.4999L60.8059 8.15903C60.9196 7.88631 61.1128 7.65903 61.3741 7.52267L68.1241 3.85222C68.6128 3.59085 69.2264 3.6704 69.6241 4.06813L72.1696 6.61358C72.5673 7.01131 72.6469 7.62494 72.3855 8.11358L68.715 14.8749C68.5787 15.1363 68.3514 15.3295 68.0787 15.4431L63.7378 17.1931C63.4082 17.3295 63.1128 17.5227 62.8628 17.7727L39.1468 41.4772L34.7605 37.0909L58.4764 13.3749ZM22.6128 28.4886C21.6923 27.5681 20.465 27.0681 19.1923 27.0681C18.8514 27.0681 18.5105 27.1022 18.1809 27.1704C14.1241 28.034 9.95366 26.7954 7.02185 23.8749C4.24912 21.1022 2.97639 17.1249 3.62412 13.2499C3.65821 13.0454 3.80594 12.9772 3.89685 12.9431C3.95366 12.9204 4.15821 12.8749 4.32866 13.0454L8.93094 17.6477C9.66957 18.3863 10.7605 18.6704 11.7718 18.3749L15.6696 17.2386C16.6128 16.9659 17.34 16.2272 17.6241 15.284L18.7718 11.3863C19.0673 10.3749 18.7832 9.28403 18.0446 8.5454L13.4423 3.94313C13.2718 3.77267 13.3287 3.57949 13.34 3.51131C13.3628 3.4204 13.4423 3.27267 13.6468 3.23858C17.5218 2.59085 21.4991 3.86358 24.2718 6.63631C27.2037 9.56813 28.4309 13.7386 27.5673 17.7954C27.2264 19.409 27.715 21.0681 28.8741 22.2272L38.2832 31.6363L33.7946 36.1249C32.6696 35.1022 31.2264 34.534 29.6923 34.534C29.3741 34.534 29.0673 34.5681 28.7718 34.6136L22.6128 28.4886ZM22.7264 66.2045L10.0673 53.5568L14.2718 49.3522L26.9309 62.0113L22.7264 66.2045ZM18.4991 70.4431C16.6468 72.2954 13.6241 72.2954 11.7718 70.4431L5.84003 64.5227C3.98776 62.659 3.98776 59.6363 5.84003 57.784L9.10139 54.5227L21.7605 67.1818L18.4991 70.4431ZM38.965 49.9659L27.8968 61.034L15.2491 48.3749L26.3173 37.3068C27.2491 36.3749 28.465 35.909 29.6809 35.909C30.8968 35.909 32.1241 36.3749 33.0446 37.3068L38.965 43.2386C39.8628 44.1363 40.3628 45.3295 40.3628 46.6022C40.3628 47.8749 39.8628 49.0681 38.965 49.9659ZM72.2946 60.409C72.1014 63.909 70.4878 67.0568 67.7264 69.2727C63.34 72.7954 56.9764 72.8181 52.5673 69.3068C48.8969 66.3863 47.2264 61.7386 48.215 57.1704C48.5559 55.5795 48.0673 53.9318 46.8969 52.7727L41.6582 47.534C41.7037 47.2272 41.7378 46.9204 41.7378 46.6136C41.7378 45.0568 41.1582 43.6022 40.1128 42.4659L44.6014 37.9772L53.1582 46.534C54.3173 47.6931 55.9764 48.1818 57.59 47.8409C61.6469 46.9772 65.8173 48.2159 68.7491 51.1363C71.1809 53.5681 72.4764 56.9545 72.2946 60.409Z" fill="#0077C1"/>
<path d="M63.7589 51.716C63.0316 50.9888 61.9748 50.7047 60.9862 50.9774L54.9975 52.5797C54.0089 52.841 53.2248 53.6251 52.9634 54.6138L51.3612 60.6024C51.0998 61.591 51.3839 62.6592 52.0998 63.3751L56.4862 67.7615C57.0316 68.307 57.7703 68.6024 58.5203 68.6024C58.7703 68.6024 59.0203 68.5683 59.2589 68.5001L65.2475 66.8979C66.2362 66.6365 67.0203 65.8524 67.2816 64.8638L68.8839 58.8751C69.1453 57.8865 68.8612 56.8183 68.1453 56.1024L63.7589 51.716ZM67.5657 58.5342L65.9635 64.5229C65.8271 65.0456 65.418 65.4547 64.8953 65.591L58.9066 67.1933C58.3953 67.3297 57.8271 67.182 57.4521 66.807L53.0657 62.4206C52.6907 62.0456 52.5316 61.4888 52.6794 60.966L54.2816 54.9774C54.418 54.4547 54.8271 54.0456 55.3498 53.9092L61.3385 52.307C61.4635 52.2729 61.5998 52.2615 61.7248 52.2615C62.1225 52.2615 62.5089 52.4206 62.793 52.7047L67.1794 57.091C67.5544 57.4547 67.7021 58.0115 67.5657 58.5342Z" fill="#0077C1"/>
</svg>
