<svg width="76" height="76" viewBox="0 0 76 76" fill="none" xmlns="http://www.w3.org/2000/svg">
<g clip-path="url(#clip0_110_1044)">
<path d="M53.3416 17.5454H48.228C47.2883 17.5454 46.5234 18.3103 46.5234 19.25V22.659C46.5234 23.5987 47.2883 24.3636 48.228 24.3636H53.3416C54.2813 24.3636 55.0462 23.5987 55.0462 22.659V19.25C55.0462 18.3103 54.2813 17.5454 53.3416 17.5454ZM53.3416 22.659H48.228V19.25H53.3416V22.659Z" fill="#0077C1"/>
<path d="M43.1151 17.5454H38.0014C37.0618 17.5454 36.2969 18.3103 36.2969 19.25V22.659C36.2969 23.5987 37.0618 24.3636 38.0014 24.3636H43.1151C44.0547 24.3636 44.8196 23.5987 44.8196 22.659V19.25C44.8196 18.3103 44.0547 17.5454 43.1151 17.5454ZM43.1151 22.659H38.0014V19.25H43.1151V22.659Z" fill="#0077C1"/>
<path d="M32.8846 17.5454H27.771C26.8313 17.5454 26.0664 18.3103 26.0664 19.25V22.659C26.0664 23.5987 26.8313 24.3636 27.771 24.3636H32.8846C33.8243 24.3636 34.5891 23.5987 34.5891 22.659V19.25C34.5891 18.3103 33.8243 17.5454 32.8846 17.5454ZM32.8846 22.659H27.771V19.25H32.8846V22.659Z" fill="#0077C1"/>
<path d="M14.1533 66.125H14.145C13.6747 66.125 13.2969 66.5062 13.2969 66.9773C13.2969 67.4484 13.6831 67.8295 14.1533 67.8295C14.6244 67.8295 15.0056 67.4484 15.0056 66.9773C15.0056 66.5062 14.6244 66.125 14.1533 66.125Z" fill="#0077C1"/>
<path d="M39.7197 66.125H39.7114C39.2411 66.125 38.8633 66.5062 38.8633 66.9773C38.8633 67.4484 39.2495 67.8295 39.7197 67.8295C40.1908 67.8295 40.572 67.4484 40.572 66.9773C40.572 66.5062 40.1908 66.125 39.7197 66.125Z" fill="#0077C1"/>
<path d="M31.1815 51.6365V44.8183C31.1815 43.8787 30.4166 43.1138 29.4769 43.1138H26.0678C25.1282 43.1138 24.3633 43.8787 24.3633 44.8183V51.6365C24.3633 52.5762 25.1282 53.341 26.0678 53.341H29.4769C30.4166 53.341 31.1815 52.5762 31.1815 51.6365ZM26.0678 44.8183H29.4769V51.6365H26.0678V44.8183Z" fill="#0077C1"/>
<path d="M20.9535 43.1138H17.5444C16.6047 43.1138 15.8398 43.8787 15.8398 44.8183V51.6365C15.8398 52.5762 16.6047 53.341 17.5444 53.341H20.9535C21.8931 53.341 22.658 52.5762 22.658 51.6365V44.8183C22.658 43.8787 21.8931 43.1138 20.9535 43.1138ZM20.9535 51.6365H17.5444V44.8183H20.9535V51.6365Z" fill="#0077C1"/>
<path d="M12.43 43.1138H9.02095C8.08129 43.1138 7.31641 43.8787 7.31641 44.8183V51.6365C7.31641 52.5762 8.08129 53.341 9.02095 53.341H12.43C13.3697 53.341 14.1346 52.5762 14.1346 51.6365V44.8183C14.1346 43.8787 13.3697 43.1138 12.43 43.1138ZM12.43 51.6365H9.02095V44.8183H12.43V51.6365Z" fill="#0077C1"/>
<path d="M31.1818 58.4546H29.4773C29.0062 58.4546 28.625 58.8358 28.625 59.3069C28.625 59.7779 29.0062 60.1591 29.4773 60.1591H31.1818C31.6529 60.1591 32.0341 59.7779 32.0341 59.3069C32.0341 58.8358 31.6529 58.4546 31.1818 58.4546Z" fill="#0077C1"/>
<path d="M65.4176 38.2387C63.9602 36.466 61.7954 35.4433 59.4943 35.4433H45.8324L52.3267 31.9916C52.3864 32.0086 52.4546 32.0342 52.5227 32.0342H71.4858C72.5511 32.0342 73.5653 31.6166 74.3239 30.858C75.0824 30.0995 75.5 29.0853 75.5 28.02C75.5 26.5029 74.6307 25.0967 73.2841 24.4404L70.1733 22.8808L67.7358 18.0143C67.7358 18.0058 67.7273 17.9972 67.7273 17.9887L67.6847 17.9035C66.5255 15.5853 64.1818 14.1365 61.5824 14.1365H45.7642C45.7216 14.1023 45.696 14.0597 45.6449 14.0342L33.2699 7.46314C32.0426 6.80688 30.6619 6.466 29.2727 6.466H21.8068C21.4403 6.466 21.1165 6.70461 20.9971 7.05407C20.8863 7.40348 21.0057 7.78701 21.304 8.00008L29.5966 14.1365H24.5426C23.1108 14.1365 21.7898 13.4291 20.9971 12.2444L17.7159 7.31827C16.2926 5.18759 13.9062 3.90918 11.3409 3.90918H9.02273C8.55399 3.90918 8.17045 4.29271 8.17045 4.76145V10.7274H1.35227C0.883533 10.7274 0.5 11.1109 0.5 11.5796C0.5 14.4007 2.79262 16.6933 5.61364 16.6933H8.17045V20.1535C8.17045 21.466 8.76706 22.6933 9.79827 23.5029L19.5057 31.1308C20.2557 31.7103 21.1847 32.0342 22.1307 32.0342H34.2074L26.1449 37.9916V38.0001H9.02273C6.20171 38.0001 3.90909 40.2927 3.90909 43.1137V64.6591C3.40623 64.9575 3.05682 65.4944 3.05682 66.1251V67.8296C3.05682 68.7671 3.82388 69.5342 4.76136 69.5342H9.71307C10.5994 71.0597 12.2443 72.091 14.1364 72.091C16.0284 72.091 17.6733 71.0597 18.5597 69.5342H35.2812C36.1676 71.0597 37.8125 72.091 39.7045 72.091C41.5966 72.091 43.2415 71.0597 44.1278 69.5342H49.0795C50.017 69.5342 50.7841 68.7671 50.7841 67.8296V66.1251C50.7841 65.4944 50.4347 64.9575 49.9318 64.6591V61.8637H74.6477C75.1184 61.8637 75.5 61.4825 75.5 61.0115C75.5 60.5404 75.1184 60.1592 74.6477 60.1592H65.5241C66.4314 59.5572 67.1443 58.6746 67.5227 57.6024H72.0909C73.9744 57.6024 75.5 56.0768 75.5 54.1933V51.7046C75.5 50.912 75.2273 50.145 74.7245 49.5313L65.4176 38.2387ZM65.8267 41.4092L71.4346 48.2274H61.0114C60.5426 48.2274 60.1591 47.8438 60.1591 47.3751V42.2615C60.1591 41.7927 60.5426 41.4092 61.0114 41.4092H65.8267ZM73.1136 29.6478C72.679 30.091 72.0994 30.3296 71.4858 30.3296H55.4545L58.6676 28.6251H73.7017C73.5994 29.0086 73.4034 29.358 73.1136 29.6478ZM68.1534 22.6592H59.3068C58.8381 22.6592 58.4545 22.2756 58.4545 21.8069V20.1024C58.4545 19.6336 58.8381 19.2501 59.3068 19.2501H66.4489L68.1534 22.6592ZM24.3977 8.17054H29.2727C30.3807 8.17054 31.4886 8.44328 32.4688 8.96315L42.2017 14.1365H32.4346C32.4176 14.1194 32.4006 14.0938 32.375 14.0768L24.3977 8.17054ZM5.61364 14.9887C4.02842 14.9887 2.69035 13.8978 2.31535 12.4319H9.875C11.4602 12.4319 12.7983 13.5228 13.1733 14.9887H5.61364ZM10.8551 22.1563C10.2329 21.6705 9.875 20.9376 9.875 20.1535V20.1024H16.6932C17.5199 20.1024 18.2869 20.4688 18.7983 21.1166L20.0767 22.7103C20.9119 23.7586 22.1648 24.3637 23.5114 24.3637C23.9801 24.3637 24.3636 23.9802 24.3636 23.5115C24.3636 23.0427 23.9801 22.6592 23.5114 22.6592C22.6847 22.6592 21.9176 22.2927 21.4063 21.645L20.1279 20.0512C19.2926 19.0029 18.0398 18.3978 16.6932 18.3978H9.875V16.6933H14.1364C14.6051 16.6933 14.9886 16.3097 14.9886 15.841C14.9886 13.02 12.696 10.7274 9.875 10.7274V5.61373H11.3409C13.3352 5.61373 15.1932 6.60234 16.3011 8.26428L19.5824 13.1819C20.6818 14.8438 22.5398 15.841 24.5426 15.841H61.5824C63.0739 15.841 64.4375 16.4717 65.3921 17.5455H59.3068C57.9005 17.5455 56.75 18.6961 56.75 20.1024V21.8069C56.75 23.2131 57.9005 24.3637 59.3068 24.3637H69.3296L72.5256 25.966C72.9517 26.1705 73.2756 26.5114 73.4972 26.9205H16.9062L10.8551 22.1563ZM22.1307 30.3296C21.5597 30.3296 21.0057 30.1336 20.554 29.7842L19.071 28.6251H38.8182L36.5171 30.3296H22.1307ZM41.6904 28.6251H55.0369L37.5995 37.8893C37.5483 37.9148 37.5057 37.9575 37.4631 38.0001H29.0085L41.6904 28.6251ZM5.61364 56.7501H7.31818V61.0115H5.61364V56.7501ZM9.09945 67.8296H4.76136V66.1251H9.09945C9.0568 66.4063 9.02273 66.6876 9.02273 66.9774C9.02273 67.2671 9.0568 67.5484 9.09945 67.8296ZM14.1364 70.3865C12.2528 70.3865 10.7273 68.8608 10.7273 66.9774C10.7273 65.0938 12.2528 63.5683 14.1364 63.5683C16.0199 63.5683 17.5455 65.0938 17.5455 66.9774C17.5455 68.8608 16.0199 70.3865 14.1364 70.3865ZM34.6676 67.8296H19.1733C19.2159 67.5484 19.25 67.2671 19.25 66.9774C19.25 66.6876 19.2159 66.4063 19.1733 66.1251H34.6676C34.625 66.4063 34.5909 66.6876 34.5909 66.9774C34.5909 67.2671 34.625 67.5484 34.6676 67.8296ZM39.7045 70.3865C37.821 70.3865 36.2955 68.8608 36.2955 66.9774C36.2955 65.0938 37.821 63.5683 39.7045 63.5683C41.5881 63.5683 43.1136 65.0938 43.1136 66.9774C43.1136 68.8608 41.5881 70.3865 39.7045 70.3865ZM39.7045 61.8637C37.8125 61.8637 36.1676 62.8949 35.2812 64.4205H18.5597C17.6733 62.8949 16.0284 61.8637 14.1364 61.8637C12.2443 61.8637 10.5994 62.8949 9.71307 64.4205H5.61364V62.716H8.17045C8.63919 62.716 9.02273 62.3325 9.02273 61.8637V60.1592H26.0682C26.5369 60.1592 26.9205 59.7756 26.9205 59.3069C26.9205 58.8382 26.5369 58.4546 26.0682 58.4546H9.02273V55.8978C9.02273 55.4291 8.63919 55.0455 8.17045 55.0455H5.61364V43.1137C5.61364 41.2302 7.13919 39.7046 9.02273 39.7046H40.0881C41.537 39.7046 42.8324 40.625 43.3096 41.9887L43.7017 43.1137H34.5909C33.6534 43.1137 32.8864 43.8807 32.8864 44.8183V51.6365C32.8864 52.5739 33.6534 53.341 34.5909 53.341H39.8579L40.4375 56.2302C40.5994 57.0228 41.2983 57.6024 42.108 57.6024H44.2642C44.0767 57.9944 43.9659 58.4205 43.9659 58.8808C43.9659 60.5257 45.304 61.8637 46.9489 61.8637H48.2273V64.4205H44.1278C43.2415 62.8949 41.5966 61.8637 39.7045 61.8637ZM48.0398 55.4972C48.0824 55.6251 48.1079 55.7614 48.1421 55.8978H42.108L41.392 52.3183C41.3154 51.9262 40.9659 51.6365 40.5568 51.6365H34.5909V44.8183H44.2983L48.0398 55.4972ZM44.9119 41.4092H54.1932C54.6619 41.4092 55.0455 41.7927 55.0455 42.2615V47.3751C55.0455 47.8438 54.6619 48.2274 54.1932 48.2274H47.2983L44.9205 41.4262C44.9148 41.4205 44.9119 41.4149 44.9119 41.4092ZM48.2273 57.6024V60.1592H46.9489C46.2415 60.1592 45.6705 59.5881 45.6705 58.8808C45.6705 58.1734 46.2415 57.6024 46.9489 57.6024H48.2273ZM49.0795 67.8296H44.7415C44.7841 67.5484 44.8182 67.2671 44.8182 66.9774C44.8182 66.6876 44.7841 66.4063 44.7415 66.1251H49.0795V67.8296ZM49.9318 60.1592V57.6024H50.2386C50.6171 58.6746 51.33 59.5572 52.2373 60.1592H49.9318ZM55.0455 59.3069C53.7926 59.3069 52.6932 58.6336 52.0966 57.6024H57.9091C57.9261 57.6279 57.9347 57.6535 57.9432 57.6876C57.321 58.6847 56.2387 59.3069 55.0455 59.3069ZM57.8579 60.1592C58.2335 59.91 58.5801 59.6163 58.8807 59.2728C59.1815 59.6142 59.5302 59.9087 59.909 60.1592H57.8579ZM62.7159 59.3069C61.4716 59.3069 60.3722 58.6336 59.7756 57.6024H65.6648C65.0682 58.6336 63.9687 59.3069 62.7159 59.3069ZM73.7955 54.1933C73.7955 55.1307 73.0284 55.8978 72.0909 55.8978H49.8722C49.821 55.5739 49.7528 55.2501 49.642 54.9347L49.3864 54.1933H61.0114C61.4801 54.1933 61.8636 53.8097 61.8636 53.341C61.8636 52.8723 61.4801 52.4887 61.0114 52.4887H48.7898L47.8949 49.9319H54.1932C55.5995 49.9319 56.75 48.7813 56.75 47.3751V42.2615C56.75 40.8552 55.5995 39.7046 54.1932 39.7046H43.9659C43.9403 39.7046 43.9148 39.7132 43.8892 39.7216C43.1136 38.8524 42.0654 38.2558 40.8978 38.0682L42.6449 37.1393C42.6704 37.1393 42.6875 37.1478 42.7046 37.1478H59.4943C61.2841 37.1478 62.9631 37.9404 64.1051 39.3211L64.4205 39.7046H61.0114C59.6051 39.7046 58.4545 40.8552 58.4545 42.2615V47.3751C58.4545 48.7813 59.6051 49.9319 61.0114 49.9319H72.8409L73.4034 50.6137C73.6591 50.9205 73.7955 51.3041 73.7955 51.7046V54.1933Z" fill="#0077C1"/>
</g>
<defs>
<clipPath id="clip0_110_1044">
<rect width="75" height="75" fill="white" transform="translate(0.5 0.5)"/>
</clipPath>
</defs>
</svg>
