<svg width="76" height="75" viewBox="0 0 76 75" fill="none" xmlns="http://www.w3.org/2000/svg">
<path d="M60.5894 33.9302H62.9069C64.1819 33.9302 65.2169 32.8952 65.2169 31.6202C65.2169 30.3377 64.1819 29.3027 62.9069 29.3027H59.2994C59.3812 29.0627 59.4412 28.8077 59.4412 28.5377V18.7127C59.4412 17.4677 58.4219 16.4477 57.1762 16.4477H50.3137V11.5427C50.3137 9.4577 48.6187 7.7627 46.5337 7.7627H29.4644C27.3794 7.7627 25.6844 9.4577 25.6844 11.5427V14.4227C25.3394 14.6477 24.9644 14.8802 24.5444 15.1577C24.5219 15.1727 24.4994 15.1952 24.4769 15.2102C24.4544 15.1952 24.4319 15.1727 24.4094 15.1577C21.6269 13.3352 20.4194 12.7802 20.4119 12.7802C20.1194 12.6152 18.5894 11.8577 17.6069 12.5927C17.0219 13.0427 16.8419 13.8377 17.0969 14.9627C17.1794 15.3602 17.2469 15.7127 17.2994 16.0427C17.6369 17.9027 17.9519 19.0127 20.3294 20.6252H20.0144C19.7969 20.6252 19.5944 20.7152 19.4519 20.8727C19.3094 21.0302 19.2419 21.2402 19.2644 21.4502L20.0594 29.3027H13.7519C12.4769 29.3027 11.4419 30.3377 11.4419 31.6202C11.4419 32.8952 12.4769 33.9302 13.7519 33.9302H15.4094L8.73442 66.3302C8.68942 66.5552 8.74192 66.7869 8.88442 66.9602C9.02692 67.1319 9.24442 67.2377 9.46942 67.2377H11.2844C11.6219 67.2377 11.9144 67.0119 12.0044 66.6902L21.2369 33.9302H25.6844V36.1652C25.6844 38.1002 27.1469 39.6752 29.0219 39.9002H29.6497V43.8894H26.9519C25.6169 43.8894 24.5369 44.9769 24.5369 46.3052C24.5369 47.6394 25.6169 48.7202 26.9519 48.7202H35.6444V63.3827C32.4494 63.6827 29.7644 64.6134 28.3694 65.9402C28.1444 66.1502 28.0769 66.4802 28.1894 66.7652C28.3019 67.0509 28.5794 67.2384 28.8869 67.2384H47.1119H47.1269C47.5394 67.2384 47.8769 66.9009 47.8769 66.4884C47.8769 66.2252 47.7419 65.9934 47.5394 65.8577C46.1219 64.5677 43.4819 63.6834 40.3469 63.3827V48.7202H49.0469C50.3812 48.7202 51.4619 47.6402 51.4619 46.3052C51.4619 44.9769 50.3819 43.8894 49.0469 43.8894H46.3484V39.9002H46.9762C48.8437 39.6752 50.3137 38.1002 50.3137 36.1652V33.9302H54.7612L63.9944 66.6902C64.0844 67.0127 64.3769 67.2377 64.7144 67.2377H66.5294C66.7544 67.2377 66.9719 67.1319 67.1144 66.9602C67.2562 66.7877 67.3094 66.5552 67.2637 66.3302L60.5894 33.9302ZM57.1762 17.9499C57.5977 17.9499 57.9404 18.2927 57.9404 18.7142V28.5399C57.9404 28.9614 57.5977 29.3034 57.1762 29.3034H40.4234C40.0019 29.3034 39.6592 28.9614 39.6592 28.5399V18.7134C39.6592 18.2919 40.0019 17.9492 40.4234 17.9492H57.1762V17.9499ZM27.1867 11.5419C27.1867 10.2857 28.2082 9.26494 29.4637 9.26494H46.5329C47.7892 9.26494 48.8107 10.2857 48.8107 11.5419V16.4499H40.4234C39.1754 16.4499 38.1599 17.4654 38.1599 18.7142V28.5399C38.1599 28.8092 38.2147 29.0634 38.3017 29.3034H28.8929L29.6894 21.4502C29.7104 21.2394 29.6422 21.0294 29.4997 20.8719C29.3579 20.7152 29.1554 20.6252 28.9432 20.6252H28.6229C31.0027 19.0142 31.3192 17.9042 31.6522 16.0412C31.7107 15.7142 31.7737 15.3587 31.8607 14.9642C32.1089 13.8377 31.9357 13.0412 31.3447 12.5942C30.3659 11.8577 28.8352 12.6189 28.5869 12.7569C28.5569 12.7704 28.1099 12.9774 27.1874 13.5137L27.1867 11.5419ZM25.3717 16.4117C28.0282 14.6657 29.1944 14.1264 29.2514 14.0987C29.6759 13.8692 30.2932 13.7117 30.4297 13.7792C30.4312 13.7807 30.5437 13.9697 30.3959 14.6387C30.3044 15.0549 30.2369 15.4299 30.1754 15.7757C29.8304 17.7047 29.6902 18.4472 25.7122 20.6237H24.6532C24.2969 19.7252 23.6617 17.5352 25.3717 16.4117ZM28.1129 22.1237L27.3847 29.3019H21.5684L20.8409 22.1237H28.1129ZM18.7799 15.7764C18.7177 15.4314 18.6509 15.0557 18.5587 14.6387C18.4162 13.9929 18.5159 13.7934 18.5099 13.7919C18.6554 13.7199 19.2322 13.8467 19.7489 14.1212C19.7602 14.1257 20.8792 14.6462 23.3969 16.2909C22.5359 17.5989 22.6477 19.2339 23.0189 20.4992C19.2629 18.4202 19.1182 17.6687 18.7799 15.7764ZM10.7159 65.7347H10.3874L16.9402 33.9309H19.6784L10.7159 65.7347ZM44.2769 65.7347H31.7212C33.4034 65.1332 35.6287 64.7747 37.9612 64.7702H38.0377C40.3702 64.7747 42.5962 65.1339 44.2769 65.7347ZM37.1474 63.2702V48.7239H38.8507V63.2702H38.0489C38.0324 63.2702 38.0159 63.2694 38.0002 63.2694C37.9844 63.2694 37.9679 63.2702 37.9522 63.2702H37.1474ZM49.0492 45.3932C49.5539 45.3932 49.9649 45.8034 49.9649 46.3082C49.9649 46.8129 49.5539 47.2239 49.0492 47.2239H26.9489C26.4442 47.2239 26.0332 46.8129 26.0332 46.3082C26.0332 45.8034 26.4442 45.3932 26.9489 45.3932H49.0492ZM44.8492 43.8902H31.1497V39.9002H44.8492V43.8902ZM48.8114 36.1652C48.8114 37.4214 47.7899 38.4429 46.5337 38.4429H29.4644C28.2089 38.4429 27.1874 37.4214 27.1874 36.1652V33.9309H48.8122L48.8114 36.1652ZM13.7549 32.4309C13.3057 32.4309 12.9412 32.0664 12.9412 31.6164C12.9412 31.1679 13.3057 30.8019 13.7549 30.8019H62.9039C63.3532 30.8019 63.7177 31.1679 63.7177 31.6164C63.7177 32.0664 63.3532 32.4309 62.9039 32.4309H13.7549ZM65.2829 65.7347L56.3204 33.9309H59.0579L65.6107 65.7347H65.2829Z" fill="#0077C1"/>
<path d="M48.7978 26.0415C50.1298 26.0415 51.2136 24.9577 51.2136 23.6257C51.2136 22.2937 50.1306 21.21 48.7978 21.21C47.4666 21.21 46.3828 22.2937 46.3828 23.6257C46.3828 24.9577 47.4666 26.0415 48.7978 26.0415ZM48.7978 22.71C49.3026 22.71 49.7136 23.121 49.7136 23.6257C49.7136 24.1312 49.3026 24.5415 48.7978 24.5415C48.2931 24.5415 47.8828 24.1312 47.8828 23.6257C47.8836 23.121 48.2938 22.71 48.7978 22.71Z" fill="#0077C1"/>
</svg>
