<svg width="24" height="24" viewBox="0 0 24 24" fill="none" xmlns="http://www.w3.org/2000/svg">
<path d="M15.7499 3.75002C15.8484 3.74992 15.946 3.76928 16.037 3.80699C16.128 3.84471 16.2106 3.90002 16.2802 3.96977C16.3499 4.03938 16.4051 4.12203 16.4429 4.21302C16.4806 4.304 16.5 4.40153 16.5 4.50002C16.5 4.59852 16.4806 4.69604 16.4429 4.78703C16.4051 4.87801 16.3499 4.96067 16.2802 5.03027L9.31043 12L16.2802 18.9698C16.5732 19.2628 16.5732 19.7374 16.2802 20.0303C15.9871 20.3231 15.5126 20.3233 15.2197 20.0303L7.71968 12.5303C7.64999 12.4607 7.59471 12.378 7.55699 12.287C7.51927 12.196 7.49985 12.0985 7.49985 12C7.49985 11.9015 7.51927 11.804 7.55699 11.713C7.59471 11.622 7.64999 11.5394 7.71968 11.4698L15.2197 3.96977C15.2892 3.90002 15.3719 3.84471 15.4629 3.80699C15.5539 3.76928 15.6514 3.74992 15.7499 3.75002Z" fill="#D3D3D3"/>
</svg>
