<svg width="24" height="24" viewBox="0 0 24 24" fill="none" xmlns="http://www.w3.org/2000/svg">
<path d="M8.25007 20.25C8.15157 20.2501 8.05402 20.2307 7.96302 20.193C7.87203 20.1553 7.78938 20.1 7.71982 20.0302C7.65014 19.9606 7.59485 19.878 7.55713 19.787C7.51941 19.696 7.5 19.5985 7.5 19.5C7.5 19.4015 7.51941 19.304 7.55713 19.213C7.59485 19.122 7.65014 19.0393 7.71982 18.9697L14.6896 12L7.71982 5.03023C7.42676 4.73716 7.42676 4.2626 7.71982 3.96973C8.01289 3.67685 8.48745 3.67666 8.78032 3.96973L16.2803 11.4697C16.35 11.5393 16.4053 11.622 16.443 11.713C16.4807 11.804 16.5001 11.9015 16.5001 12C16.5001 12.0985 16.4807 12.196 16.443 12.287C16.4053 12.378 16.35 12.4606 16.2803 12.5302L8.78032 20.0302C8.71077 20.1 8.62812 20.1553 8.53712 20.193C8.44613 20.2307 8.34857 20.2501 8.25007 20.25Z" fill="#D3D3D3"/>
</svg>
