<svg width="24" height="24" viewBox="0 0 24 24" fill="none" xmlns="http://www.w3.org/2000/svg">
<path d="M3.35288 8.95043C4.00437 6.17301 6.17301 4.00437 8.95043 3.35288C10.9563 2.88237 13.0437 2.88237 15.0496 3.35288C17.827 4.00437 19.9956 6.17301 20.6471 8.95044C21.1176 10.9563 21.1176 13.0437 20.6471 15.0496C19.9956 17.827 17.827 19.9956 15.0496 20.6471C13.0437 21.1176 10.9563 21.1176 8.95044 20.6471C6.17301 19.9956 4.00437 17.827 3.35288 15.0496C2.88237 13.0437 2.88237 10.9563 3.35288 8.95043Z" fill="white" fill-opacity="0.15"/>
<path d="M3.35288 15.0496L2.86609 15.1638L3.35288 15.0496ZM3.35288 8.95043L2.86609 8.83625L3.35288 8.95043ZM20.6471 8.95044L20.1603 9.06462L20.6471 8.95044ZM20.6471 15.0496L20.1603 14.9354L20.6471 15.0496ZM15.0496 20.6471L14.9354 20.1603L15.0496 20.6471ZM8.95044 20.6471L9.06462 20.1603L8.95044 20.6471ZM8.95043 3.35288L9.06462 3.83966L8.95043 3.35288ZM15.0496 3.35288L14.9354 3.83966L15.0496 3.35288ZM8.02456 12.4086C7.81931 12.5933 7.80267 12.9094 7.9874 13.1147C8.17213 13.3199 8.48827 13.3366 8.69353 13.1519L8.02456 12.4086ZM10.0656 11.2443L10.4 11.616L10.0656 11.2443ZM11.627 11.4405L12.043 11.1632L11.627 11.4405ZM12.373 12.5595L11.957 12.8368V12.8368L12.373 12.5595ZM13.9344 12.7557L13.6 12.384L13.9344 12.7557ZM15.9754 11.5914C16.1807 11.4067 16.1973 11.0906 16.0126 10.8853C15.8279 10.6801 15.5117 10.6634 15.3065 10.8481L15.9754 11.5914ZM13.0746 13.2875L13.0122 13.7836L13.0746 13.2875ZM10.9254 10.7125L10.8631 11.2086H10.8631L10.9254 10.7125ZM3.83966 14.9354C3.38678 13.0047 3.38678 10.9953 3.83966 9.06462L2.86609 8.83625C2.37797 10.9172 2.37797 13.0828 2.86609 15.1638L3.83966 14.9354ZM20.1603 9.06462C20.6132 10.9953 20.6132 13.0047 20.1603 14.9354L21.1339 15.1638C21.622 13.0828 21.622 10.9172 21.1339 8.83625L20.1603 9.06462ZM14.9354 20.1603C13.0047 20.6132 10.9953 20.6132 9.06462 20.1603L8.83625 21.1339C10.9172 21.622 13.0828 21.622 15.1638 21.1339L14.9354 20.1603ZM9.06462 3.83966C10.9953 3.38678 13.0047 3.38678 14.9354 3.83966L15.1638 2.86609C13.0828 2.37797 10.9172 2.37797 8.83625 2.86609L9.06462 3.83966ZM9.06462 20.1603C6.47208 19.5522 4.44779 17.5279 3.83966 14.9354L2.86609 15.1638C3.56095 18.1261 5.87395 20.4391 8.83625 21.1339L9.06462 20.1603ZM15.1638 21.1339C18.1261 20.4391 20.4391 18.1261 21.1339 15.1638L20.1603 14.9354C19.5522 17.5279 17.5279 19.5522 14.9354 20.1603L15.1638 21.1339ZM14.9354 3.83966C17.5279 4.44779 19.5522 6.47207 20.1603 9.06462L21.1339 8.83625C20.4391 5.87395 18.1261 3.56095 15.1638 2.86609L14.9354 3.83966ZM8.83625 2.86609C5.87394 3.56095 3.56095 5.87394 2.86609 8.83625L3.83966 9.06462C4.44779 6.47207 6.47207 4.44779 9.06462 3.83966L8.83625 2.86609ZM8.69353 13.1519L10.4 11.616L9.73107 10.8727L8.02456 12.4086L8.69353 13.1519ZM11.211 11.7179L11.957 12.8368L12.789 12.2821L12.043 11.1632L11.211 11.7179ZM14.2689 13.1273L15.9754 11.5914L15.3065 10.8481L13.6 12.384L14.2689 13.1273ZM11.957 12.8368C12.1037 13.057 12.2424 13.2671 12.3785 13.4197C12.524 13.5829 12.7237 13.7473 13.0122 13.7836L13.1369 12.7914C13.1894 12.798 13.1936 12.8312 13.1248 12.7542C13.0467 12.6666 12.9526 12.5275 12.789 12.2821L11.957 12.8368ZM13.6 12.384C13.3807 12.5813 13.2551 12.6928 13.1578 12.7583C13.0721 12.816 13.0843 12.7848 13.1369 12.7914L13.0122 13.7836C13.3008 13.8199 13.535 13.7099 13.7163 13.5878C13.8859 13.4736 14.0722 13.3043 14.2689 13.1273L13.6 12.384ZM10.4 11.616C10.6193 11.4187 10.7449 11.3072 10.8422 11.2417C10.9279 11.184 10.9157 11.2152 10.8631 11.2086L10.9878 10.2164C10.6992 10.1801 10.465 10.2901 10.2837 10.4122C10.1141 10.5264 9.92777 10.6957 9.73107 10.8727L10.4 11.616ZM12.043 11.1632C11.8963 10.943 11.7576 10.7329 11.6215 10.5803C11.476 10.4171 11.2763 10.2527 10.9878 10.2164L10.8631 11.2086C10.8106 11.202 10.8064 11.1688 10.8752 11.2458C10.9533 11.3334 11.0474 11.4725 11.211 11.7179L12.043 11.1632Z" fill="white"/>
</svg>
