<svg width="59" height="59" viewBox="0 0 59 59" fill="none" xmlns="http://www.w3.org/2000/svg">
<path d="M29.5 58.8437C45.706 58.8437 58.8437 45.706 58.8437 29.5C58.8437 13.2939 45.706 0.15625 29.5 0.15625C13.2939 0.15625 0.15625 13.2939 0.15625 29.5C0.15625 45.706 13.2939 58.8437 29.5 58.8437Z" fill="#EE4A68"/>
<path d="M42.4335 13.949C43.7229 17.2311 43.4885 20.8649 43.3322 24.3814C43.1759 27.898 43.215 31.6099 44.9733 34.6576C45.7938 36.1033 50.4825 40.8702 49.3494 43.3708C30.7898 39.2291 38.4872 18.0907 42.4335 13.949Z" fill="#633C22"/>
<path d="M41.8086 14.0271C42.9026 16.098 43.1371 18.8331 42.004 20.8649C40.0112 24.4987 41.0271 26.9602 40.9099 28.4841C40.7145 30.4377 38.6828 32.1569 39.0735 34.0715C40.0112 38.6039 38.9563 38.0569 38.8391 38.0569C31.1808 37.5099 37.9013 14.3006 39.2298 13.5192C39.6987 13.2457 41.2616 12.5424 41.8086 14.0271Z" fill="#7C4F30"/>
<path d="M17.8957 26.1787C19.2242 28.6012 18.5208 31.688 16.6063 33.6416C15.7467 34.5012 14.6526 35.1264 13.9493 36.0641C12.5036 37.9006 12.6599 40.4403 12.8944 42.7065C27.1559 36.7675 19.9275 26.7257 17.8957 26.1787Z" fill="#633C22"/>
<path d="M19.458 17.7781C19.458 17.7781 14.8084 25.1238 18.7938 29.3436C22.7792 33.5635 19.458 39.9715 19.458 39.9715L27.507 32.9774L19.458 17.7781Z" fill="#7C4F30"/>
<path d="M21.8789 33.6026L24.2233 32.5085L23.5981 37.9397L21.8789 33.6026Z" fill="#8CA5A8"/>
<path d="M37.1178 33.6026L34.7734 32.5085L35.3986 37.9397L37.1178 33.6026Z" fill="#8CA5A8"/>
<path d="M19.496 36.7676L6.13311 42.1596L5 45.6762C10.2358 53.608 19.2616 58.8828 29.4987 58.8828C30.0066 58.8828 30.5536 58.8828 31.0616 58.8437V51.3808L19.496 36.7676Z" fill="#DDF2F7"/>
<path d="M29.5758 48.5676L23.5586 41.6126V29.3438H35.593V40.3623L29.5758 48.5676Z" fill="#E7BC9A"/>
<path d="M37.833 23.8326C38.8177 23.9606 39.8033 22.6241 40.0343 20.8473C40.2654 19.0706 39.6544 17.5264 38.6697 17.3984C37.685 17.2703 36.6994 18.6068 36.4684 20.3836C36.2373 22.1604 36.8483 23.7045 37.833 23.8326Z" fill="#E7BC9A"/>
<path d="M20.4663 17.3787C19.4816 17.5068 18.8706 19.0509 19.1016 20.8277C19.3327 22.6044 20.3183 23.941 21.303 23.8129C22.2877 23.6849 22.8986 22.1407 22.6676 20.364C22.4365 18.5872 21.451 17.2507 20.4663 17.3787Z" fill="#E7BC9A"/>
<path d="M29.5766 34.3059C34.5183 34.3059 38.5243 28.1656 38.5243 20.5913C38.5243 13.0169 34.5183 6.87671 29.5766 6.87671C24.6349 6.87671 20.6289 13.0169 20.6289 20.5913C20.6289 28.1656 24.6349 34.3059 29.5766 34.3059Z" fill="#FFD6B8"/>
<path d="M41.7706 18.9504C42.3567 16.9577 43.8024 14.965 43.06 13.0504C40.0905 5.4312 36.6521 4.45438 35.8315 4.68881C33.917 2.11 30.0878 1.13318 27.1574 2.53981C26.2977 2.96961 19.0302 4.88418 19.0693 10.3544C19.0693 12.6987 18.2097 14.457 17.7799 15.1213C16.4905 17.3093 16.803 20.357 18.5223 22.2325C18.913 20.904 20.007 19.8881 21.2183 19.1848C22.4295 18.4815 23.758 18.0517 24.9693 17.3875C27.1964 16.2544 29.0719 14.457 30.4395 12.3862C31.2991 11.0968 33.1746 8.28351 35.011 10.0809C36.4176 11.4484 36.8083 13.4411 37.6289 15.1994C38.4494 16.9186 38.5666 18.9113 38.5275 20.8259C38.5275 21.1776 38.4885 21.5292 38.5275 21.8809C38.5666 21.0603 38.8011 20.2398 39.3481 19.6537C39.9342 19.1067 41.0282 18.6769 41.7706 18.9504Z" fill="#8E5F3F"/>
<path d="M21.8797 33.6025L31.0618 51.3025L24.4976 47.4343L25.3572 44.7774L18.9883 44.3866L19.4962 36.7674L21.8797 33.6025Z" fill="#F0FDFF"/>
<path d="M19.418 44.4258V45.1291L25.1226 45.5589L25.357 44.7774L19.418 44.4258Z" fill="#C0D9DD"/>
<path d="M25.047 47.7471L24.6172 48.4895L31.0642 51.3027L25.047 47.7471Z" fill="#C0D9DD"/>
<path d="M52.866 42.1596L39.5031 36.7676L27.9766 51.3027V58.7656C28.4845 58.8047 29.0315 58.8047 29.5395 58.8047C39.7766 58.8047 48.8024 53.5689 54.0382 45.598L52.866 42.1596Z" fill="#DDF2F7"/>
<path d="M37.1196 33.6025L27.9375 51.3025L34.5017 47.4343L33.6421 44.7774L40.011 44.3866L39.5031 36.7674L37.1196 33.6025Z" fill="#F0FDFF"/>
<path d="M39.5797 44.4258V45.1291L33.8751 45.5589L33.6406 44.7774L39.5797 44.4258Z" fill="#C0D9DD"/>
<path d="M33.9547 47.7471L34.3845 48.4895L27.9375 51.3027L33.9547 47.7471Z" fill="#C0D9DD"/>
<path d="M38.0554 18.794C38.0554 18.794 31.9209 18.0907 30.4362 19.5364C30.358 19.6145 30.2799 19.6927 30.2408 19.7708H28.9123C28.8733 19.6927 28.7951 19.6145 28.717 19.5364C27.2322 18.0516 21.0978 18.794 21.0978 18.794L20.707 19.8099C20.8242 20.6695 21.9964 22.7013 22.6216 23.1311C23.2468 23.5218 26.6461 23.4827 27.0759 23.3655C27.4276 23.2874 29.0295 21.7635 29.1077 20.5132H30.0845C30.1627 21.7635 31.7256 23.2874 32.1163 23.3655C32.5461 23.4827 35.9454 23.5218 36.5706 23.1311C37.1958 22.7404 38.368 20.6695 38.4852 19.8099L38.0554 18.794ZM26.8415 22.7404C26.4507 22.8576 23.5984 22.8576 23.1686 22.6231C22.7388 22.3496 21.7229 20.5913 21.9183 19.9271C21.9183 19.9271 21.9964 19.3801 23.0123 19.3801C24.0282 19.3801 27.8574 19.3019 28.2481 20.1225C28.6779 20.943 27.3494 22.5841 26.8415 22.7404ZM35.9845 22.6231C35.5547 22.8966 32.7024 22.8966 32.3117 22.7404C31.8428 22.5841 30.5143 20.943 30.905 20.1225C31.3348 19.3019 35.1249 19.3801 36.1408 19.3801C37.1567 19.3801 37.2348 19.9271 37.2348 19.9271C37.3911 20.5913 36.3752 22.3496 35.9845 22.6231Z" fill="#4F5565"/>
</svg>
