<svg width="59" height="59" viewBox="0 0 59 59" fill="none" xmlns="http://www.w3.org/2000/svg">
<path d="M29.5 58.8437C45.706 58.8437 58.8437 45.706 58.8437 29.5C58.8437 13.2939 45.706 0.15625 29.5 0.15625C13.2939 0.15625 0.15625 13.2939 0.15625 29.5C0.15625 45.706 13.2939 58.8437 29.5 58.8437Z" fill="#F3572F"/>
<path d="M23.4453 30.4768H35.5188V39.5417H23.4453V30.4768Z" fill="#EABEA3"/>
<path d="M17.2302 47.6687C16.8004 44.3475 18.2852 39.229 19.1838 36.533L7.93085 39.2681C5.93813 39.776 4.29707 41.1826 3.55469 43.0581C7.54012 50.6383 14.7686 56.3038 23.4037 58.1402L17.8944 52.4356L20.9421 48.333L17.2302 47.6687Z" fill="#646B79"/>
<path d="M18.7622 24.7427C19.7479 24.6225 20.3395 22.8228 20.0836 20.7228C19.8278 18.6229 18.8213 17.0179 17.8356 17.138C16.8498 17.2581 16.2582 19.0578 16.5141 21.1578C16.77 23.2578 17.7765 24.8628 18.7622 24.7427Z" fill="#EABEA3"/>
<path d="M41.1575 17.141C40.1718 17.0209 39.1653 18.6259 38.9094 20.7258C38.6535 22.8258 39.2452 24.6255 40.2309 24.7457C41.2166 24.8658 42.2231 23.2608 42.479 21.1608C42.7348 19.0608 42.1432 17.2611 41.1575 17.141Z" fill="#EABEA3"/>
<path d="M20.8248 8.04907C19.4182 10.9014 18.5586 14.4961 18.5586 18.4034C18.5586 27.7809 23.4427 35.4001 29.499 35.4001C35.5553 35.4001 40.4394 27.7809 40.4394 18.4034C40.4394 14.4961 39.5798 10.9014 38.1732 8.04907H20.8248Z" fill="#FFD8BA"/>
<path d="M29.4995 2.50073C22.3101 2.50073 16.5273 8.32259 16.5273 15.4729C16.5273 18.0517 17.2697 20.4352 18.5591 22.467C18.3638 19.0676 18.4028 14.2617 20.122 14.3007C22.8181 14.3398 31.336 16.3325 35.7903 11.4875C39.5413 7.42391 40.0492 18.9895 40.1273 22.9358C41.6121 20.8259 42.4717 18.2471 42.4717 15.512C42.4717 8.28351 36.6889 2.50073 29.4995 2.50073Z" fill="#333842"/>
<path d="M51.1056 39.3074L39.8527 36.5723C40.7513 39.2683 42.2361 44.3868 41.8063 47.708L38.1725 48.4113L41.2202 52.514L35.7109 58.2186C44.346 56.3822 51.5745 50.7557 55.5599 43.1365C54.7394 41.2219 53.1374 39.7762 51.1056 39.3074Z" fill="#646B79"/>
<path d="M36.4561 34.1497L36.2217 33.9543L34.5025 37.4318L29.5011 38.4087L24.4998 37.4318L22.7806 33.9543L22.5462 34.1497C21.7256 36.2206 19.4594 44.6212 29.5011 58.453C39.5038 44.6212 37.2766 36.2206 36.4561 34.1497Z" fill="#E5E5DD"/>
<path d="M29.5012 38.4085L25.0859 40.9482L28.2118 44.5429H29.5012H30.7906L33.9164 40.9482L29.5012 38.4085Z" fill="#333842"/>
<path d="M28.2118 44.543L25.0859 56.1476L29.5012 58.8436L33.9164 56.1476L30.7906 44.543H28.2118Z" fill="#333842"/>
<path d="M22.5465 34.1497L19.1472 36.5331C18.2485 39.2291 16.7637 44.3477 17.1935 47.6689L20.8273 48.3722L17.7796 52.4748L23.2889 58.1795C25.2816 58.6093 27.3134 58.8437 29.4233 58.8437V58.453C19.4988 44.6212 21.726 36.2205 22.5465 34.1497Z" fill="#4F5565"/>
<path d="M23.4442 32.8994C23.4442 32.8994 24.1476 36.6504 29.5005 38.3696L23.835 43.2537C23.835 43.2537 20.2012 37.2365 23.4442 32.8994Z" fill="white"/>
<path d="M35.5563 32.8994C35.5563 32.8994 34.853 36.6504 29.5 38.3696L35.1656 43.2537C35.1656 43.2537 38.7993 37.2365 35.5563 32.8994Z" fill="white"/>
<path d="M36.455 34.1497C37.2755 36.2205 39.5417 44.6212 29.5 58.453V58.8437C31.6099 58.8437 33.6808 58.6093 35.6344 58.1795L41.1437 52.4748L38.096 48.3722L41.7298 47.6689C42.1596 44.3477 40.6748 39.2291 39.7762 36.5331L36.455 34.1497Z" fill="#4F5565"/>
</svg>
