<svg width="59" height="59" viewBox="0 0 59 59" fill="none" xmlns="http://www.w3.org/2000/svg">
<path d="M29.5 58.8437C45.706 58.8437 58.8437 45.706 58.8437 29.5C58.8437 13.2939 45.706 0.15625 29.5 0.15625C13.2939 0.15625 0.15625 13.2939 0.15625 29.5C0.15625 45.706 13.2939 58.8437 29.5 58.8437Z" fill="#00A650"/>
<path d="M23.1328 32.5085H35.8706V39.4244H23.1328V32.5085Z" fill="#F2B883"/>
<path d="M16.5661 48.841C16.0972 45.3244 17.6601 39.9324 18.6369 37.1191H18.5978L6.7197 40.0105C5.27401 40.3622 4.02368 41.1827 3.125 42.3158C6.60248 49.5052 12.9323 55.0145 20.6687 57.4761L17.1912 53.9205L20.3952 49.6225L16.5661 48.841Z" fill="#676FB3"/>
<path d="M55.9148 42.3158C55.0161 41.1827 53.7658 40.3622 52.3201 40.0105L40.4029 37.1191H40.3638C41.3016 39.9715 42.8645 45.3244 42.4347 48.841L38.6055 49.5834L41.8095 53.8814L38.3711 57.437C46.0684 55.0145 52.3982 49.5052 55.9148 42.3158Z" fill="#676FB3"/>
<path d="M36.5711 34.384L34.7737 38.0569L29.4989 39.0728L24.2241 38.0569L22.4267 34.384L22.1532 34.5794C21.2936 36.6893 19.0664 45.09 28.5221 58.8046C28.8346 58.8046 29.1863 58.8436 29.4989 58.8436C29.8115 58.8436 30.1631 58.8436 30.4757 58.8046C39.9313 45.09 37.6651 36.6893 36.8446 34.5794L36.5711 34.384Z" fill="#589BC4"/>
<path d="M29.5012 39.0728L24.8516 41.7688L28.1728 45.5589H30.8297L34.1509 41.7688L29.5012 39.0728Z" fill="#8E342D"/>
<path d="M28.1728 45.5588L24.8516 57.7886L26.2582 58.6482C27.3132 58.7655 28.4072 58.8436 29.5012 58.8436C30.5953 58.8436 31.6893 58.7655 32.7443 58.6482L34.1509 57.7886L30.8297 45.5588H28.1728Z" fill="#8E342D"/>
<path d="M18.5972 37.1191C17.6595 39.9714 16.0965 45.3244 16.5263 48.8409L20.3555 49.5833L17.1906 53.9204L20.629 57.476C23.1297 58.2575 25.7866 58.7264 28.5217 58.8045C19.0661 45.0899 21.3323 36.6893 22.1528 34.5793L18.5972 37.1191Z" fill="#4B5AA7"/>
<path d="M23.1312 33.29C23.1312 33.29 23.8736 37.2364 29.5001 39.0728L23.561 44.1914C23.561 44.1914 19.6928 37.8225 23.1312 33.29Z" fill="#6EB1E1"/>
<path d="M35.8689 33.29C35.8689 33.29 35.1265 37.2364 29.5 39.0728L35.4391 44.1914C35.4391 44.1914 39.3073 37.8225 35.8689 33.29Z" fill="#6EB1E1"/>
<path d="M36.8064 34.5793C37.666 36.6893 39.8931 45.0899 30.4375 58.8045C33.1726 58.7264 35.8296 58.2575 38.3302 57.476L41.7686 53.9204L38.5647 49.6224L42.3938 48.88C42.8627 45.3635 41.2997 39.9714 40.3229 37.1582L36.8064 34.5793Z" fill="#4B5AA7"/>
<path d="M19.821 25.8707C20.5808 25.7068 20.846 23.9486 20.4135 21.9436C19.9809 19.9387 19.0143 18.4463 18.2546 18.6102C17.4948 18.7741 17.2296 20.5323 17.6621 22.5372C18.0947 24.5422 19.0612 26.0346 19.821 25.8707Z" fill="#F2B883"/>
<path d="M40.7142 18.6121C39.9544 18.4482 38.9879 19.9406 38.5553 21.9456C38.1227 23.9505 38.388 25.7087 39.1478 25.8726C39.9075 26.0366 40.8741 24.5441 41.3067 22.5392C41.7392 20.5342 41.474 18.776 40.7142 18.6121Z" fill="#F2B883"/>
<path d="M38.1731 8.08813L39.5797 18.5987L38.8373 28.0153L29.4989 35.2047L20.3168 28.8749L19.3009 17.1921L18.9102 10.1199L38.1731 8.08813Z" fill="#FFCB95"/>
<path d="M38.5261 5.82171C29.5002 -2.81339 20.5135 5.82171 20.5135 5.82171C20.5135 5.82171 15.5512 11.331 18.2082 18.6767C18.2082 18.6767 19.5367 19.4972 19.5367 21.4118C19.5367 21.4118 19.3022 28.2105 20.4744 30.086C21.5294 31.7661 26.2181 35.5952 29.1486 36.2204H29.93C32.8605 35.5952 37.5102 31.8052 38.5651 30.086C39.6982 28.2495 39.5029 21.4118 39.5029 21.4118C39.5029 19.4972 40.8314 18.6767 40.8314 18.6767C43.4883 11.331 38.5261 5.82171 38.5261 5.82171ZM38.8386 24.8502C38.1744 28.2495 36.6115 27.8979 36.2208 29.2263C35.83 30.5548 35.0877 30.3204 35.0877 30.3204C35.0877 30.3204 35.0877 29.3045 35.0877 27.1946C35.0877 25.5144 31.6102 25.2409 30.2035 25.1628C29.891 25.1628 29.6175 25.3972 29.6175 25.7489C29.6175 26.1005 29.93 26.374 30.2426 26.335C33.2512 26.0224 34.3062 27.5071 34.3062 27.5071C34.8532 31.7661 30.6333 32.8211 30.6333 32.8211C29.5393 31.9224 30.5943 31.1409 30.5943 31.1409H28.4062C28.4062 31.1409 29.4612 31.9224 28.3671 32.8211C28.3671 32.8211 24.1473 31.727 24.6943 27.5071C24.6943 27.5071 25.7492 26.0224 28.7578 26.335C29.1095 26.374 29.383 26.1005 29.383 25.7489C29.383 25.4363 29.1095 25.1628 28.7969 25.1628C27.3903 25.2018 23.9128 25.5144 23.9128 27.1946V30.3204C23.9128 30.3204 23.1314 30.5548 22.7797 29.2263C22.389 27.8979 20.8261 28.2886 20.1618 24.8502C19.4976 21.4508 19.8883 16.5277 21.2559 15.2773L20.5525 12.0343C20.6698 10.9793 26.7261 12.0343 26.7261 12.0343C25.7492 12.3078 22.3499 12.5422 22.3499 12.5422C26.179 13.1674 33.3294 11.2138 33.3294 11.2138C32.7433 11.6826 29.1095 12.5422 29.1095 12.5422C33.7592 12.0734 36.6896 10.0416 37.1976 9.65085C37.1194 9.76807 36.9631 10.0806 36.7287 10.8621C36.338 12.1906 37.7837 15.2383 37.7837 15.2383C39.1122 16.5277 39.5029 21.4508 38.8386 24.8502Z" fill="#333842"/>
</svg>
