<svg width="59" height="59" viewBox="0 0 59 59" fill="none" xmlns="http://www.w3.org/2000/svg">
<path d="M29.5 58.8437C45.706 58.8437 58.8437 45.706 58.8437 29.5C58.8437 13.2939 45.706 0.15625 29.5 0.15625C13.2939 0.15625 0.15625 13.2939 0.15625 29.5C0.15625 45.706 13.2939 58.8437 29.5 58.8437Z" fill="#F1F3F7"/>
<path d="M29.5 58.8437C45.706 58.8437 58.8437 45.706 58.8437 29.5C58.8437 13.2939 45.706 0.15625 29.5 0.15625C13.2939 0.15625 0.15625 13.2939 0.15625 29.5C0.15625 45.706 13.2939 58.8437 29.5 58.8437Z" fill="#3EB9E3"/>
<path d="M37.0007 22.8577C37.0007 22.8967 36.9616 22.9749 36.9616 23.014C36.7271 23.9517 36.5709 24.7722 35.9457 25.5537C35.4377 26.1789 35.047 26.8822 34.5391 27.5073L34.6172 31.4928C34.6172 31.4928 38.9934 27.9371 40.5172 22.8577H37.0007Z" fill="#333842"/>
<path d="M24.4977 32.1179V27.351C22.8566 25.8272 22.2315 23.9908 21.997 22.8577H18.4805C20.0434 28.6795 24.4977 32.1179 24.4977 32.1179Z" fill="#333842"/>
<path d="M21.567 22.7794C22.905 22.7794 23.9896 20.8726 23.9896 18.5204C23.9896 16.1683 22.905 14.2615 21.567 14.2615C20.2291 14.2615 19.1445 16.1683 19.1445 18.5204C19.1445 20.8726 20.2291 22.7794 21.567 22.7794Z" fill="#CF9981"/>
<path d="M23.875 25.5537H35.128V53.9987H23.875V25.5537Z" fill="#CF9981"/>
<path d="M29.5017 58.8436C32.6275 58.8436 35.5971 58.3356 38.4103 57.4369L38.215 45.0899L35.5189 39.4244L29.5017 47.0045L23.0156 38.3694V58.1012C25.0865 58.57 27.2746 58.8436 29.5017 58.8436Z" fill="#F1F8FE"/>
<path d="M18.8719 39.3463L16.3321 41.4953L25.6706 56.0695L23.3653 37.9397L20.3176 33.29L15.9023 38.9165L18.8719 39.3463Z" fill="#4F5565"/>
<path d="M16.3309 41.4954L18.8707 39.3464L15.9011 38.9166L21.5667 33.0557L22.1528 32.0007L8.78987 36.8458C7.69583 37.1974 6.91437 38.1742 6.75808 39.3074L5.74219 46.7312C10.3528 53.1001 17.464 57.5153 25.6693 58.5703V56.0696V56.0305L16.3309 41.4954Z" fill="#646B79"/>
<path d="M40.1268 39.3463L42.6665 41.4953L33.3281 56.0695L35.6334 37.9397L38.6811 33.29L43.0963 38.9165L40.1268 39.3463Z" fill="#4F5565"/>
<path d="M53.2553 46.7312L52.2394 39.3073C52.0831 38.1742 51.3016 37.2365 50.2076 36.8457L36.9228 32.1179L37.1182 32.704L43.0573 38.9166L40.0877 39.3464L42.6275 41.4954L33.2891 56.0696V56.1087V58.6093C41.4944 57.5153 48.6056 53.1 53.2553 46.7312Z" fill="#646B79"/>
<path d="M23.8734 30.6721L21.8416 38.9165L15.082 40.8311L21.6072 32.1569L23.8734 30.6721Z" fill="#CED5E5"/>
<path d="M21.8398 38.9165L29.4981 47.0436L23.8716 30.6721L21.8398 38.9165Z" fill="#EDF1FC"/>
<path d="M35.125 30.6721L37.1568 38.9165L43.9164 40.8311L37.3912 32.1569L35.125 30.6721Z" fill="#ECF5FC"/>
<path d="M37.1583 38.9165L29.5 47.0436L35.1265 30.6721L37.1583 38.9165Z" fill="#CED5E5"/>
<path d="M29.4982 30.633C33.8788 30.633 37.43 25.5074 37.43 19.1847C37.43 12.8619 33.8788 7.73633 29.4982 7.73633C25.1176 7.73633 21.5664 12.8619 21.5664 19.1847C21.5664 25.5074 25.1176 30.633 29.4982 30.633Z" fill="#F1BBA1"/>
<path d="M20.3975 19.2628C20.2412 18.3251 19.1863 16.4886 20.085 16.0979C21.0227 15.7072 21.9214 18.2078 21.9214 18.2078C21.9214 18.2078 22.9373 12.2688 24.0313 11.5655C24.7346 11.0966 25.8677 9.53367 26.532 8.55685C26.4929 8.40056 26.4929 8.28334 26.4538 8.12705L26.9618 5.15752C25.2426 2.89129 21.726 6.3297 21.179 6.83765C20.632 7.3456 17.8187 11.1357 17.975 19.1847C18.0141 20.5131 18.2095 21.7635 18.522 22.8966H22.0386C21.9214 22.3105 21.8823 21.9588 21.8823 21.9588C21.0227 21.8025 20.5538 20.2006 20.3975 19.2628Z" fill="#333842"/>
<path d="M40.9492 18.0907C40.0114 10.6669 38.722 6.32978 33.369 4.68872C28.016 3.08673 26.9611 5.15759 26.9611 5.15759L26.4531 8.12713C26.4922 8.28342 26.4922 8.40064 26.5313 8.55693C26.7266 9.45561 27.1174 10.2761 27.5862 11.0576C29.2664 13.9099 31.9624 15.9808 34.6975 17.7781C34.0723 16.8404 33.4081 15.9026 32.6657 15.004C33.7597 15.551 34.6194 16.4496 35.4008 17.3874C36.6902 18.9503 37.4717 20.9039 37.0028 22.8576H40.5194C40.9882 21.3728 41.1836 19.7708 40.9492 18.0907Z" fill="#333842"/>
</svg>
