<svg width="59" height="59" viewBox="0 0 59 59" fill="none" xmlns="http://www.w3.org/2000/svg">
<path d="M20.7072 26.0593C21.4595 25.9891 21.9684 24.8519 21.844 23.5193C21.7196 22.1867 21.0089 21.1634 20.2566 21.2337C19.5044 21.3039 18.9954 22.4411 19.1198 23.7737C19.2443 25.1062 19.9549 26.1296 20.7072 26.0593Z" fill="#D8A38F"/>
<path d="M38.7565 21.222C38.0042 21.1517 37.2935 22.175 37.1691 23.5076C37.0447 24.8402 37.5536 25.9774 38.3059 26.0476C39.0581 26.1179 39.7688 25.0945 39.8933 23.762C40.0177 22.4294 39.5087 21.2922 38.7565 21.222Z" fill="#D8A38F"/>
<path d="M29.5 58.8437C45.706 58.8437 58.8437 45.706 58.8437 29.5C58.8437 13.2939 45.706 0.15625 29.5 0.15625C13.2939 0.15625 0.15625 13.2939 0.15625 29.5C0.15625 45.706 13.2939 58.8437 29.5 58.8437Z" fill="#6DC854"/>
<path d="M45.169 31.1802C42.0041 34.3451 40.0114 30.2034 39.8941 29.0312C39.6597 27.2729 40.7928 25.71 41.5352 24.108C42.9418 21.8418 43.7624 19.1457 43.7624 16.2543C43.7624 8.20534 37.3935 1.68018 29.5398 1.68018C21.6862 1.68018 15.2782 8.20534 15.2782 16.2543C15.2782 19.1457 16.0988 21.8418 17.5054 24.108C18.2478 25.71 19.3418 27.312 19.1465 29.0312C18.9902 30.2034 17.0365 34.3451 13.8716 31.1802C13.6372 32.0398 13.4028 32.8994 13.4028 33.7981C13.3637 36.8457 16.1379 39.5418 19.1465 39.5808H39.8941C42.9028 39.5808 45.6769 36.8457 45.6379 33.7981C45.5988 32.8994 45.3643 32.0398 45.169 31.1802Z" fill="#333842"/>
<path d="M24.0673 58.3358L19.3004 38.604L10.1183 41.4563C8.20376 42.0424 6.75806 43.5663 6.21104 45.4808L5.82031 46.8093C10.1183 52.7093 16.6044 56.9292 24.0673 58.3358Z" fill="#74594E"/>
<path d="M53.1767 46.8093L52.786 45.4808C52.239 43.5663 50.7542 42.0424 48.8787 41.4563L39.6966 38.604L38.9933 44.3868L34.8906 58.3358C42.3926 56.9292 48.8787 52.7093 53.1767 46.8093Z" fill="#74594E"/>
<path d="M23.6406 30.9456H35.3625V45.9495H23.6406V30.9456Z" fill="#D8A38F"/>
<path d="M21.1367 40.8311L26.3334 58.6483C27.3884 58.7655 28.4043 58.8046 29.4983 58.8046V45.9105L21.1367 40.8311Z" fill="#DEDEDF"/>
<path d="M38.6025 22.1543C38.6025 28.5623 34.5389 34.1106 29.4985 34.1106C24.4581 34.1106 20.3945 28.5623 20.3945 22.1543C20.3945 15.7464 24.4581 10.9795 29.4985 10.9795C34.5389 10.9795 38.6025 15.7464 38.6025 22.1543Z" fill="#EDB79F"/>
<path d="M23.6016 34.7358L29.5016 45.9107V54.6239L24.4612 43.5663L23.6016 34.7358Z" fill="#F1F3F7"/>
<path d="M21.0599 37.4316L19.3016 38.6038L16.2539 48.0595L19.4579 48.2548L17.5042 51.1853L22.4665 57.984C23.9903 58.3356 25.5142 58.6091 27.1162 58.7263L21.0599 37.4316Z" fill="#886C60"/>
<path d="M23.5988 34.7358L24.4584 43.5663L19.1055 47.4736L21.0591 37.4319L23.5988 34.7358Z" fill="#FCFDFF"/>
<path d="M29.5 45.9105V58.8046C30.555 58.8046 31.6099 58.7264 32.6649 58.6483L37.8616 40.8311L29.5 45.9105Z" fill="#DEDEDF"/>
<path d="M35.4 34.7358L29.5 45.9107V54.6239L34.5404 43.5663L35.4 34.7358Z" fill="#FCFDFF"/>
<path d="M39.6974 38.6038L37.9391 37.4316L31.8438 58.7263C33.4457 58.6091 34.9696 58.3356 36.4934 57.984L41.4557 51.1853L39.502 48.2548L42.706 48.0595L39.6974 38.6038Z" fill="#886C60"/>
<path d="M35.3987 34.7358L34.5391 43.5663L39.892 47.4736L37.9384 37.4319L35.3987 34.7358Z" fill="#F1F3F7"/>
</svg>
