<svg width="59" height="59" viewBox="0 0 59 59" fill="none" xmlns="http://www.w3.org/2000/svg">
<path d="M29.5 58.8437C45.706 58.8437 58.8437 45.706 58.8437 29.5C58.8437 13.2939 45.706 0.15625 29.5 0.15625C13.2939 0.15625 0.15625 13.2939 0.15625 29.5C0.15625 45.706 13.2939 58.8437 29.5 58.8437Z" fill="#FBD303"/>
<path d="M22.9336 29.1482H36.023V38.2131H22.9336V29.1482Z" fill="#EFAD89"/>
<path d="M55.3262 43.4098C54.6619 42.3939 53.7242 41.6125 52.552 41.1827L37.509 35.3999L29.499 37.5098L21.4891 35.3999L6.44605 41.2218C5.31293 41.6516 4.33611 42.4721 3.67188 43.4489C8.63413 52.631 18.3242 58.8436 29.499 58.8436C40.6739 58.8436 50.3639 52.592 55.3262 43.4098Z" fill="#646B79"/>
<path d="M37.5085 35.3999L29.4986 37.5098L21.4886 35.3999L20.1602 35.9079C20.1602 35.9079 24.341 57.7105 24.8489 58.4529C26.3727 58.6873 27.9357 58.8436 29.4986 58.8436C31.3741 58.8436 33.2496 58.6482 35.0078 58.3357C36.6098 54.5456 38.5635 35.8297 38.5635 35.8297L37.5085 35.3999Z" fill="#6EB1E1"/>
<path d="M29.5009 37.5098L26.0234 39.776L28.0552 42.3548H29.5009H30.9466L32.9784 39.776L29.5009 37.5098Z" fill="#D54232"/>
<path d="M29.4974 58.8437C31.1384 58.8437 32.7404 58.6874 34.3033 58.453L30.9431 42.355H28.0517L24.6914 58.453C26.2543 58.6874 27.8563 58.8437 29.4974 58.8437Z" fill="#F0582F"/>
<path d="M22.8558 32.6257C22.8558 32.6257 23.7545 35.8688 29.4982 37.5098C29.4982 37.5098 26.4896 39.737 25.0048 42.0032C25.0048 42.0032 21.5664 38.7992 21.4883 35.3608L22.8558 32.6257Z" fill="#8CCDF4"/>
<path d="M36.1424 32.6257C36.1424 32.6257 35.2437 35.8688 29.5 37.5098C29.5 37.5098 32.5086 39.737 33.9934 42.0032C33.9934 42.0032 37.4318 38.7992 37.5099 35.3608L36.1424 32.6257Z" fill="#8CCDF4"/>
<path d="M38.9923 22.8184C38.9923 22.8184 38.7579 26.2568 38.4062 26.9992L39.2659 26.6866C40.2817 26.3349 40.5943 24.9674 39.7347 24.2641C39.6957 24.225 38.9923 22.8184 38.9923 22.8184Z" fill="#D99F7A"/>
<path d="M18.4414 22.7404L20.0825 22.0371C20.0825 22.0371 20.1215 24.6159 20.2388 25.0457L18.4414 22.7404Z" fill="#D99F7A"/>
<path d="M34.4613 10.6278C33.25 5.82186 22.3096 9.84637 22.3096 9.84637C22.3096 9.84637 19.8871 17.7782 20.0825 18.4815C19.809 19.7709 20.0825 21.0993 20.0825 22.506C20.0825 30.1642 24.3024 36.4159 29.5381 36.4159C34.7739 36.4159 38.9938 30.2033 38.9938 22.506C38.9938 17.4656 37.1964 13.0503 34.4613 10.6278Z" fill="#FFC097"/>
<path d="M29.7712 9.02575C29.7712 9.02575 35.3195 16.5668 38.7579 19.1456C38.7579 19.1456 38.25 23.3655 39.852 24.6158C39.852 24.6158 39.5003 26.2959 38.4454 26.9602C38.4454 26.9602 39.2659 30.3986 41.454 30.7502C41.454 30.7502 40.3599 29.6953 39.9692 28.9138C39.9692 28.9138 41.0632 29.6171 41.8056 29.7344C41.8056 29.7344 40.4381 27.2337 40.4771 26.2569C40.4771 26.2569 40.9851 27.0383 42.2354 27.3509C42.2354 27.3509 41.1805 23.0529 43.2122 21.1774C45.244 19.341 46.0646 7.97078 36.0228 2.73502C36.0228 2.73502 29.4586 -1.4067 22.3864 5.50919C22.3864 5.50919 13.2824 15.8635 16.3692 21.4509C16.3692 21.4509 17.0725 24.0688 19.2606 25.6317C21.4487 27.1946 18.8308 28.484 18.8308 28.484C18.8308 28.484 20.7844 29.0701 21.1361 28.7575C21.1361 28.7575 20.3156 25.4754 20.3156 24.733C20.3156 24.733 19.2606 23.4827 19.2606 22.7794L20.3937 23.7171L20.0811 21.3337L20.8235 17.4655C20.8235 17.4655 22.1911 18.5986 23.5977 18.794C23.5977 18.794 20.9798 16.8403 21.2924 14.9257C21.2924 14.9257 22.5036 16.7622 24.1838 17.0357C24.1838 17.0357 21.605 15.1993 22.1129 11.5655C22.1129 11.5655 25.4732 17.3873 30.0447 18.7158C30.0447 18.7158 25.4732 13.2065 26.4109 9.22111C26.4109 9.22111 31.3732 16.0589 32.4281 19.8099C32.4672 19.8099 30.9434 11.0185 29.7712 9.02575Z" fill="#333842"/>
<path d="M22.0368 42.9019C20.5521 38.9946 21.4507 35.3608 21.4507 35.3608L18.8329 36.3767C16.9964 37.9006 15.707 43.8396 15.707 43.8396L19.3408 44.5039L15.707 48.333L23.5216 58.1794C24.5766 58.4138 25.7097 58.5701 26.8037 58.6483C25.2408 53.2171 22.9746 45.3244 22.0368 42.9019Z" fill="#414753"/>
<path d="M40.1271 36.3767L37.5092 35.3999C37.5092 35.3999 38.4079 39.0337 36.9231 42.941C35.9854 45.3635 33.7192 53.2562 32.1562 58.7264C33.2503 58.6092 34.3443 58.4529 35.4384 58.2575L43.2529 48.4112L39.6192 44.582L43.2529 43.9178C43.2529 43.8787 41.9635 37.9006 40.1271 36.3767Z" fill="#414753"/>
</svg>
