<svg width="59" height="59" viewBox="0 0 59 59" fill="none" xmlns="http://www.w3.org/2000/svg">
<path d="M29.5 58.8437C45.706 58.8437 58.8437 45.706 58.8437 29.5C58.8437 13.2939 45.706 0.15625 29.5 0.15625C13.2939 0.15625 0.15625 13.2939 0.15625 29.5C0.15625 45.706 13.2939 58.8437 29.5 58.8437Z" fill="#3DB8E2"/>
<path d="M51.2655 49.1535L45.9125 39.9714L36.6131 37.2754L29.4628 38.135L22.3125 37.2754L13.0131 39.9714L7.66016 49.1535C13.0131 55.0926 20.7886 58.8436 29.4237 58.8436C38.137 58.8436 45.9125 55.0926 51.2655 49.1535Z" fill="#646B79"/>
<path d="M34.5814 33.4463H24.4224C23.9536 37.5489 22.2734 37.2754 22.2734 37.2754C24.6569 41.886 29.5019 41.4953 29.5019 41.4953C29.5019 41.4953 34.3469 41.9642 36.7304 37.2754C36.7304 37.2754 35.0503 37.5489 34.5814 33.4463Z" fill="#EFC3A5"/>
<path d="M19.1418 25.7696C20.1714 25.6556 20.8521 24.1722 20.6622 22.4562C20.4723 20.7402 19.4837 19.4415 18.4541 19.5554C17.4245 19.6694 16.7438 21.1528 16.9337 22.8688C17.1236 24.5848 18.1122 25.8835 19.1418 25.7696Z" fill="#EFC3A5"/>
<path d="M40.4953 19.552C39.4657 19.438 38.4771 20.7367 38.2872 22.4527C38.0973 24.1687 38.778 25.6522 39.8076 25.7661C40.8372 25.88 41.8258 24.5813 42.0157 22.8653C42.2056 21.1494 41.5249 19.6659 40.4953 19.552Z" fill="#EFC3A5"/>
<path d="M19.2227 17.1919C19.1445 17.9734 19.1055 18.7548 19.1055 19.5363C19.1055 28.523 23.7551 35.7906 29.4988 35.7906C35.2426 35.7906 39.8922 28.523 39.8922 19.5363C39.8922 18.7548 39.8532 17.9734 39.775 17.1919H19.2227Z" fill="#FFD7B7"/>
<path d="M19.8875 17.1919H17.0352C17.1524 18.2859 17.3087 19.38 17.5822 20.0833C17.5822 20.0833 18.6371 20.0442 19.2232 21.8025H19.6921C19.6921 21.7634 19.1842 19.4972 19.8875 17.1919Z" fill="#393D47"/>
<path d="M39.0742 17.1919C39.7775 19.4972 39.2305 21.7634 39.2305 21.7634H39.6994C40.2855 20.0442 41.3404 20.0442 41.3404 20.0442C41.614 19.3409 41.8093 18.2859 41.8875 17.1528H39.0742V17.1919Z" fill="#393D47"/>
<path d="M36.6899 37.2754L29.5005 49.1145L22.3111 37.2754L13.0117 39.9714C13.0117 39.9714 16.8018 43.8396 14.5356 54.741C18.9117 57.3588 24.0303 58.8436 29.5005 58.8436C34.9707 58.8436 40.0892 57.3588 44.4654 54.741C42.1991 43.8396 45.9892 39.9714 45.9892 39.9714L36.6899 37.2754Z" fill="#FE9516"/>
<path d="M42.5508 14.7695C42.3555 8.86954 38.2528 3.94636 32.7435 2.53974C32.7435 2.3053 32.7435 2.03179 32.7435 1.79735C30.6336 1.17219 28.3674 1.17219 26.2574 1.83643V2.57881C20.7482 3.98543 16.6455 8.90861 16.4502 14.8086L12.9336 17.3093H16.5674H29.5005H42.4336H46.0674L42.5508 14.7695Z" fill="#FBD303"/>
<path d="M26.2165 3.79004V13.9099L20.0039 14.4569C20.0039 14.4179 26.2165 14.0662 26.2165 3.79004Z" fill="#F8B517"/>
<path d="M32.7812 3.79004V13.9099L38.9938 14.4569C38.9938 14.4179 32.7812 14.0662 32.7812 3.79004Z" fill="#F8B517"/>
</svg>
