<svg width="59" height="59" viewBox="0 0 59 59" fill="none" xmlns="http://www.w3.org/2000/svg">
<path d="M29.5 58.8437C45.706 58.8437 58.8437 45.706 58.8437 29.5C58.8437 13.2939 45.706 0.15625 29.5 0.15625C13.2939 0.15625 0.15625 13.2939 0.15625 29.5C0.15625 45.706 13.2939 58.8437 29.5 58.8437Z" fill="#76D95B"/>
<path d="M54.6618 44.582C53.9585 42.9409 52.63 41.6515 50.9108 41.0654L45.4796 39.1899H13.5181L8.08693 41.0654C6.36773 41.6515 5.03925 42.9409 4.33594 44.582C9.45448 53.0999 18.7929 58.8436 29.4989 58.8436C40.2048 58.8436 49.5432 53.1389 54.6618 44.582Z" fill="#00938F"/>
<path d="M22.8984 27.5073H36.2223V43.3318H22.8984V27.5073Z" fill="#FFC59D"/>
<path d="M29.4986 33.1337C34.7208 33.1337 38.9542 27.2209 38.9542 19.9271C38.9542 12.6333 34.7208 6.72046 29.4986 6.72046C24.2764 6.72046 20.043 12.6333 20.043 19.9271C20.043 27.2209 24.2764 33.1337 29.4986 33.1337Z" fill="#FBD6BB"/>
<path d="M31.4919 9.41637C33.9144 9.18193 38.5641 11.2528 38.2515 20.2786C38.1343 23.2872 37.5873 26.374 35.8681 28.8356C35.282 29.6561 34.5787 30.3985 34.1489 31.3362C33.9144 31.8442 33.1721 34.6184 33.0548 35.478C32.7032 38.174 33.4456 41.0263 35.2038 43.1362C36.9231 45.2462 39.6582 46.4965 42.3933 46.3402C42.9403 46.3011 45.4019 45.3634 45.7144 44.3475C46.3787 42.3938 48.6058 41.1044 48.6449 39.0336C48.684 37.9395 48.0197 36.9237 47.1211 36.2594C46.2224 35.5952 45.1674 35.2826 44.0734 35.0482C43.8389 35.0091 43.2529 34.4621 43.1747 34.2667C42.276 31.5316 41.8462 28.6793 41.8853 25.7879C41.9635 21.3336 43.2919 16.723 41.8462 12.5031C39.8926 6.87663 35.5164 3.98524 32.1171 4.02432C31.8045 4.3369 31.5701 4.84485 31.4529 5.31372C31.1012 6.6422 30.7495 8.12697 31.4138 9.33822" fill="#3E2D25"/>
<path d="M31.687 4.06348C28.4439 2.10984 18.5585 4.33699 17.1128 12.5423C16.3314 16.9184 16.9565 21.3728 17.0737 25.8271C17.1128 28.6794 16.683 31.5708 15.7843 34.3059C15.7062 34.5012 15.081 35.0483 14.8857 35.0873C13.8307 35.3218 12.7367 35.6343 11.838 36.2986C10.9393 36.9628 10.2751 37.9787 10.3141 39.0728C10.3532 41.1045 12.5804 42.433 13.2446 44.3867C13.5963 45.4026 16.0188 46.3403 16.5658 46.3794C19.3009 46.5357 21.9969 45.2463 23.7552 43.1754C25.4744 41.0655 26.2559 38.2522 25.9042 35.5171C25.787 34.6575 25.0446 31.8834 24.8102 31.3754C24.3804 30.4767 23.638 29.6953 23.091 28.8747C21.3718 26.4132 20.8638 23.2873 20.7075 20.3178C20.2777 11.1747 25.3572 9.76812 25.4353 9.68997C27.5062 9.02573 31.0227 9.37739 31.0227 9.37739L31.8824 4.37606L31.687 4.06348Z" fill="#3E2D25"/>
</svg>
